<svg width="277" height="26" viewBox="0 0 277 26" fill="none" xmlns="http://www.w3.org/2000/svg">
<path d="M260.197 13.5011C259.817 13.5225 259.434 13.5372 259.062 13.5692C258.821 13.5893 258.718 13.5305 258.557 13.4998C258.503 13.4891 258.446 13.4677 258.396 13.4704C258.02 13.4917 257.645 13.5158 257.269 13.5398C257.154 13.592 257.082 13.6614 256.905 13.6868C256.733 13.7109 256.53 13.7109 256.338 13.7229C256.085 13.7376 255.833 13.7523 255.58 13.7657C255.453 13.7723 255.35 13.7977 255.308 13.8458C255.3 13.8539 255.384 13.8739 255.43 13.8859C255.584 13.926 255.733 13.9714 255.902 14.0022C256.062 14.0316 256.262 13.9835 256.434 14.0209C256.821 14.1051 256.825 14.1037 257.12 14.0877C257.373 14.073 257.626 14.057 257.879 14.0463C257.928 14.0436 257.986 14.0636 258.039 14.0743C258.2 14.1037 258.304 14.1705 258.541 14.1451C258.721 14.1251 258.921 14.1211 259.108 14.1104C259.266 14.1492 259.411 14.1932 259.58 14.224C259.737 14.2534 259.783 14.2761 259.698 14.3148C259.622 14.3509 259.515 14.3656 259.373 14.3683C259.246 14.3696 259.12 14.3816 258.993 14.3883C258.928 14.3923 258.867 14.395 258.806 14.399C258.564 14.4137 258.564 14.4137 258.124 14.3282C257.951 14.2948 257.756 14.3416 257.591 14.3095C257.48 14.2881 257.384 14.2561 257.277 14.2333C257.231 14.224 257.158 14.2226 257.101 14.2253C256.909 14.2347 256.718 14.2413 256.534 14.2587C256.404 14.2707 256.327 14.3082 256.342 14.3456C256.346 14.3603 256.438 14.3817 256.492 14.383C256.614 14.3857 256.744 14.367 256.863 14.3763C256.978 14.3857 257.097 14.4124 257.181 14.4418C257.354 14.5032 257.549 14.4485 257.714 14.4645C257.886 14.4819 258.028 14.5353 258.193 14.5674C258.235 14.5754 258.315 14.562 258.38 14.558C258.568 14.5487 258.756 14.5407 258.944 14.5313C259.101 14.5701 259.269 14.6048 259.411 14.6489C259.668 14.7291 259.944 14.7598 260.277 14.721C260.465 14.6997 260.649 14.7077 260.798 14.7598C260.951 14.8132 261.128 14.8079 261.323 14.7972C261.503 14.7865 261.687 14.7571 261.871 14.7945C262.269 14.8774 262.273 14.8814 262.744 14.8493C262.886 14.84 262.993 14.8373 263.101 14.868C263.2 14.8961 263.308 14.9201 263.411 14.9469C263.599 14.9375 263.79 14.9282 263.978 14.9175C264.219 14.9028 264.354 14.9215 264.411 14.9963C264.445 15.0417 264.461 15.0832 264.545 15.1139C264.645 15.1513 264.752 15.15 264.898 15.1393C265.036 15.1299 265.135 15.1152 265.193 15.0671C265.216 15.0471 265.262 15.0284 265.304 15.0123C265.338 15.0003 265.392 14.9816 265.423 14.9843C265.48 14.9896 265.557 15.0043 265.576 15.0217C265.763 15.1834 265.763 15.1847 265.955 15.2315C266.166 15.2836 266.384 15.3304 266.576 15.3891C266.748 15.4413 266.921 15.4186 267.108 15.4186C267.25 15.4186 267.342 15.4533 267.331 15.488C267.323 15.5081 267.269 15.5375 267.223 15.5401C266.848 15.5669 266.469 15.5896 266.089 15.6083C266.043 15.611 265.986 15.5869 265.932 15.5749C265.825 15.5508 265.729 15.5134 265.614 15.5054C265.499 15.4974 265.365 15.5174 265.239 15.5241C265.112 15.5308 264.978 15.5482 264.863 15.5375C264.748 15.5268 264.656 15.488 264.549 15.4626C264.499 15.4506 264.43 15.4333 264.388 15.4373C264.108 15.4693 263.901 15.4252 263.702 15.3664C263.66 15.3544 263.587 15.3464 263.534 15.3491C263.089 15.3718 262.649 15.3985 262.204 15.4239C262.024 15.4346 261.878 15.3878 261.84 15.309C261.821 15.2649 261.783 15.2208 261.783 15.1767C261.783 15.0965 261.572 15.0524 261.419 15.0618C261.166 15.0751 260.909 15.0858 260.66 15.1059C260.457 15.1219 260.285 15.1059 260.147 15.0578C259.986 15.003 259.802 15.0137 259.618 15.0284C259.48 15.0391 259.442 15.0832 259.449 15.1941C259.457 15.2836 259.392 15.3116 259.143 15.3263C258.829 15.3451 258.511 15.3638 258.193 15.3785C258.143 15.3811 258.085 15.3584 258.036 15.3464C257.928 15.3223 257.833 15.2836 257.718 15.2756C257.603 15.2662 257.469 15.2863 257.342 15.2943C257.216 15.301 257.082 15.3197 256.967 15.3103C256.852 15.301 256.756 15.2609 256.652 15.2355C256.603 15.2235 256.541 15.2061 256.492 15.2088C256.239 15.2194 255.986 15.2355 255.733 15.2502C255.449 15.2662 255.449 15.2662 255.047 15.1834C254.863 15.146 254.679 15.1754 254.499 15.1861C254.308 15.1967 254.128 15.2021 253.978 15.1486C253.879 15.1139 253.768 15.0925 253.649 15.0992C253.331 15.1152 253.017 15.1353 252.699 15.1513C252.645 15.154 252.572 15.1473 252.53 15.1353C252.327 15.0792 252.128 15.0351 251.844 15.0631C251.599 15.0872 251.335 15.0885 251.089 15.1112C250.955 15.1232 250.894 15.166 250.921 15.1994C250.936 15.2168 251.017 15.2368 251.07 15.2368C251.193 15.2382 251.327 15.2181 251.442 15.2261C251.679 15.2422 251.798 15.3544 252.109 15.3237C252.292 15.305 252.484 15.2983 252.676 15.2929C252.725 15.2916 252.779 15.317 252.833 15.3304C252.986 15.3664 253.12 15.4132 253.342 15.3891C253.526 15.3704 253.721 15.3651 253.909 15.3544C254.208 15.337 254.208 15.3384 254.595 15.4199C254.779 15.4586 254.963 15.4279 255.143 15.4186C255.277 15.4119 255.403 15.3985 255.511 15.4172C255.675 15.4453 255.794 15.5094 255.997 15.5054C256.189 15.5014 256.377 15.4827 256.568 15.476C256.687 15.472 256.798 15.4934 256.894 15.5295C256.993 15.5655 257.101 15.5816 257.231 15.5735C257.419 15.5629 257.61 15.5495 257.802 15.5428C257.856 15.5415 257.917 15.5535 257.967 15.5642C258.074 15.5882 258.177 15.6163 258.281 15.6417C258.469 15.6337 258.66 15.631 258.844 15.615C258.986 15.6029 259.085 15.6083 259.2 15.635C259.346 15.6711 259.465 15.7352 259.702 15.7045C259.821 15.6898 259.959 15.6938 260.078 15.6804C260.223 15.6631 260.323 15.6698 260.426 15.7098C260.622 15.786 260.867 15.7873 261.12 15.7579C261.396 15.7259 261.603 15.7633 261.81 15.8221C262.028 15.8836 262.028 15.8822 262.197 16.0305C262.246 16.0733 262.388 16.0933 262.507 16.0853C262.706 16.072 262.879 16.0786 263.024 16.1294C263.177 16.1842 263.361 16.1775 263.549 16.1628C263.798 16.1428 264.047 16.1254 264.25 16.2029C264.35 16.2403 264.457 16.2497 264.591 16.2403C264.97 16.2163 265.354 16.2016 265.725 16.1722C265.951 16.1535 266.081 16.1962 266.235 16.2323C266.442 16.2817 266.668 16.3258 266.668 16.4314C266.668 16.4488 266.721 16.4688 266.767 16.4822C266.867 16.5102 266.974 16.5343 267.078 16.561C267.231 16.6011 267.38 16.6345 267.591 16.6131C267.775 16.5957 267.97 16.5904 268.158 16.5784C268.346 16.5663 268.518 16.5597 268.687 16.6104C268.882 16.6679 269.089 16.7227 269.311 16.7654C269.468 16.7962 269.675 16.7441 269.844 16.7855C269.947 16.8109 270.047 16.8403 270.158 16.8616C270.204 16.871 270.277 16.8643 270.338 16.8616C270.465 16.8563 270.595 16.8523 270.718 16.8389C270.859 16.8242 270.967 16.8269 271.074 16.8577C271.173 16.8857 271.273 16.9245 271.388 16.9325C271.56 16.9445 271.752 16.8911 271.924 16.9525C272.013 16.9832 272.124 17.0126 272.239 17.022C272.354 17.0314 272.488 17.0113 272.61 17.0126C272.664 17.0126 272.729 17.034 272.76 17.0514C272.779 17.0607 272.752 17.0861 272.725 17.0995C272.691 17.1155 272.641 17.1369 272.591 17.1396C272.212 17.1636 271.832 17.1837 271.453 17.2064C271.227 17.2198 271.227 17.2198 270.771 17.1356C270.664 17.1155 270.545 17.1195 270.411 17.1289C270.231 17.1409 270.047 17.1636 269.859 17.1396C269.614 17.0487 269.311 17.0407 268.99 17.0754C268.855 17.0901 268.733 17.0901 268.633 17.0648C268.422 17.014 268.2 16.9672 268.013 16.9071C267.867 16.8603 267.798 16.8563 267.737 16.9204C267.718 16.9405 267.698 16.9619 267.702 16.9806C267.725 17.0474 267.767 17.1129 267.79 17.1797C267.798 17.1984 267.767 17.2198 267.748 17.2398C267.687 17.2959 267.606 17.2919 267.472 17.2451C267.338 17.1984 267.177 17.1676 266.963 17.189C266.779 17.2077 266.58 17.2051 266.396 17.2251C266.112 17.2545 265.913 17.2117 265.71 17.1543C265.668 17.1423 265.595 17.1356 265.541 17.1383C264.97 17.169 264.403 17.2037 263.833 17.2345C263.71 17.2411 263.599 17.2211 263.503 17.185C263.403 17.1489 263.292 17.1302 263.17 17.1369C262.664 17.165 262.158 17.1904 261.652 17.2251C261.446 17.2398 261.281 17.2224 261.139 17.1757C261.032 17.1409 260.932 17.1302 260.798 17.1342C260.652 17.1382 260.549 17.1516 260.476 17.1904C260.407 17.2278 260.457 17.2505 260.61 17.2799C260.775 17.3119 260.928 17.3534 261.085 17.3908C261.212 17.3855 261.338 17.3747 261.461 17.3761C261.514 17.3761 261.564 17.4001 261.618 17.4135C261.771 17.4523 261.913 17.491 262.131 17.4696C262.315 17.4509 262.511 17.4469 262.698 17.4349C262.959 17.4202 262.959 17.4202 263.38 17.5044C263.488 17.5257 263.603 17.5244 263.741 17.5124C263.859 17.503 263.982 17.5217 264.066 17.5618C264.101 17.5779 264.089 17.6046 264.016 17.6928C264.016 17.7583 264.097 17.7289 264.124 17.6861C264.166 17.6246 264.085 17.6046 263.932 17.638C263.825 17.662 263.771 17.6968 263.798 17.7248C263.813 17.7395 263.886 17.7583 264.016 17.6928C264.354 17.6126 264.61 17.6032 264.855 17.5819C265.001 17.5698 265.093 17.5752 265.208 17.6099C265.346 17.6513 265.484 17.6954 265.71 17.6741C265.955 17.65 266.216 17.6473 266.465 17.6273C266.695 17.6086 266.813 17.6674 266.959 17.7021C267.135 17.7435 267.331 17.6968 267.491 17.7208C267.66 17.7449 267.779 17.8037 267.974 17.8144C268.258 17.7783 268.438 17.8451 268.652 17.8892C268.821 17.9226 269.02 17.8932 269.2 17.8785C269.403 17.8625 269.572 17.8772 269.714 17.9253C269.875 17.9801 270.055 17.968 270.239 17.956C270.668 17.9293 270.683 17.9253 270.932 17.9988C271.112 18.0522 271.285 18.0282 271.465 18.0215C271.622 18.0576 271.775 18.0963 271.94 18.1284C271.982 18.1364 272.062 18.123 272.127 18.119C272.315 18.1083 272.507 18.0976 272.694 18.087C272.821 18.0803 272.955 18.0602 273.07 18.0682C273.185 18.0776 273.281 18.1164 273.384 18.1417C273.488 18.1671 273.595 18.1925 273.695 18.2192C273.848 18.2593 273.993 18.2927 274.208 18.2727C274.392 18.2553 274.583 18.25 274.775 18.2379C275.016 18.2232 275.009 18.2273 275.457 18.3074C275.698 18.3515 275.947 18.2981 276.193 18.2927C276.315 18.2901 276.434 18.3048 276.518 18.3435C276.553 18.3595 276.541 18.3863 276.553 18.409C275.921 18.4451 275.284 18.4758 274.66 18.5199C274.419 18.5373 274.292 18.4891 274.162 18.4491C273.947 18.3849 273.664 18.4785 273.461 18.3956C273.338 18.3462 273.162 18.3181 272.951 18.3422C272.829 18.3555 272.698 18.3542 272.572 18.3662C272.25 18.3956 271.955 18.397 271.698 18.3048C271.61 18.2727 271.484 18.2553 271.392 18.2246C271.285 18.1912 271.181 18.1725 271.055 18.1791C270.484 18.2112 269.917 18.2433 269.35 18.278C269.3 18.2807 269.25 18.3007 269.208 18.3154C269.101 18.3529 269.135 18.3823 269.308 18.4063C269.365 18.4143 269.411 18.4317 269.465 18.445C269.568 18.4704 269.664 18.5105 269.779 18.5199C269.894 18.5292 270.028 18.5105 270.154 18.5039C270.281 18.4972 270.415 18.4771 270.53 18.4851C270.645 18.4945 270.74 18.5333 270.848 18.5573C270.898 18.5693 270.959 18.5894 271.009 18.588C271.262 18.58 271.511 18.5653 271.763 18.5533C271.921 18.5894 272.055 18.6415 272.242 18.6535C272.361 18.6615 272.488 18.6468 272.61 18.6495C272.664 18.6508 272.733 18.6709 272.76 18.6882C272.775 18.6989 272.725 18.7257 272.687 18.739C272.541 18.7898 272.342 18.7804 272.162 18.7965C271.967 18.8138 271.79 18.8085 271.641 18.7564C271.541 18.7217 271.43 18.7029 271.307 18.7096C270.989 18.727 270.675 18.747 270.357 18.7617C270.304 18.7644 270.239 18.7524 270.189 18.743C269.786 18.6615 269.786 18.6589 269.503 18.6762C269.085 18.7016 269.085 18.7016 268.806 18.6308C268.752 18.6174 268.695 18.592 268.649 18.5934C268.204 18.6148 267.763 18.6361 267.323 18.6669C267.177 18.6762 267.078 18.6762 266.97 18.6415C266.878 18.6121 266.771 18.5787 266.656 18.5707C266.537 18.5626 266.407 18.5827 266.281 18.5894C266.154 18.5961 266.02 18.6134 265.909 18.6027C265.794 18.592 265.695 18.5546 265.595 18.5279C265.491 18.4998 265.38 18.5012 265.239 18.5119C264.802 18.5426 264.798 18.5386 264.365 18.4557C264.315 18.4464 264.25 18.4357 264.197 18.4384C263.879 18.4544 263.564 18.4745 263.246 18.4905C263.124 18.4972 263.005 18.4798 262.921 18.4411C262.886 18.425 262.898 18.3983 262.875 18.3462C262.848 18.3341 262.878 18.3555 262.886 18.3756C262.944 18.3729 263.013 18.3756 263.055 18.3649C263.162 18.3395 263.216 18.3061 263.189 18.278C263.173 18.2633 263.101 18.2446 263.055 18.2446C262.97 18.2446 262.898 18.274 262.875 18.3462C262.633 18.3903 262.377 18.3996 262.128 18.421C261.982 18.4344 261.89 18.4277 261.775 18.393C261.637 18.3502 261.495 18.3088 261.269 18.3301C261.024 18.3542 260.764 18.3582 260.511 18.3769C260.22 18.3983 260.093 18.278 259.848 18.2807C259.595 18.2834 259.342 18.3061 259.089 18.3221C258.867 18.3355 258.867 18.3355 258.407 18.2486C258.239 18.2166 258.039 18.2633 257.875 18.2299C257.764 18.2085 257.668 18.1765 257.561 18.1538C257.515 18.1444 257.442 18.1444 257.384 18.1471C257.066 18.1631 256.744 18.1738 256.438 18.2032C256.089 18.2379 255.825 18.2005 255.576 18.1217C255.262 18.1364 254.944 18.1444 254.633 18.1698C254.407 18.1885 254.277 18.1444 254.124 18.1083C254.07 18.0963 254.024 18.0763 253.967 18.0709C253.909 18.0656 253.84 18.0763 253.779 18.0803C253.526 18.095 253.266 18.1017 253.02 18.1257C252.718 18.1564 252.603 18.0469 252.369 18.0335C252.212 18.099 252.128 18.1885 251.817 18.1952C251.564 18.2005 251.312 18.2219 251.059 18.2366C250.932 18.2433 250.806 18.2513 250.679 18.258C250.476 18.27 250.381 18.3221 250.423 18.4023C250.446 18.4464 250.465 18.4905 250.484 18.5346C250.522 18.6134 250.426 18.6802 250.266 18.6896C249.821 18.715 249.381 18.7417 248.936 18.7644C248.817 18.7711 248.702 18.7484 248.607 18.7123C248.507 18.6762 248.396 18.6602 248.273 18.6669C247.829 18.6923 247.388 18.719 246.944 18.7417C246.894 18.7444 246.829 18.731 246.779 18.7203C246.672 18.6963 246.568 18.6682 246.465 18.6428C246.212 18.6548 245.963 18.6628 245.714 18.6789C245.312 18.7029 245.312 18.7043 245.017 18.6308C244.963 18.6174 244.909 18.592 244.86 18.5934C244.668 18.5987 244.48 18.6121 244.289 18.6241C243.725 18.6589 243.725 18.6588 243.561 18.6188C243.411 18.5813 243.277 18.5359 243.051 18.5573C242.806 18.5814 242.545 18.5894 242.292 18.6027C242.105 18.6121 241.917 18.6228 241.729 18.6255C241.679 18.6268 241.626 18.6014 241.572 18.588C241.419 18.5466 241.27 18.5132 241.059 18.5359C240.936 18.5493 240.806 18.552 240.679 18.5586C240.35 18.5773 240.35 18.5773 239.81 18.4972C239.756 18.4891 239.691 18.4798 239.637 18.4838C239.193 18.5079 238.752 18.5346 238.308 18.5573C238.254 18.56 238.189 18.5519 238.135 18.5453C237.53 18.4678 237.53 18.4678 236.886 18.5052C236.641 18.5185 236.634 18.5239 236.377 18.4531C236.262 18.4223 236.166 18.4076 236.032 18.417C235.526 18.4491 235.017 18.4704 234.515 18.5079C234.289 18.5239 234.158 18.4838 234.005 18.4477C233.952 18.4357 233.894 18.409 233.848 18.4103C233.342 18.4357 232.837 18.4664 232.331 18.4918C232.285 18.4945 232.227 18.4678 232.174 18.4557C232.07 18.4317 231.971 18.3956 231.856 18.3876C231.737 18.3796 231.607 18.3996 231.477 18.4063C231.158 18.4237 231.158 18.4223 230.791 18.3435C230.741 18.3328 230.676 18.3181 230.626 18.3208C230.12 18.3475 229.611 18.3702 229.109 18.409C228.821 18.4304 228.626 18.3916 228.423 18.3355C228.381 18.3235 228.308 18.3181 228.254 18.3208C227.683 18.3515 227.116 18.3863 226.546 18.417C226.427 18.4237 226.312 18.401 226.216 18.3662C226.063 18.3114 225.883 18.3181 225.691 18.3301C225.251 18.3582 225.247 18.3569 224.986 18.2927C224.933 18.2794 224.887 18.262 224.829 18.2553C224.775 18.2486 224.707 18.2526 224.649 18.2553C224.396 18.2687 224.143 18.2834 223.89 18.2981C223.638 18.3128 223.381 18.3208 223.132 18.3435C222.825 18.3716 222.68 18.2847 222.465 18.2446C222.151 18.262 221.829 18.2727 221.519 18.3007C221.281 18.3221 221.17 18.2633 221.013 18.2326C220.959 18.2219 220.902 18.1992 220.852 18.2019C220.281 18.2313 219.71 18.2633 219.143 18.2994C219.005 18.3074 218.913 18.2967 218.799 18.2647C218.542 18.1925 218.53 18.1952 218.101 18.2219C217.913 18.2339 217.733 18.2446 217.572 18.1898C217.431 18.1404 217.258 18.1284 217.055 18.1444C216.806 18.1644 216.549 18.1751 216.297 18.1885C216.044 18.2032 215.791 18.2232 215.538 18.2299C215.335 18.2366 215.212 18.1738 215.051 18.1417C215.002 18.1324 214.933 18.131 214.875 18.1337C214.622 18.1457 214.362 18.1551 214.117 18.1778C213.818 18.2059 213.653 18.1324 213.442 18.0896C213.396 18.0803 213.32 18.0856 213.262 18.0896C212.818 18.1137 212.377 18.1404 211.933 18.1658C211.776 18.1297 211.615 18.095 211.458 18.0589C211.205 18.0723 210.952 18.087 210.699 18.1003C210.507 18.111 210.312 18.115 210.132 18.1351C209.898 18.1618 209.783 18.099 209.626 18.0682C209.572 18.0576 209.515 18.0348 209.465 18.0375C209.147 18.0522 208.829 18.0683 208.515 18.091C208.216 18.1137 208.097 17.9934 207.852 17.9947C207.599 17.9961 207.339 18.0135 207.094 18.0375C206.81 18.0656 206.611 18.0228 206.408 17.9654C206.366 17.9533 206.293 17.9466 206.239 17.9493C205.921 17.9654 205.607 17.9854 205.289 18.0014C205.235 18.0041 205.17 17.9974 205.117 17.9894C204.511 17.9106 204.511 17.9092 204.247 17.9253C204.059 17.936 203.868 17.9493 203.676 17.956C203.622 17.9587 203.557 17.9467 203.507 17.936C203.109 17.8545 203.109 17.8531 202.822 17.8692C202.569 17.8839 202.316 17.8985 202.063 17.9132C201.906 17.8772 201.745 17.8424 201.588 17.8064C201.274 17.8237 200.952 17.8371 200.642 17.8611C200.496 17.8718 200.4 17.8678 200.289 17.8344C200.151 17.7943 200.013 17.7476 199.783 17.7703C199.538 17.7943 199.278 17.797 199.029 17.817C198.73 17.8411 198.607 17.7195 198.366 17.7208C198.113 17.7222 197.852 17.7395 197.607 17.7636C197.324 17.7916 197.124 17.7489 196.921 17.6914C196.879 17.6794 196.806 17.6727 196.753 17.6754C196.055 17.7142 195.362 17.7529 194.665 17.7943C194.236 17.8197 194.236 17.821 193.419 17.7476C193.362 17.7422 193.301 17.7369 193.243 17.7395C192.99 17.7516 192.73 17.7609 192.485 17.7836C192.186 17.8117 192.021 17.7395 191.81 17.6954C191.764 17.6861 191.691 17.6914 191.63 17.6941C191.439 17.7035 191.251 17.7155 191.059 17.7262C190.806 17.7409 190.554 17.7556 190.301 17.7703C190.144 17.7355 189.983 17.6994 189.826 17.6647C189.511 17.6821 189.19 17.6914 188.879 17.7195C188.642 17.7409 188.531 17.6848 188.373 17.6527C188.32 17.642 188.262 17.6193 188.213 17.6206C187.642 17.65 187.071 17.6807 186.504 17.7182C186.27 17.7342 186.163 17.6741 186.006 17.6433C185.952 17.634 185.891 17.6166 185.841 17.6193C185.462 17.638 185.082 17.6607 184.703 17.6834C184.489 17.6968 184.489 17.6968 184.021 17.6139C183.967 17.6046 183.906 17.5952 183.853 17.5979C182.649 17.6647 181.45 17.7355 180.247 17.8023C180.125 17.809 180.013 17.789 179.918 17.7529C179.818 17.7168 179.707 17.6981 179.584 17.7048C179.079 17.7329 178.569 17.7583 178.067 17.793C177.86 17.8077 177.695 17.7903 177.554 17.7435C177.446 17.7088 177.347 17.6954 177.213 17.7035C176.96 17.7195 176.707 17.7329 176.454 17.7476C176.201 17.7623 175.948 17.777 175.696 17.7917C175.443 17.8064 175.186 17.8144 174.937 17.8371C174.63 17.8651 174.481 17.7823 174.27 17.7409C173.891 17.7609 173.512 17.781 173.136 17.8023C172.63 17.8304 172.125 17.8611 171.619 17.8879C171.573 17.8905 171.515 17.8665 171.462 17.8545C171.305 17.8211 171.19 17.7743 170.956 17.789C169.822 17.8598 168.68 17.9199 167.542 17.9894C167.305 18.0041 167.201 17.9466 167.04 17.9159C166.987 17.9066 166.925 17.8879 166.876 17.8905C166.243 17.9239 165.611 17.9613 164.979 17.9974C164.722 18.0121 164.722 18.0121 164.293 17.9293C164.244 17.9199 164.178 17.9079 164.125 17.9106C163.301 17.956 162.481 18.0041 161.657 18.0509C161.535 18.0576 161.424 18.0389 161.324 18.0028C161.228 17.9667 161.113 17.9467 160.994 17.9533C160.236 17.9961 159.473 18.0375 158.719 18.0843C158.516 18.0976 158.347 18.0856 158.201 18.0375C158.098 18.0028 157.995 17.9881 157.864 17.9961C156.726 18.0616 155.588 18.1244 154.45 18.1939C154.232 18.2072 154.079 18.1818 153.941 18.1377C153.83 18.103 153.734 18.0963 153.596 18.1017C153.45 18.1083 153.362 18.123 153.282 18.1631C153.179 18.2152 153.113 18.2807 152.868 18.2847C152.615 18.2887 152.359 18.3048 152.11 18.3275C151.872 18.3502 151.761 18.2901 151.611 18.254C151.5 18.2286 151.397 18.2246 151.255 18.2366C151.125 18.2473 151.044 18.27 150.968 18.3128C150.799 18.4036 150.784 18.4036 150.577 18.3462C150.466 18.3154 150.366 18.2914 150.244 18.2967C149.738 18.3235 149.232 18.3529 148.726 18.3836C148.435 18.401 148.431 18.4036 148.213 18.3368C148.106 18.3034 148.002 18.2874 147.876 18.2954C146.485 18.3756 145.094 18.4531 143.704 18.5373C143.489 18.5506 143.343 18.5226 143.19 18.4825C143.14 18.4691 143.09 18.4504 143.033 18.445C142.976 18.4397 142.91 18.4451 142.849 18.4477C141.838 18.5052 140.822 18.56 139.815 18.6241C139.585 18.6388 139.462 18.5961 139.305 18.5613C139.251 18.5493 139.205 18.5306 139.148 18.5252C139.09 18.5212 139.022 18.5306 138.96 18.5346C137.949 18.592 136.933 18.6468 135.926 18.711C135.684 18.7257 135.581 18.6695 135.424 18.6401C135.37 18.6295 135.313 18.6094 135.263 18.6121C134.945 18.6268 134.631 18.6468 134.313 18.6642C133.554 18.7083 132.796 18.7497 132.037 18.7952C131.746 18.8125 131.619 18.6936 131.374 18.6989C131.056 18.7056 130.742 18.7323 130.424 18.751C130.171 18.7657 129.918 18.7791 129.665 18.7952C129.416 18.8098 129.416 18.8098 128.796 18.7323C128.742 18.7257 128.677 18.7163 128.623 18.719C127.738 18.7684 126.849 18.8179 125.968 18.8713C125.765 18.8833 125.596 18.8767 125.451 18.8272C125.347 18.7925 125.24 18.7751 125.114 18.7831C123.784 18.8593 122.458 18.9354 121.129 19.0103C121.079 19.013 121.014 18.9996 120.964 18.9889C120.857 18.9648 120.754 18.9368 120.65 18.9114C120.573 18.9421 120.474 18.9702 120.424 19.0049C120.355 19.0517 120.263 19.0651 120.118 19.0731C119.972 19.0811 119.88 19.0784 119.765 19.0437C119.627 19.0009 119.485 18.9675 119.259 18.9809C117.869 19.0651 116.478 19.1412 115.087 19.2241C114.857 19.2374 114.75 19.1786 114.589 19.1479C114.535 19.1385 114.474 19.1239 114.424 19.1265C113.853 19.1573 113.286 19.1907 112.715 19.2227C111.133 19.3136 109.551 19.4005 107.972 19.4967C107.685 19.514 107.489 19.4806 107.286 19.4232C107.244 19.4111 107.171 19.4045 107.118 19.4071C104.903 19.5327 102.689 19.6597 100.478 19.7866C100.359 19.7933 100.244 19.7719 100.148 19.7372C100.049 19.7011 99.9377 19.6837 99.8151 19.6904C98.8036 19.7479 97.7921 19.8053 96.7806 19.8641C96.5278 19.8788 96.5239 19.8801 96.2634 19.816C96.2097 19.8026 96.1523 19.7773 96.1102 19.7799C96.022 19.7866 95.9377 19.82 95.8764 19.8654C95.8151 19.9135 95.7193 19.9269 95.5775 19.9363C95.4319 19.9456 95.3362 19.9416 95.2251 19.9095C95.0833 19.8695 94.953 19.8307 94.7232 19.8441C91.8151 20.0151 88.9071 20.1794 85.9991 20.3491C85.7654 20.3625 85.6581 20.3064 85.4972 20.2757C85.4435 20.2663 85.3899 20.2529 85.3324 20.2503C85.2711 20.2476 85.206 20.2556 85.1447 20.2596C80.4015 20.5309 75.6583 20.8035 70.915 21.0747C70.6315 21.0907 70.6353 21.0907 70.325 21.2137C70.2866 21.2284 70.2368 21.2484 70.1832 21.2511C68.7311 21.3366 67.2752 21.4194 65.8193 21.5023C65.1871 21.5384 64.5549 21.5758 63.9227 21.6105C63.6967 21.6226 63.6967 21.6226 63.1565 21.7669C63.1105 21.7789 63.0568 21.7949 63.0032 21.7976C60.4744 21.9433 57.9457 22.0889 55.4132 22.2319C55.2139 22.2426 55.0531 22.2666 54.9611 22.3307C54.896 22.3762 54.8117 22.4029 54.6852 22.4109C52.9152 22.5125 51.1451 22.6154 49.3712 22.7142C49.1604 22.7263 49.034 22.7637 48.9305 22.8198C48.896 22.8385 48.8654 22.8599 48.8156 22.8732C48.7696 22.8853 48.7006 22.8893 48.6432 22.8933C47.1259 22.9801 45.6087 23.0697 44.0877 23.1525C43.8616 23.1645 43.7696 23.214 43.6585 23.2661C43.6202 23.2835 43.5934 23.3075 43.5436 23.3195C43.4938 23.3302 43.421 23.3302 43.3597 23.3329C42.0953 23.4051 40.831 23.4785 39.5666 23.5507C39.3214 23.544 39.2678 23.6215 39.149 23.6683C39.1068 23.6843 39.0763 23.7057 39.0265 23.7164C38.9728 23.7271 38.9038 23.7257 38.8386 23.7284C37.8271 23.7859 36.8157 23.8473 35.8004 23.9008C35.5667 23.9128 35.5207 23.981 35.3942 24.0277C35.3521 24.0424 35.31 24.0651 35.2602 24.0692C34.628 24.1079 33.9958 24.144 33.3637 24.1787C33.1529 24.1907 33.1529 24.1894 32.7813 24.3217C32.7391 24.3364 32.6893 24.3524 32.6357 24.3564C31.6893 24.4126 30.7391 24.466 29.789 24.5208C29.6664 24.5275 29.5821 24.5595 29.5208 24.605C29.4595 24.6504 29.3714 24.6798 29.2488 24.6865C28.4902 24.7306 27.7315 24.776 26.9729 24.8161C26.7621 24.8268 26.6242 24.8602 26.5323 24.9203C26.4633 24.9657 26.379 24.9885 26.2449 24.9965C25.4863 25.0392 24.7277 25.086 23.9653 25.1234C23.7431 25.1341 23.6281 25.1795 23.5361 25.2357C23.4633 25.2811 23.379 25.2971 23.2373 25.3051C21.8465 25.3826 20.4519 25.4601 19.0649 25.5457C18.8312 25.5604 18.7124 25.5136 18.5592 25.4802C18.3408 25.4334 18.1378 25.3826 18.1378 25.2784C18.1378 25.2624 18.0726 25.2437 18.0267 25.2303C17.6857 25.1301 17.6856 25.1301 17.632 25.0232C17.6014 24.9577 17.5669 24.8909 17.5401 24.8241C17.4903 24.7145 17.3676 24.6865 17.0151 24.7065C16.8887 24.7132 16.7622 24.7226 16.6358 24.7279C16.4481 24.7372 16.3063 24.6932 16.2719 24.613C16.2527 24.5689 16.2297 24.5248 16.2106 24.4807C16.4022 24.47 16.3983 24.4687 16.7354 24.307C16.8772 24.2389 16.8773 24.2389 16.6052 24.1707C16.5018 24.1453 16.4021 24.1172 16.291 24.0932C16.2412 24.0825 16.1761 24.0758 16.1225 24.0785C15.8045 24.0945 15.4903 24.1132 15.1761 24.132C14.6704 24.1613 14.6703 24.1613 14.1569 24.025C14.1148 24.0144 14.0496 23.9943 14.0573 23.9836C14.0994 23.9342 14.2029 23.9128 14.3332 23.9075C14.5247 23.8994 14.7125 23.8861 14.9002 23.8754C15.0266 23.8687 15.1531 23.8607 15.2795 23.854C15.3983 23.8033 15.5209 23.7538 15.632 23.7017C15.8083 23.6215 15.8082 23.6188 15.5668 23.5627C15.4136 23.5253 15.2488 23.4919 15.0918 23.4572C14.904 23.4679 14.7125 23.4799 14.5247 23.4892C14.2872 23.5013 14.1914 23.4759 14.1301 23.389C14.0764 23.3129 14.1416 23.2474 14.3255 23.2313C14.5132 23.2153 14.6895 23.2046 14.7853 23.1365C14.8773 23.071 15.0382 23.0456 15.2374 23.0403C15.3638 23.0363 15.4903 23.0269 15.6167 23.0189C15.7814 23.0082 15.8696 22.9401 15.8351 22.8639C15.816 22.8145 15.7776 22.773 15.6282 22.7623C14.9654 22.7156 14.9577 22.7169 14.6282 22.626C14.5975 22.618 14.5746 22.594 14.5861 22.582C14.6052 22.5619 14.6474 22.5325 14.6934 22.5285C15.134 22.4991 15.5746 22.4724 16.0152 22.4523C16.1608 22.4457 16.2681 22.4363 16.3179 22.3869C16.3868 22.3187 16.3562 22.2559 16.2221 22.2091C16.1799 22.1945 16.1109 22.1757 16.0649 22.1771C15.5592 22.2011 15.0573 22.2319 14.5516 22.2559C14.5056 22.2586 14.4213 22.2359 14.4022 22.2185C14.3639 22.1864 14.4213 22.1437 14.5554 22.129C14.7316 22.1089 14.9117 22.1076 15.0305 22.0408C15.1952 21.9459 15.3983 21.8591 15.5822 21.7682C15.6128 21.7522 15.6627 21.7214 15.6512 21.7188C15.5554 21.6894 15.4443 21.6666 15.3447 21.6386C15.1761 21.5918 15.1761 21.5264 15.2144 21.4636C15.245 21.4128 15.36 21.3927 15.5017 21.3927C15.563 21.3927 15.6397 21.3927 15.6895 21.3807C15.8197 21.3513 15.8619 21.3139 15.7968 21.2858C15.7584 21.2698 15.6895 21.2471 15.6435 21.2498C14.8236 21.2939 13.9998 21.3366 13.1837 21.3914C12.9424 21.4074 12.8313 21.3566 12.6857 21.3206C12.5746 21.2925 12.4711 21.2818 12.3332 21.3019C12.2029 21.3206 12.0765 21.3099 11.9961 21.2658C11.9309 21.2297 12.0459 21.199 12.3562 21.1642C12.4137 21.1576 12.4788 21.1535 12.5209 21.1402C12.9654 20.9959 12.9653 20.9945 13.2719 20.9758C13.5707 20.9585 13.5708 20.9571 13.7279 20.8796C13.8007 20.8436 13.881 20.8075 13.95 20.7701C13.9768 20.7554 14.0229 20.7286 14.0075 20.7206C13.9233 20.6792 13.8083 20.6698 13.6742 20.6792C13.3753 20.7019 13.0229 20.6832 12.8658 20.8101C12.8045 20.8582 12.7087 20.8716 12.5708 20.8796C11.1838 20.9571 9.79681 21.04 8.40602 21.1148C8.17997 21.1268 8.07658 21.1763 7.98846 21.2311C7.91183 21.2765 7.82752 21.2898 7.68193 21.2979C7.53634 21.3059 7.42134 21.3099 7.33705 21.2658C7.28724 21.2391 7.3294 21.2017 7.44434 21.1642C7.60909 21.1108 7.57842 21.044 7.52479 20.9812C7.48647 20.9398 7.3677 20.9104 7.24127 20.913C7.05353 20.9184 6.8735 20.9331 6.71642 20.8796C6.62446 20.8489 6.5095 20.8275 6.40605 20.8008C6.20682 20.746 6.00758 20.6899 5.72789 20.726C5.53632 20.7126 5.40222 20.6645 5.24897 20.6271C4.99227 20.5656 4.96928 20.5563 5.15318 20.4908C5.36008 20.4173 5.19913 20.3211 5.31407 20.2489C5.43668 20.1714 5.60531 20.1033 5.75474 20.0311C5.79305 20.0124 5.82755 19.9951 5.86586 19.9764C5.77774 19.9496 5.6973 19.9162 5.59385 19.8975C5.45975 19.8735 5.39078 19.8441 5.39845 19.7612C5.37163 19.7492 5.38304 19.7799 5.41369 19.7879C5.44817 19.796 5.53253 19.7893 5.57467 19.7799C5.68195 19.7545 5.73554 19.7211 5.70872 19.6931C5.69339 19.6784 5.62065 19.6597 5.57467 19.6597C5.49038 19.6597 5.4176 19.6891 5.39461 19.7612C4.9655 19.816 4.52098 19.8427 4.07654 19.8641C4.03057 19.8668 3.97313 19.8401 3.91949 19.8267C3.74325 19.7813 3.74323 19.7826 3.22599 19.7692C3.17235 19.7679 3.09959 19.7492 3.07277 19.7305C2.96166 19.649 2.96552 19.5595 2.91188 19.4726C3.0115 19.4165 3.11104 19.3617 3.21448 19.3069C3.42138 19.196 3.68964 19.0985 3.85055 18.9769C3.81607 18.9114 3.77009 18.8459 3.93867 18.7925C4.41759 18.7257 4.41379 18.7257 4.54406 18.6615C4.9157 18.4798 5.28349 18.2967 5.67046 18.1177C5.77391 18.0709 5.77392 18.0455 5.59001 18.0255C5.53254 18.0201 5.47116 18.0188 5.40986 18.0215C5.21829 18.0308 5.02672 18.0549 4.83899 18.0495C4.65125 18.0455 4.51332 17.9867 4.36006 17.9507C4.20298 17.9132 4.0459 17.8745 3.88881 17.8357C3.70874 17.8398 3.5287 17.8772 3.34862 17.817C3.21069 17.7703 3.03829 17.7369 2.8812 17.6981C2.99998 17.5966 3.22223 17.5191 3.39464 17.4295C3.55173 17.348 3.55547 17.3494 3.97693 17.2866C4.17616 17.2572 4.24513 17.1062 4.07654 17.0621C3.87348 17.0086 3.65897 16.9592 3.45208 16.9084C3.272 16.9124 3.08813 16.9485 2.91572 16.8884C2.78162 16.8429 2.62834 16.8122 2.40612 16.8296C2.03064 16.859 1.64751 16.8737 1.26821 16.8977C1.13794 16.9057 0.99614 16.9004 0.938669 16.855C0.900355 16.8229 1.01147 16.7788 1.13791 16.7695C1.32948 16.7561 1.50187 16.7401 1.59765 16.6733C1.68961 16.6064 1.85817 16.5864 2.0574 16.577C2.11104 16.5744 2.17239 16.5583 2.19921 16.5423C2.33714 16.4648 2.4904 16.398 2.78542 16.4007C2.90802 16.3739 2.97312 16.3405 2.9348 16.3085C2.91181 16.2911 2.8314 16.2684 2.78542 16.2711C2.46741 16.2844 2.14942 16.2978 1.83908 16.3218C1.69349 16.3325 1.58232 16.3352 1.49036 16.2951C1.42523 16.2684 1.45971 16.2323 1.58231 16.1935C1.68959 16.1601 1.72028 16.1214 1.71261 16.076C1.69346 15.9704 1.57849 15.9397 1.21068 15.9463C0.946317 15.9517 0.88118 15.9343 0.823709 15.8435C0.808383 15.8221 0.770137 15.7927 0.796957 15.778C0.961706 15.6871 1.06899 15.5749 1.37933 15.5321C1.50194 15.5161 1.63215 15.5161 1.70878 15.4814C1.78541 15.4466 1.85441 15.4065 1.93486 15.3731C2.03448 15.333 2.10338 15.2956 2.0574 15.2702C1.98077 15.2248 1.85821 15.2208 1.71645 15.2368C1.59385 15.2502 1.46358 15.2515 1.33715 15.2595C1.1111 15.2742 0.927231 15.2395 0.900411 15.1807C0.827615 15.0257 0.750965 14.872 0.685832 14.717C0.678169 14.6983 0.697273 14.6743 0.727924 14.6582C0.835203 14.6021 0.950189 14.5487 1.0613 14.4939C1.19157 14.4311 1.39849 14.4431 1.57474 14.4311C1.82378 14.4137 1.82369 14.415 2.15702 14.2868C2.28729 14.236 2.51335 14.256 2.64745 14.2106C2.68959 14.1959 2.75473 14.1719 2.74323 14.1585C2.72791 14.1411 2.65132 14.1278 2.59385 14.1197C2.54021 14.1117 2.47509 14.1077 2.41762 14.1117C1.72031 14.1505 1.02685 14.1919 0.32954 14.2293C0.210767 14.236 0.0804963 14.2066 0.0383512 14.1652C-0.00379396 14.1264 0.00766276 14.0797 0 14.0356C0.11111 13.9808 0.237497 13.93 0.333281 13.8712C0.406077 13.8258 0.490383 13.8057 0.635975 13.8031C0.827544 13.7991 1.0153 13.783 1.22986 13.771C1.62832 13.5759 2.01909 13.3715 2.44821 13.1764C2.62062 13.0976 2.57854 13.0174 2.61303 12.9332C2.64751 12.8557 2.9042 12.8677 3.07661 12.845C3.21454 12.8263 3.26045 12.7835 3.20681 12.7541C3.17616 12.7368 3.10724 12.7167 3.0536 12.7167C2.92716 12.7167 2.80073 12.7288 2.67429 12.7354C2.54786 12.7421 2.40227 12.7381 2.29883 12.7608C2.19921 12.7822 2.13404 12.8276 2.06891 12.8664C1.99611 12.9091 1.90039 12.9239 1.7548 12.9265C1.56706 12.9292 1.37934 12.9412 1.1916 12.9506C0.984705 12.8985 0.770103 12.8477 0.570872 12.7929C0.532558 12.7822 0.524854 12.7515 0.528685 12.7314C0.536348 12.6793 0.478892 12.6473 0.352457 12.6219C0.245178 12.6005 0.157049 12.5698 0.0574333 12.543C0.134061 12.507 0.218381 12.4722 0.279683 12.4335C0.413781 12.3519 0.582381 12.2932 0.873565 12.2958C0.988507 12.2437 1.08043 12.1796 1.22986 12.1435C1.37162 12.1088 1.61301 12.1435 1.72028 12.0647C1.77392 12.0259 1.85443 11.9818 1.95788 11.9658C2.12262 11.9404 2.33718 11.9538 2.43296 11.8789C2.49043 11.8362 2.57469 11.7974 2.6858 11.7867C2.81224 11.7747 2.94247 11.772 3.03442 11.7467C3.08423 11.7333 3.13788 11.7119 3.13788 11.6932C3.13788 11.6812 3.06131 11.6625 3.00767 11.6545C2.95786 11.6451 2.89265 11.6384 2.83518 11.6411C2.64361 11.6491 2.45588 11.6638 2.26431 11.6718C2.21067 11.6745 2.14939 11.6651 2.09192 11.6571C1.92334 11.6357 1.93481 11.609 2.06891 11.5609C2.203 11.5142 2.29884 11.454 2.40995 11.3992C2.53256 11.3899 2.68579 11.3939 2.77008 11.3685C2.91184 11.3271 3.01143 11.2669 3.12637 11.2148C3.25281 11.2068 3.38307 11.2042 3.50184 11.1895C3.55165 11.1841 3.57465 11.1547 3.6168 11.1373C3.69343 11.1039 3.75861 11.0558 3.86206 11.0398C4.03064 11.0157 4.23753 11.0251 4.33715 10.9516C4.39462 10.9088 4.4827 10.8634 4.58998 10.8608C4.88883 10.8554 5.01527 10.7819 5.16853 10.7124C5.28347 10.6603 5.52868 10.687 5.65512 10.6349C5.73941 10.6015 5.80075 10.5601 5.88504 10.528C5.91952 10.5147 5.99229 10.508 6.04976 10.504C6.36393 10.4839 6.68193 10.4692 6.9961 10.4479C7.04591 10.4438 7.09192 10.4238 7.13024 10.4078C7.21069 10.373 7.26045 10.3249 7.36006 10.3022C7.45968 10.2795 7.60142 10.2795 7.72402 10.2728C8.11866 10.2528 8.14934 10.2581 8.32941 10.1445C8.475 10.0523 8.83137 10.1178 8.95014 10.0163C9.0191 9.95747 9.14548 9.90937 9.37154 9.90269C9.68954 9.89333 10.0037 9.86794 10.3217 9.85057C10.6052 9.83454 10.6014 9.83453 10.9079 9.71027C11.0459 9.65415 11.249 9.66217 11.429 9.65148C11.6206 9.64079 11.7968 9.62476 11.8888 9.55795C11.9807 9.49248 12.1493 9.47109 12.3447 9.46173C12.5248 9.45238 12.7279 9.45907 12.8696 9.40562C13.2145 9.27735 13.2106 9.276 13.452 9.26264C13.8313 9.24126 14.2106 9.21988 14.5899 9.19717C14.8428 9.18247 15.1071 9.1798 15.3447 9.1504C15.5171 9.12902 15.5937 9.0542 15.7048 9.00209C16.019 8.98204 16.3331 8.96199 16.6473 8.94328C17.0879 8.91656 17.5324 8.89252 17.9768 8.86713C18.1684 8.81635 18.1952 8.70411 18.5171 8.69876C18.7086 8.69609 18.8964 8.67872 19.088 8.66803C19.406 8.64933 19.7201 8.62527 20.0381 8.61592C20.2795 8.60924 20.3216 8.53708 20.448 8.49165C20.4902 8.47561 20.5285 8.4529 20.5783 8.44889C21.0764 8.41148 21.5898 8.40346 22.0764 8.34868C22.1262 8.34333 22.1721 8.31527 22.1836 8.29523C22.1913 8.28454 22.1262 8.2645 22.084 8.25515C22.0342 8.24446 21.9691 8.23377 21.9155 8.23644C20.3331 8.32597 18.7508 8.41683 17.1684 8.50636C16.9462 8.51972 16.9462 8.51838 16.406 8.66536C16.36 8.67738 16.3063 8.69074 16.2488 8.69475C15.996 8.71079 15.7393 8.72015 15.4902 8.74019C15.2872 8.75623 15.1186 8.74018 14.9731 8.69208C14.8696 8.65734 14.7623 8.64665 14.632 8.64933C14.4864 8.65333 14.3907 8.66804 14.3064 8.70411C14.1953 8.75355 14.1378 8.81769 13.9041 8.83105C12.8275 8.8885 11.7508 8.95264 10.678 9.01411C10.5286 8.9954 10.4558 8.96734 10.4941 8.93394C10.5171 8.91389 10.5631 8.88717 10.6091 8.8845C11.0497 8.85644 11.4941 8.83239 11.9347 8.80567C11.996 8.80166 12.0803 8.80432 12.1148 8.79095C12.2833 8.73083 12.3447 8.63328 12.6627 8.6266C12.8466 8.62259 13.0343 8.60256 13.2106 8.58385C13.2604 8.57851 13.3064 8.55044 13.3179 8.5304C13.3217 8.51971 13.2604 8.49966 13.2144 8.49031C13.0458 8.45156 12.8505 8.49834 12.6819 8.47162C12.6244 8.46226 12.5439 8.4489 12.5324 8.43286C12.5248 8.41816 12.5899 8.39411 12.6359 8.37941C12.678 8.36605 12.7355 8.35402 12.7929 8.35002C13.2987 8.31928 13.8045 8.28721 14.3102 8.26316C14.5171 8.25381 14.6627 8.2204 14.7546 8.15893C14.8236 8.1135 14.9079 8.08946 15.0382 8.08278C15.9232 8.03334 16.8082 7.97855 17.6971 7.93312C17.9193 7.92243 18.0343 7.87834 18.1263 7.82088C18.1991 7.77545 18.2834 7.75942 18.4251 7.7514C19.6933 7.68192 20.9538 7.60442 22.222 7.53761C22.4557 7.52558 22.5247 7.46812 22.6435 7.41868C22.6856 7.40131 22.7124 7.37994 22.766 7.36925C22.8197 7.35856 22.8886 7.35988 22.9538 7.35721C23.9652 7.29975 24.9768 7.2383 25.9921 7.18485C26.2296 7.17282 26.2756 7.106 26.3982 7.05924C26.4403 7.04454 26.4786 7.02049 26.5285 7.01648C27.2871 6.97105 28.0457 6.9283 28.8043 6.8842C29.31 6.8548 29.8157 6.82541 30.3215 6.79735C30.5705 6.78398 30.5705 6.78264 30.9077 6.6557C30.946 6.641 30.9997 6.62363 31.0495 6.61962C32.5054 6.5341 33.9575 6.45261 35.4134 6.36843C35.536 6.36175 35.6241 6.331 35.6854 6.28557C35.7467 6.24014 35.8349 6.2094 35.9537 6.20272C37.0916 6.13591 38.2295 6.07044 39.3712 6.00764C39.5781 5.99695 39.7237 5.96488 39.8157 5.90475C39.8846 5.85932 39.9689 5.83528 40.0992 5.8286C41.2371 5.76446 42.3751 5.6963 43.5168 5.63484C43.7352 5.62281 43.8424 5.57738 43.9497 5.52394C43.988 5.50523 44.0187 5.47449 44.0647 5.47182C44.6317 5.43441 45.1949 5.39566 45.7658 5.37027C46.0033 5.35958 46.0838 5.30346 46.1796 5.25001C46.2562 5.20725 46.3444 5.19255 46.49 5.18721C46.808 5.17518 47.1221 5.15248 47.4325 5.12976C47.4785 5.12575 47.5359 5.09635 47.5398 5.07765C47.5474 5.04291 47.4593 5.01885 47.3137 5.00682C45.7965 5.09368 44.2754 5.18052 42.7582 5.26738C42.5092 5.28208 42.5092 5.28208 42.172 5.40902C42.1337 5.42372 42.08 5.4411 42.0264 5.4451C40.5704 5.52929 39.1184 5.61213 37.6625 5.69631C37.5399 5.70299 37.4518 5.73373 37.3904 5.77916C37.3291 5.82459 37.241 5.85532 37.1222 5.862C35.7314 5.94217 34.3406 6.02368 32.946 6.09985C32.7391 6.11054 32.5936 6.14126 32.5016 6.20272C32.4326 6.24815 32.3484 6.27221 32.2181 6.2789C30.8886 6.35372 29.5629 6.43255 28.2296 6.50471C28.0955 6.51139 27.9959 6.47264 28.0036 6.43656C28.0074 6.41785 28.0648 6.38713 28.1108 6.38446C28.8043 6.34037 29.494 6.29493 30.1913 6.26152C30.425 6.25083 30.4939 6.19204 30.6127 6.1426C30.651 6.12523 30.6817 6.10251 30.7315 6.09316C30.7851 6.08247 30.8541 6.08381 30.9192 6.08114C32.5629 5.98627 34.2066 5.89007 35.8541 5.80054C36.0916 5.78718 36.1375 5.7217 36.2601 5.67493C36.3023 5.65889 36.3406 5.63485 36.3904 5.63218C36.8962 5.60011 37.4019 5.57204 37.9076 5.54398C38.7927 5.49321 39.6777 5.44243 40.5666 5.39165C40.8233 5.37695 40.8233 5.37695 41.1528 5.25134C41.1911 5.23665 41.2448 5.21795 41.2946 5.21528C43.6356 5.08032 45.9766 4.94536 48.3175 4.81174C48.4402 4.80506 48.5283 4.77433 48.5896 4.7289C48.6509 4.6848 48.739 4.65274 48.8577 4.64472C52.0225 4.46299 55.1833 4.28126 58.3481 4.10221C58.555 4.09018 58.7005 4.06212 58.7925 3.99932C58.8576 3.95389 58.9457 3.92984 59.076 3.92183C62.5549 3.72273 66.0338 3.52364 69.5165 3.32321C71.8575 3.18959 74.1985 3.05329 76.5394 2.92235C76.754 2.91032 76.8689 2.86889 76.9762 2.8141C77.0107 2.7954 77.0452 2.76466 77.0911 2.76199C77.593 2.72859 78.0949 2.69786 78.5968 2.66713C78.7539 2.7032 78.911 2.73795 79.0681 2.77403C79.1869 2.72325 79.3019 2.67114 79.4206 2.62036C80.1793 2.58161 80.9264 2.52148 81.6926 2.50277C81.7424 2.50144 81.796 2.52683 81.8497 2.54019C82.206 2.62437 82.4091 2.61769 82.6351 2.50545C82.7156 2.46536 82.7845 2.42929 82.9071 2.42261C83.2865 2.39855 83.6697 2.38252 84.0452 2.35446C84.2482 2.33976 84.4167 2.35312 84.5623 2.40122C84.6658 2.43596 84.7731 2.45067 84.8995 2.44265C85.5968 2.40257 86.2903 2.36381 86.9876 2.32105C87.0374 2.31838 87.0834 2.29566 87.1217 2.27962C87.2021 2.24488 87.2711 2.20748 87.3477 2.1714C87.4512 2.19411 87.5661 2.21149 87.6504 2.24088C87.7577 2.27562 87.8573 2.27562 88.0029 2.26626C90.7845 2.10458 93.5699 1.94691 96.3515 1.78389C96.589 1.77053 96.6925 1.82666 96.8534 1.85605C96.9071 1.86674 96.9607 1.8801 97.0181 1.88277C97.0794 1.88544 97.1446 1.87743 97.2059 1.87343C99.294 1.75317 101.382 1.63424 103.47 1.51398C103.746 1.49794 103.746 1.49794 104.156 1.58079C104.206 1.59148 104.271 1.60351 104.325 1.5995C105.275 1.54739 106.225 1.49127 107.171 1.43782C107.294 1.43114 107.397 1.45252 107.508 1.48325C107.727 1.54338 107.742 1.54338 107.903 1.45519C107.98 1.41377 108.06 1.38837 108.187 1.37634C108.325 1.36298 108.436 1.36701 108.543 1.39106C108.696 1.42446 108.807 1.48057 109.041 1.46588C110.053 1.40307 111.068 1.35097 112.075 1.28683C112.305 1.27213 112.428 1.31756 112.581 1.35096C112.635 1.36299 112.685 1.3817 112.742 1.38571C112.8 1.38972 112.869 1.38035 112.93 1.37634C114.194 1.30419 115.462 1.23338 116.723 1.15588C116.96 1.14119 117.064 1.19863 117.225 1.22803C117.278 1.23872 117.34 1.25743 117.39 1.25476C118.148 1.21334 118.911 1.16923 119.669 1.12514C119.941 1.1091 119.941 1.11044 120.355 1.19195C120.405 1.20264 120.47 1.21333 120.524 1.21066C121.409 1.16122 122.298 1.11044 123.183 1.05966C123.455 1.04363 123.455 1.04363 124.24 1.11312C124.298 1.11846 124.359 1.12649 124.416 1.12382C125.428 1.06636 126.443 1.01023 127.455 0.948765C127.658 0.936739 127.826 0.947426 127.972 0.995529C128.075 1.03027 128.183 1.04498 128.309 1.03696C129.447 0.971485 130.589 0.908686 131.723 0.839203C131.941 0.825841 132.083 0.855226 132.236 0.893976C132.286 0.907338 132.336 0.926049 132.393 0.931394C132.451 0.936739 132.516 0.93139 132.577 0.927381C133.715 0.861907 134.857 0.800444 135.991 0.729625C136.221 0.714927 136.343 0.760356 136.497 0.793761C136.55 0.805787 136.608 0.82984 136.654 0.828503C137.098 0.805788 137.543 0.785752 137.983 0.752347C138.221 0.73364 138.324 0.795094 138.485 0.824491C138.539 0.833844 138.6 0.853897 138.65 0.851225C139.6 0.799113 140.55 0.744332 141.497 0.688211C141.631 0.680194 141.73 0.692209 141.838 0.72695C141.979 0.773718 142.144 0.792425 142.351 0.777727C142.792 0.746994 143.236 0.725621 143.681 0.700233C143.941 0.685534 143.941 0.685539 144.738 0.755022C144.795 0.760367 144.857 0.768378 144.914 0.765706C145.673 0.722947 146.435 0.681527 147.19 0.63476C147.393 0.621398 147.562 0.63342 147.707 0.681524C147.811 0.716265 147.914 0.730971 148.044 0.722954C148.742 0.682868 149.435 0.642778 150.133 0.602692C150.385 0.587994 150.638 0.5626 150.891 0.5626C151.075 0.563936 151.209 0.628071 151.374 0.66014C151.42 0.669493 151.497 0.658816 151.558 0.656144C152.443 0.605368 153.332 0.558596 154.213 0.501139C154.443 0.486441 154.565 0.531869 154.719 0.565275C154.772 0.5773 154.83 0.601353 154.876 0.600017C155.194 0.585319 155.508 0.565274 155.826 0.547903C156.205 0.526524 156.588 0.510489 156.964 0.481093C157.27 0.457041 157.385 0.573287 157.631 0.577296C157.818 0.581304 158.01 0.558593 158.198 0.547903C158.577 0.526524 158.956 0.502475 159.335 0.483768C159.47 0.477087 159.573 0.455698 159.615 0.407595C159.623 0.398241 159.558 0.378207 159.516 0.366181C159.006 0.229888 159.006 0.229881 158.493 0.259278C158.175 0.277985 157.86 0.296695 157.542 0.312729C157.489 0.315402 157.427 0.304713 157.374 0.296696C157.221 0.27398 157.236 0.247259 157.366 0.199155C157.496 0.151052 157.596 0.0922638 157.707 0.0374794C157.864 0.0722207 158.018 0.10695 158.175 0.141691C158.301 0.13501 158.428 0.127005 158.554 0.120324C159.186 0.0855822 159.818 0.049502 160.45 0.017433C160.496 0.0147606 160.554 0.0414886 160.608 0.0548507C160.761 0.0936007 160.899 0.126997 161.121 0.112298C161.688 0.0735485 162.259 0.0454881 162.826 0.0120829C163.075 -0.00261533 163.075 -0.00261402 163.512 0.0802308C163.562 0.0895842 163.627 0.100275 163.68 0.0976021C164.251 0.0668694 164.818 0.0334681 165.389 0.00139916C165.512 -0.00528187 165.63 0.0120882 165.719 0.0508382C165.753 0.0668726 165.745 0.0935916 165.891 0.312729C166.343 0.490445 166.653 0.471747 166.968 0.455713C167.102 0.449032 167.22 0.442344 167.309 0.41562C167.355 0.400922 167.412 0.379539 167.412 0.362168C167.412 0.348806 167.328 0.327423 167.274 0.324751C166.895 0.298027 166.535 0.354155 166.163 0.366181C165.991 0.371526 165.841 0.324758 165.811 0.248594C165.803 0.227215 165.791 0.204501 165.78 0.183121C165.768 0.161742 165.761 0.139028 165.749 0.117649C165.6 0.110967 165.512 0.135015 165.447 0.180446C165.393 0.21786 165.316 0.260619 165.213 0.280662C165.109 0.302041 164.968 0.29804 164.841 0.304721C164.719 0.311402 164.585 0.32877 164.47 0.319417C164.355 0.308727 164.263 0.269971 164.155 0.245919C164.106 0.233893 164.044 0.216529 163.994 0.219202C163.554 0.241917 163.117 0.264624 162.68 0.294021C162.45 0.310055 162.336 0.253943 162.19 0.219202C162.075 0.192477 161.96 0.19915 161.941 0.260615C161.891 0.407598 162.067 0.46906 162.458 0.441C162.78 0.416948 163.071 0.412952 163.324 0.503814C163.358 0.51584 163.439 0.521183 163.489 0.518511C163.803 0.502476 164.113 0.482431 164.427 0.466397C164.485 0.463724 164.546 0.46906 164.6 0.474405C165.381 0.54656 165.381 0.547904 165.646 0.531869C165.772 0.523852 165.895 0.51717 165.883 0.314067C166.125 0.0962653 166.508 0.0815696 166.88 0.0495006C167.121 0.0294575 167.224 0.0882533 167.381 0.118986C167.435 0.129676 167.493 0.151051 167.542 0.148379C168.366 0.104284 169.186 0.0575101 170.006 0.00807041C170.144 5.31674e-05 170.243 0.00807171 170.351 0.0428131C170.489 0.0869079 170.642 0.114974 170.86 0.0989396C171.297 0.0668707 171.741 0.0468321 172.186 0.020108C172.412 0.00674594 172.412 0.00673225 172.868 0.0895771C172.918 0.0989305 172.983 0.109621 173.036 0.106948C173.481 0.0842329 173.922 0.056181 174.362 0.0321293C174.485 0.0254483 174.596 0.0441532 174.692 0.0802308C174.787 0.116308 174.902 0.135013 175.021 0.128332C175.466 0.104281 175.906 0.0775649 176.347 0.0535132C176.4 0.0508408 176.466 0.0601936 176.515 0.069547C176.983 0.152392 176.983 0.152378 177.197 0.139016C177.512 0.118973 177.833 0.10963 178.144 0.0829058C178.446 0.0561817 178.604 0.133675 178.81 0.176434C179.377 0.145701 179.948 0.12032 180.512 0.0829058C180.741 0.0668713 180.864 0.110962 181.017 0.145704C181.071 0.157729 181.125 0.18312 181.174 0.181784C181.366 0.176439 181.554 0.161743 181.741 0.151054C181.929 0.140364 182.121 0.129676 182.308 0.118986C182.523 0.157736 182.665 0.248597 182.971 0.217864C183.155 0.199157 183.351 0.195148 183.538 0.184459C183.726 0.173769 183.918 0.163081 184.105 0.152391C184.232 0.14571 184.362 0.141696 184.485 0.12967C184.711 0.109627 184.822 0.175109 184.983 0.204505C185.036 0.213859 185.098 0.229883 185.148 0.22721C185.527 0.208503 185.91 0.19247 186.282 0.161737C186.569 0.137686 186.764 0.177777 186.967 0.233898C187.01 0.245924 187.082 0.252604 187.136 0.249932C187.58 0.227216 188.021 0.199148 188.462 0.175096C188.58 0.168415 188.695 0.189794 188.791 0.224535C188.891 0.260613 189.002 0.277997 189.124 0.271316C189.565 0.247264 190.01 0.220532 190.45 0.19648C190.504 0.193808 190.569 0.204499 190.619 0.215189C191.048 0.298034 191.048 0.299371 191.301 0.283337C191.362 0.279328 191.427 0.276645 191.488 0.272637C191.803 0.25393 192.128 0.247258 192.435 0.215189C192.787 0.179111 193.044 0.224544 193.293 0.300708C193.607 0.284674 193.929 0.275318 194.236 0.248594C194.465 0.228551 194.588 0.279324 194.741 0.312729C194.795 0.324755 194.852 0.348807 194.898 0.346135C195.343 0.323419 195.787 0.303383 196.224 0.269978C196.462 0.251271 196.565 0.311389 196.726 0.342122C196.78 0.352812 196.837 0.371528 196.887 0.368856C197.14 0.358166 197.393 0.342124 197.646 0.327426C197.941 0.310055 197.94 0.31139 198.331 0.392899C198.515 0.431649 198.699 0.400915 198.879 0.391561C199.071 0.380871 199.251 0.372857 199.404 0.427641C199.5 0.462383 199.615 0.483763 199.734 0.478418C199.986 0.466392 200.243 0.454372 200.492 0.434329C200.691 0.418294 200.864 0.428978 201.009 0.478418C201.113 0.513159 201.22 0.53054 201.347 0.522523C201.914 0.490454 202.484 0.457037 203.052 0.426304C203.101 0.423631 203.17 0.435662 203.216 0.447688C203.324 0.471739 203.427 0.498458 203.53 0.525182C203.779 0.513156 204.036 0.507825 204.281 0.489118C204.542 0.470411 204.779 0.463728 204.983 0.537219C205.025 0.553254 205.086 0.575957 205.136 0.574621C205.327 0.569276 205.515 0.555918 205.703 0.545228C205.891 0.534539 206.082 0.52385 206.27 0.51316C206.488 0.546566 206.626 0.642771 206.933 0.612038C207.117 0.593332 207.312 0.589323 207.5 0.578633C207.688 0.567944 207.879 0.555919 208.067 0.546566C208.128 0.543893 208.197 0.537208 208.251 0.542553C208.308 0.547898 208.358 0.566609 208.408 0.579971C208.561 0.618721 208.703 0.657475 208.921 0.63476C209.105 0.616053 209.301 0.612043 209.488 0.600017C209.745 0.585319 209.745 0.585322 210.17 0.669503C210.343 0.704244 210.538 0.658815 210.703 0.688211C210.814 0.708255 210.91 0.741653 211.017 0.764368C211.063 0.773722 211.136 0.777724 211.189 0.775052C211.442 0.763026 211.699 0.751006 211.948 0.730963C212.151 0.714928 212.32 0.730961 212.461 0.779064C212.565 0.813806 212.668 0.828512 212.799 0.820495C213.431 0.783081 214.063 0.751001 214.691 0.709579C214.906 0.694881 215.078 0.717602 215.197 0.765706C215.4 0.84855 215.687 0.751009 215.898 0.81782C216.028 0.859242 216.159 0.907348 216.396 0.887305C216.833 0.852564 217.277 0.833846 217.718 0.809794C217.875 0.845872 218.032 0.881958 218.193 0.918035C218.446 0.903337 218.699 0.888629 218.952 0.875267C219.139 0.864578 219.331 0.852553 219.519 0.8432C219.58 0.840527 219.645 0.835181 219.703 0.841862C219.76 0.848543 219.806 0.865918 219.86 0.87928C220.124 0.944754 220.124 0.946097 220.561 0.919373C220.749 0.907347 220.929 0.899329 221.086 0.952778C221.231 1.00222 221.404 1.01156 221.603 0.996867C221.979 0.970143 222.358 0.950101 222.741 0.931394C222.86 0.924713 222.971 0.947429 223.07 0.98217C223.22 1.03695 223.404 1.03161 223.592 1.01691C223.841 0.998206 224.086 0.979503 224.296 1.05433C224.339 1.07037 224.404 1.09307 224.45 1.09173C224.764 1.08104 225.082 1.07303 225.388 1.04764C225.695 1.02226 225.844 1.1051 226.055 1.14518C226.369 1.12781 226.687 1.11044 227.001 1.09307C227.063 1.08906 227.136 1.07704 227.189 1.08372C227.415 1.11178 227.546 1.212 227.856 1.18126C228.036 1.16389 228.231 1.15855 228.419 1.15455C228.469 1.15321 228.534 1.17591 228.569 1.19329C228.588 1.20264 228.569 1.22802 228.546 1.24139C228.477 1.2788 228.392 1.31355 228.331 1.3523C228.323 1.35765 228.396 1.38169 228.438 1.39238C228.542 1.41643 228.66 1.41243 228.798 1.40174C228.917 1.39239 229.04 1.41109 229.124 1.45118C229.159 1.46721 229.147 1.49394 229.074 1.58213C229.074 1.6476 229.155 1.6182 229.182 1.57544C229.224 1.51397 229.143 1.49393 228.99 1.52734C228.883 1.55139 228.829 1.58613 228.856 1.61419C228.871 1.62889 228.944 1.6476 229.074 1.58213C229.411 1.50195 229.664 1.48726 229.917 1.47256C229.982 1.46856 230.059 1.45518 230.105 1.4632C230.27 1.49527 230.423 1.53403 230.584 1.5701C230.768 1.56209 230.94 1.54204 231.12 1.59415C231.373 1.66764 231.385 1.66096 231.63 1.64626C231.756 1.63824 231.883 1.63157 232.009 1.62489C232.136 1.61821 232.235 1.63825 232.346 1.66898C232.572 1.73178 232.591 1.73178 232.741 1.64626C232.829 1.59415 232.89 1.57678 233.001 1.60083C233.369 1.68234 233.373 1.68768 233.687 1.66363C233.948 1.64359 234.193 1.63825 234.385 1.71441C234.515 1.76786 234.557 1.75583 234.66 1.69971C234.936 1.55139 235.063 1.55406 235.58 1.66096C235.821 1.71173 236.07 1.65695 236.316 1.65027C236.522 1.64493 236.668 1.67699 236.683 1.76117C236.695 1.81329 236.729 1.85071 236.867 1.86808C236.921 1.87476 236.986 1.88411 237.04 1.88143C237.358 1.8654 237.672 1.84669 237.99 1.82798C238.151 1.81863 238.239 1.75584 238.208 1.673C238.174 1.58481 238.235 1.55272 238.465 1.52734C238.603 1.51264 238.714 1.51532 238.825 1.53937C238.948 1.5661 238.913 1.59015 238.806 1.63825C238.549 1.75584 238.58 1.82798 238.909 1.90949C239.024 1.93755 239.116 1.96295 239.143 2.00437C239.158 2.02575 239.143 2.05381 239.178 2.06984C239.365 2.15937 239.626 2.21683 239.917 2.25959C240.197 2.22351 240.388 2.28363 240.603 2.33174C240.771 2.36915 240.971 2.33709 241.151 2.32373C241.354 2.30903 241.522 2.31971 241.668 2.36915C241.771 2.4039 241.879 2.41992 242.005 2.41324C242.258 2.39854 242.515 2.3892 242.764 2.36782C242.978 2.34911 243.139 2.37584 243.273 2.42127C243.442 2.47872 243.63 2.43997 243.806 2.44799C244.043 2.45734 244.162 2.57626 244.473 2.54419C244.656 2.52548 244.848 2.5188 245.04 2.51346C245.089 2.51212 245.151 2.53484 245.193 2.55088C245.396 2.62437 245.633 2.62036 245.894 2.59898C246.074 2.58428 246.25 2.57092 246.427 2.6217C246.718 2.70722 247.04 2.78205 247.346 2.86088C247.388 2.92235 247.358 2.99449 247.576 3.03057C247.691 3.04928 247.798 3.07735 247.886 3.10808C247.994 3.14416 248.093 3.15351 248.231 3.14416C248.48 3.12545 248.741 3.12143 248.986 3.09738C249.212 3.076 249.354 3.12011 249.492 3.16153C249.603 3.19494 249.706 3.21096 249.84 3.18691C249.978 3.1642 250.078 3.17889 250.189 3.21497C250.346 3.26441 250.358 3.25907 250.879 3.27377C250.932 3.2751 250.997 3.29514 251.028 3.31251C251.043 3.32186 251.009 3.3486 250.982 3.36196C250.948 3.378 250.894 3.39669 250.844 3.4007C250.277 3.43544 249.706 3.46618 249.139 3.50092C249.082 3.50493 249.02 3.51429 248.978 3.52765C248.932 3.54235 248.875 3.56238 248.875 3.58109C248.875 3.59445 248.951 3.61049 249.005 3.61984C249.174 3.65057 249.373 3.60381 249.538 3.63855C249.649 3.66127 249.741 3.69333 249.852 3.71471C249.898 3.72406 249.971 3.72273 250.028 3.72006C250.22 3.7107 250.407 3.69734 250.599 3.68933C250.653 3.68799 250.714 3.70136 250.764 3.71205C251.132 3.79222 251.132 3.79222 251.45 3.77485C251.576 3.76816 251.71 3.74812 251.829 3.75614C251.944 3.76415 252.043 3.80023 252.147 3.82295C252.361 3.87105 252.564 3.91782 252.58 4.02204C252.587 4.06213 252.714 4.09686 252.84 4.09953C252.963 4.10221 253.093 4.08752 253.22 4.0795C253.518 4.06347 253.518 4.06347 253.905 4.14498C254.013 4.16769 254.128 4.17036 254.266 4.157C254.319 4.15165 254.384 4.15701 254.442 4.16369C254.63 4.18373 254.63 4.20911 254.507 4.25721C254.335 4.32803 254.35 4.33472 254.833 4.39485C255.016 4.41756 255.158 4.46032 255.311 4.49774C255.561 4.55787 255.557 4.55786 255.392 4.63669C255.354 4.65406 255.319 4.67277 255.281 4.69148C255.17 4.74359 255.082 4.79971 254.852 4.80506C254.599 4.8104 254.346 4.83179 254.093 4.84649C253.848 4.86118 253.783 4.89324 253.806 4.9841C253.833 5.09367 253.882 5.1057 254.323 5.10436C254.449 5.10436 254.561 5.11505 254.656 5.15113C254.61 5.19389 254.526 5.22729 254.403 5.23531C254.089 5.25535 253.771 5.27273 253.457 5.2901C253.204 5.3048 252.951 5.31949 252.699 5.33419C252.541 5.34354 252.442 5.41303 252.484 5.49053C252.507 5.53463 252.526 5.57872 252.545 5.62281C252.587 5.711 252.668 5.73373 252.925 5.72972C252.99 5.72838 253.051 5.71768 253.112 5.72035C253.361 5.72971 253.48 5.84061 253.779 5.81789C254.028 5.79919 254.289 5.79518 254.534 5.77113C254.76 5.74975 254.886 5.79787 255.043 5.83395C255.097 5.84597 255.154 5.87135 255.2 5.87001C255.518 5.85531 255.836 5.84062 256.147 5.81524C256.292 5.80455 256.38 5.81256 256.495 5.84463C256.771 5.92213 256.779 5.91812 257.189 5.89407C257.488 5.87536 257.492 5.87803 257.875 5.95954C257.982 5.98226 258.097 5.98225 258.235 5.97156C258.415 5.9582 258.603 5.93682 258.79 5.95687C258.848 5.96221 258.921 5.97825 258.94 5.99562C258.951 6.00765 258.898 6.03704 258.852 6.0464C258.515 6.11588 258.12 6.10386 257.752 6.13192C257.637 6.13993 257.522 6.11454 257.426 6.07846C257.327 6.04239 257.22 6.0277 257.089 6.03438C256.836 6.04907 256.58 6.05842 256.331 6.0798C256.116 6.09851 255.967 6.06777 255.817 6.02635C255.767 6.01299 255.71 5.9876 255.66 5.98893C255.093 6.01566 254.522 6.04239 253.959 6.0798C253.733 6.09584 253.603 6.05308 253.449 6.017C253.396 6.00498 253.342 5.97959 253.292 5.98092C253.101 5.98627 252.913 6.00097 252.722 6.01165C252.024 6.05174 251.331 6.09183 250.633 6.12924C250.587 6.13191 250.53 6.10385 250.476 6.09182C250.373 6.06777 250.266 6.04505 250.158 6.02234C249.967 6.03303 249.779 6.04639 249.587 6.05441C249.449 6.05975 249.327 6.07847 249.308 6.12924C249.296 6.16265 249.423 6.19337 249.557 6.1907C249.687 6.18803 249.817 6.17199 249.925 6.18936C250.457 6.27488 250.457 6.27622 250.791 6.25885C251.082 6.24282 251.051 6.22945 251.308 6.30294C251.419 6.33501 251.518 6.35372 251.645 6.34571C251.959 6.327 252.277 6.30829 252.595 6.29225C252.645 6.28958 252.71 6.30295 252.76 6.31364C253.135 6.39381 253.135 6.39648 253.446 6.37644C253.852 6.35239 253.867 6.3457 254.139 6.42721C254.327 6.48333 254.499 6.44458 254.679 6.44191C254.886 6.49402 255.112 6.5408 255.3 6.59959C255.522 6.66907 255.756 6.65703 256.009 6.63699C256.197 6.62229 256.38 6.61695 256.534 6.67173C256.679 6.72251 256.856 6.72786 257.055 6.7145C257.235 6.70248 257.419 6.67708 257.607 6.70648C257.656 6.71449 257.733 6.73454 257.729 6.74657C257.725 6.76528 257.675 6.792 257.626 6.80002C257.273 6.8548 256.886 6.85346 256.515 6.87885C256.465 6.88286 256.4 6.86816 256.35 6.85747C256.243 6.83342 256.139 6.80536 256.036 6.77997C255.848 6.78799 255.656 6.79066 255.472 6.80669C255.331 6.81872 255.223 6.81739 255.12 6.78532C255.024 6.75593 254.921 6.71984 254.806 6.71049C254.691 6.70113 254.557 6.72118 254.43 6.7292C254.304 6.73721 254.158 6.7332 254.059 6.75458C253.959 6.77596 253.898 6.82273 253.833 6.86014C253.76 6.90157 253.66 6.91494 253.515 6.91894C253.38 6.92295 253.273 6.9176 253.174 6.88019C253.131 6.86415 253.074 6.85212 253.016 6.84143C252.963 6.83208 252.902 6.81738 252.852 6.82005C252.281 6.85078 251.714 6.8842 251.143 6.91627C250.859 6.9323 250.863 6.93229 250.273 6.85346C250.22 6.84677 250.155 6.83742 250.101 6.8401C249.783 6.85613 249.469 6.87484 249.151 6.89355C248.829 6.91225 248.833 6.90958 248.285 6.8254C248.185 6.80937 248.04 6.83075 247.921 6.82807C247.672 6.82139 247.549 6.70916 247.258 6.73053C247.009 6.74924 246.748 6.75325 246.499 6.7773C246.273 6.79868 246.143 6.75192 245.99 6.71584C245.936 6.70381 245.879 6.67709 245.833 6.67976C245.262 6.70915 244.695 6.74256 243.936 6.74657C243.748 6.74657 243.833 6.77463 243.955 6.78399C244.132 6.79868 244.189 6.77062 244.093 6.71718C244.024 6.67976 243.925 6.66104 243.844 6.6704C243.802 6.67574 243.748 6.70114 243.936 6.74657C244.135 6.79734 244.124 6.8254 244.158 6.84143C244.243 6.88018 244.361 6.89622 244.484 6.89087C244.676 6.88152 244.863 6.86816 245.055 6.86014C245.109 6.85747 245.174 6.86682 245.224 6.87751C245.645 6.96036 245.649 6.96571 246.097 6.93364C246.239 6.92429 246.342 6.92429 246.453 6.94967C246.607 6.98442 246.718 7.0432 246.951 7.02449C247.262 6.99911 247.58 6.98442 247.898 6.96972C247.948 6.96705 248.001 6.9911 248.059 7.00179C248.216 7.03386 248.331 7.09399 248.564 7.0686C248.745 7.04856 248.94 7.0432 249.132 7.03919C249.181 7.03785 249.258 7.05924 249.281 7.07661C249.327 7.10734 249.269 7.14343 249.139 7.16881C249.086 7.1795 249.013 7.17683 248.951 7.18084C248.699 7.19553 248.446 7.21156 248.193 7.22359C248.059 7.23027 247.932 7.25032 247.917 7.29976C247.906 7.33317 248.043 7.36256 248.174 7.35988C248.365 7.35587 248.557 7.34519 248.741 7.32782C249.066 7.29842 249.35 7.30643 249.614 7.39061C249.802 7.44941 249.791 7.42804 249.99 7.60174C250.04 7.64584 250.189 7.64984 250.319 7.64717C250.633 7.64049 250.779 7.66054 250.752 7.70196C250.718 7.75274 250.607 7.76876 250.465 7.77544C250.212 7.78613 249.959 7.80351 249.706 7.81821C249.645 7.82222 249.576 7.83023 249.518 7.82756C249.461 7.82488 249.407 7.80885 249.358 7.79682C249.25 7.77144 249.158 7.73268 249.043 7.72333C248.928 7.71397 248.794 7.73402 248.668 7.74204C248.542 7.74872 248.407 7.76876 248.292 7.75941C248.178 7.75005 248.082 7.70998 247.978 7.68593C247.928 7.6739 247.867 7.65518 247.817 7.65652C247.565 7.66721 247.312 7.68459 247.059 7.69795C246.748 7.71532 246.748 7.71532 246.373 7.63247C246.266 7.60842 246.155 7.60976 246.013 7.62045C245.706 7.64183 245.702 7.63781 245.143 7.56031C245.089 7.5523 245.024 7.54295 244.971 7.54696C244.4 7.57769 243.833 7.61109 243.266 7.64316C242.779 7.67122 242.779 7.67123 242.511 7.80485C242.312 7.90373 242.308 7.90372 242.503 7.94915C242.66 7.98657 242.802 8.04135 242.974 8.06139C243.135 8.0801 243.335 8.01997 243.511 8.08144C243.599 8.11217 243.714 8.14558 243.825 8.15092C244.001 8.1576 244.189 8.11885 244.358 8.17764C244.442 8.20704 244.568 8.23778 244.676 8.23912C244.863 8.24179 245.055 8.2204 245.243 8.21105C245.3 8.20837 245.365 8.20838 245.419 8.21506C245.476 8.22308 245.526 8.23911 245.576 8.25248C245.729 8.29791 245.894 8.31928 246.093 8.29657C246.419 8.25915 246.71 8.27786 246.963 8.36338C246.997 8.3754 247.082 8.37675 247.135 8.3714C247.273 8.35804 247.392 8.3567 247.496 8.38208C247.538 8.39277 247.599 8.41147 247.591 8.4235C247.58 8.44354 247.534 8.47027 247.484 8.47695C247.124 8.52238 246.737 8.52773 246.365 8.55178C246.315 8.55446 246.254 8.53708 246.204 8.52505C246.097 8.501 246.005 8.46092 245.89 8.45157C245.775 8.44222 245.641 8.45959 245.515 8.46627C245.388 8.47295 245.254 8.49299 245.139 8.48497C245.024 8.47562 244.917 8.44221 244.825 8.41281C244.718 8.37941 244.614 8.37541 244.473 8.38877C244.289 8.40614 244.097 8.40881 243.909 8.41816C243.806 8.39278 243.702 8.36471 243.595 8.34065C243.545 8.32863 243.484 8.31394 243.43 8.31527C243.178 8.32596 242.925 8.34199 242.672 8.35669C242.419 8.37139 242.419 8.3714 241.99 8.28856C241.94 8.2792 241.875 8.26851 241.821 8.27118C241.503 8.28722 241.189 8.30725 240.871 8.32328C240.748 8.32996 240.637 8.31126 240.538 8.27518C240.442 8.2391 240.327 8.21906 240.208 8.22574C239.702 8.2538 239.197 8.28053 238.691 8.31394C238.488 8.3273 238.316 8.31528 238.178 8.26717C238.017 8.21239 237.837 8.22575 237.649 8.23644C237.224 8.26317 237.22 8.26182 236.948 8.19367C236.894 8.18031 236.84 8.15492 236.791 8.15626C236.35 8.1763 235.906 8.19501 235.469 8.22708C235.239 8.24445 235.116 8.19769 234.963 8.16294C234.909 8.15092 234.852 8.12553 234.806 8.1282C234.488 8.1429 234.17 8.15627 233.86 8.18299C233.549 8.20971 233.43 8.08545 233.197 8.08679C232.879 8.08812 232.565 8.11886 232.25 8.13756C231.998 8.15226 231.745 8.16695 231.492 8.18165C231.239 8.19635 230.986 8.20837 230.733 8.22574C230.599 8.2351 230.5 8.22307 230.388 8.18966C230.247 8.14557 230.078 8.11084 229.925 8.07075C229.691 8.0133 229.691 8.01329 229.408 8.02932C229.346 8.03333 229.281 8.036 229.22 8.04001C228.756 8.0694 228.756 8.06674 228.166 7.98256C228.139 7.97855 228.07 7.99325 228.044 8.00394C227.963 8.03868 227.89 8.07609 227.818 8.11217C227.714 8.09079 227.588 8.07876 227.519 8.04803C227.323 7.96118 227.017 8.0801 226.818 7.99458C226.745 7.96251 226.618 7.93445 226.503 7.92643C226.385 7.91842 226.251 7.93712 226.128 7.94514C225.81 7.96519 225.81 7.96385 225.538 8.08278C225.4 8.14157 225.201 8.13087 225.021 8.14424C224.833 8.15893 224.653 8.16695 224.496 8.11217C224.354 8.06273 224.182 8.05071 223.979 8.06674C223.73 8.08678 223.473 8.0988 223.22 8.11083C223.166 8.1135 223.101 8.10683 223.047 8.09881C222.461 8.01997 222.461 8.01864 222.178 8.03601C222.051 8.04403 221.921 8.04669 221.798 8.05872C221.592 8.0801 221.435 8.05204 221.285 8.00928C221.235 7.99592 221.178 7.97054 221.128 7.97188C220.875 7.97856 220.626 7.99058 220.377 8.00261C220.185 8.01196 219.994 8.0173 219.81 8.03601C219.503 8.06674 219.354 7.97988 219.143 7.93979C218.829 7.95716 218.511 7.96919 218.197 7.99324C218.051 8.00393 217.956 7.99993 217.845 7.96786C217.703 7.92778 217.572 7.88235 217.343 7.90239C217.036 7.92911 216.714 7.93847 216.4 7.9545C216.189 7.91308 216.036 7.82889 215.733 7.85962C215.55 7.87833 215.354 7.88234 215.166 7.89303C214.914 7.90773 214.661 7.9211 214.408 7.93713C214.136 7.95317 214.14 7.94916 213.722 7.87032C213.481 7.82356 213.231 7.87566 212.986 7.88368C212.795 7.89036 212.699 7.95183 212.745 8.03066C212.791 8.1095 212.687 8.17096 212.511 8.18165C212.071 8.20704 211.626 8.23376 211.186 8.25647C211.132 8.25914 211.067 8.24979 211.017 8.24044C210.546 8.15626 210.546 8.15761 210.335 8.16963C210.021 8.18968 209.699 8.20035 209.389 8.22574C209.174 8.24311 209.017 8.21506 208.879 8.16963C208.772 8.13489 208.672 8.12687 208.534 8.13489C207.017 8.22441 205.5 8.30726 203.986 8.39946C203.76 8.41282 203.63 8.37407 203.477 8.338C203.423 8.32597 203.373 8.30058 203.32 8.30058C203.193 8.30058 203.067 8.31261 202.94 8.32062C202.373 8.35269 201.806 8.39144 201.235 8.41549C200.994 8.42618 200.929 8.48765 200.825 8.53843C200.745 8.57718 200.653 8.5932 200.511 8.59855C200.373 8.60389 200.274 8.59721 200.166 8.56247C200.029 8.51704 199.872 8.48897 199.657 8.50768C199.408 8.52906 199.155 8.53842 198.898 8.55312C198.768 8.5598 198.668 8.58385 198.626 8.63195C198.619 8.63997 198.699 8.66002 198.745 8.67205C198.898 8.71213 199.044 8.7589 199.216 8.78696C199.393 8.81502 199.584 8.78294 199.768 8.77492C199.833 8.77225 199.894 8.76424 199.956 8.76557C200.013 8.76691 200.082 8.77359 200.124 8.78562C200.324 8.84575 200.534 8.88717 200.81 8.85109C201.048 8.86846 201.17 8.97937 201.473 8.94997C201.657 8.9326 201.849 8.92459 202.04 8.9179C202.09 8.91657 202.143 8.94062 202.197 8.95265C202.35 8.98605 202.473 9.0395 202.703 9.01678C202.948 8.99273 203.209 8.98872 203.458 8.97002C203.596 8.95933 203.695 8.96868 203.802 9.00342C203.94 9.04752 204.098 9.08091 204.312 9.05953C204.496 9.04083 204.691 9.03682 204.879 9.02479C205.124 9.01009 205.124 9.01143 205.561 9.09428C205.611 9.10363 205.676 9.11432 205.73 9.11165C206.048 9.09561 206.362 9.07557 206.68 9.05953C206.802 9.05285 206.921 9.07022 207.006 9.10897C207.04 9.12501 207.028 9.15175 207.04 9.17446C206.408 9.21054 205.776 9.24127 205.147 9.28536C204.91 9.30273 204.802 9.24795 204.645 9.21721C204.592 9.20652 204.534 9.18381 204.484 9.18648C204.04 9.2092 203.599 9.23324 203.159 9.26264C203.021 9.27199 202.917 9.26665 202.814 9.2279C202.55 9.12501 202.228 9.18113 201.929 9.19583C201.699 9.20652 201.626 9.24795 201.653 9.33614C201.688 9.44036 201.825 9.47243 202.178 9.45372C202.304 9.44704 202.431 9.43769 202.557 9.43234C202.68 9.427 202.791 9.44436 202.891 9.48044C202.986 9.51652 203.101 9.53523 203.22 9.52988C203.473 9.51785 203.73 9.50583 203.975 9.48579C204.178 9.46976 204.347 9.48312 204.488 9.53256C204.645 9.58734 204.829 9.57531 205.013 9.56329C205.442 9.53656 205.446 9.53791 205.714 9.60472C205.768 9.61808 205.822 9.64347 205.871 9.64213C206.312 9.62209 206.756 9.60472 207.189 9.57265C207.415 9.55661 207.546 9.59937 207.695 9.63411C207.749 9.64613 207.802 9.67286 207.852 9.67019C208.17 9.65549 208.488 9.64079 208.799 9.6154C208.944 9.60337 209.032 9.61139 209.151 9.64346C209.435 9.72229 209.442 9.71962 209.845 9.69423C209.967 9.68621 210.101 9.67152 210.216 9.68221C210.331 9.6929 210.423 9.73166 210.53 9.75571C210.58 9.7664 210.641 9.78109 210.695 9.77841C210.948 9.76772 211.201 9.7517 211.454 9.737C211.691 9.7223 211.691 9.72364 212.136 9.80649C212.316 9.84123 212.504 9.81182 212.684 9.80114C212.879 9.78911 213.055 9.78911 213.205 9.84123C213.354 9.89334 213.534 9.89066 213.726 9.87997C213.906 9.86928 214.09 9.83989 214.274 9.87597C214.695 9.95881 214.695 9.96014 214.956 9.9441C215.335 9.92139 215.71 9.90001 216.094 9.87997C216.143 9.87729 216.208 9.89334 216.258 9.90403C216.366 9.92808 216.458 9.96815 216.572 9.97751C216.687 9.9882 216.822 9.97217 216.944 9.96415C217.339 9.93876 217.366 9.92941 217.63 10.0176C217.852 10.0898 218.128 9.98553 218.335 10.0684C218.454 10.1151 218.615 10.1526 218.837 10.1298C219.021 10.1111 219.212 10.1058 219.404 10.0951C219.706 10.0777 219.707 10.0791 220.09 10.1592C220.139 10.1699 220.205 10.1833 220.254 10.1806C220.507 10.1699 220.764 10.1606 221.009 10.1365C221.297 10.1085 221.48 10.1592 221.695 10.2087C221.864 10.2474 222.063 10.2154 222.243 10.202C222.438 10.1886 222.615 10.1926 222.76 10.2447C222.913 10.2982 223.093 10.2915 223.285 10.2808C223.465 10.2715 223.649 10.2407 223.833 10.2782C224.228 10.361 224.228 10.361 224.515 10.345C224.768 10.3303 225.021 10.3142 225.274 10.3035C225.323 10.3009 225.385 10.3182 225.434 10.3303C225.542 10.3543 225.634 10.3944 225.749 10.4038C225.864 10.4131 225.998 10.3958 226.124 10.3891C226.251 10.3824 226.385 10.3623 226.5 10.3704C226.614 10.3784 226.722 10.4118 226.814 10.4412C226.921 10.4759 227.021 10.4799 227.166 10.4666C227.35 10.4492 227.542 10.4452 227.729 10.4358C227.833 10.4612 227.94 10.4866 228.04 10.5147C228.143 10.5441 228.254 10.5414 228.396 10.532C228.867 10.5 228.871 10.504 229.266 10.5868C229.446 10.6242 229.634 10.5935 229.814 10.5842C230.005 10.5735 230.185 10.5681 230.335 10.6216C230.48 10.6723 230.66 10.679 230.852 10.663C230.975 10.6523 231.105 10.6456 231.231 10.6416C231.289 10.6403 231.358 10.6456 231.4 10.6563C231.603 10.7124 231.802 10.7632 232.082 10.7271C232.327 10.7378 232.45 10.8474 232.745 10.826C232.994 10.8073 233.254 10.8033 233.499 10.7792C233.726 10.7579 233.886 10.7953 234.001 10.842C234.208 10.9249 234.5 10.8127 234.706 10.8942C234.825 10.9409 234.978 10.9783 235.208 10.9583C235.461 10.9369 235.542 10.965 235.614 11.0491C235.657 11.0973 235.649 11.136 235.572 11.1734C235.496 11.2122 235.411 11.2055 235.289 11.1614C235.147 11.112 234.978 11.1026 234.775 11.1133C234.576 11.124 234.454 11.0545 234.289 11.0278C234.124 10.9997 233.929 11.0465 233.756 11.0104C233.35 10.9262 233.35 10.9262 233.074 10.9423C232.887 10.953 232.691 10.9583 232.507 10.977C232.289 10.9997 232.147 10.9583 231.998 10.9209C231.944 10.9075 231.89 10.8821 231.844 10.8835C231.404 10.9035 230.959 10.9222 230.522 10.9556C230.293 10.973 230.17 10.9249 230.017 10.8915C229.963 10.8795 229.906 10.8554 229.86 10.8581C229.48 10.8768 229.105 10.9008 228.726 10.9236C228.653 10.9596 228.572 10.9944 228.503 11.0331C228.431 11.0732 228.331 11.0906 228.185 11.0892C227.944 11.0892 227.706 11.1454 227.465 11.0745C227.216 11.0024 227.197 11.0064 226.956 11.0238C226.649 11.0465 226.323 11.0411 226.036 11.0933C225.986 11.1026 225.932 11.128 225.932 11.1467C225.929 11.1587 226.009 11.1761 226.059 11.1868C226.228 11.2188 226.423 11.1721 226.591 11.2055C226.703 11.2269 226.795 11.2589 226.906 11.2816C226.952 11.291 227.021 11.2897 227.082 11.2883C227.147 11.287 227.208 11.2777 227.27 11.279C227.327 11.2803 227.388 11.2883 227.434 11.3004C227.645 11.3511 227.867 11.3979 228.055 11.458C228.239 11.5168 228.411 11.4767 228.595 11.4741C229.331 11.5676 229.331 11.5689 229.825 11.5395C229.948 11.5329 230.074 11.5248 230.201 11.5262C230.254 11.5262 230.304 11.5502 230.358 11.5636C230.511 11.6037 230.657 11.6398 230.871 11.6184C231.055 11.5997 231.251 11.5957 231.438 11.5836C231.691 11.5689 231.691 11.5689 232.12 11.6531C232.228 11.6745 232.342 11.6718 232.48 11.6611C232.599 11.6518 232.722 11.6718 232.806 11.7106C232.84 11.7266 232.829 11.7533 232.84 11.7761C232.461 11.7974 232.078 11.8121 231.71 11.8442C231.473 11.8642 231.365 11.8068 231.208 11.7761C231.155 11.7654 231.097 11.7427 231.047 11.7453C230.672 11.7654 230.297 11.7881 229.921 11.8148C229.875 11.8175 229.818 11.8482 229.814 11.8669C229.806 11.9016 229.902 11.9351 230.04 11.9337C230.224 11.9324 230.404 11.9097 230.569 11.9644C230.706 12.0125 230.879 12.0339 231.082 12.0126C231.204 12.0005 231.335 12.0005 231.457 11.9898C231.783 11.9578 232.078 11.9645 232.323 12.0553C232.511 12.0794 232.695 12.0567 232.875 12.0446C233.009 12.0353 233.139 12.0259 233.235 12.0513C233.438 12.1048 233.637 12.1582 233.917 12.1221C234.22 12.1595 234.45 12.2384 234.703 12.3025C234.821 12.3332 234.913 12.3506 235.051 12.3306C235.109 12.3226 235.178 12.3226 235.239 12.3185C235.365 12.3119 235.499 12.2918 235.614 12.2998C235.729 12.3092 235.825 12.3479 235.929 12.372C235.978 12.384 236.036 12.4041 236.086 12.4027C236.277 12.396 236.465 12.3827 236.653 12.372C236.84 12.3626 237.028 12.3533 237.216 12.3439C237.373 12.3787 237.534 12.4134 237.691 12.4482C237.944 12.4335 238.197 12.4188 238.446 12.4054C238.726 12.3894 238.725 12.3907 239.128 12.4735C239.308 12.511 239.499 12.4869 239.672 12.4695C239.959 12.4415 240.151 12.4923 240.354 12.5457C240.396 12.5564 240.473 12.5631 240.522 12.5577C240.722 12.539 240.894 12.5537 241.04 12.6032C241.143 12.6379 241.247 12.6539 241.373 12.6473C241.814 12.6219 242.254 12.5951 242.695 12.5724C242.748 12.5698 242.81 12.5818 242.859 12.5925C243.25 12.674 243.254 12.678 243.542 12.6566C243.798 12.6379 244.036 12.6299 244.239 12.7034C244.281 12.7194 244.346 12.7421 244.392 12.7408C244.706 12.7274 245.024 12.7127 245.335 12.69C245.476 12.6793 245.576 12.6833 245.687 12.7141C245.829 12.7528 245.955 12.7996 246.189 12.7822C246.837 12.7328 246.84 12.7408 247.607 12.833C247.66 12.8397 247.733 12.829 247.794 12.8236C247.925 12.8103 248.02 12.829 248.135 12.8597C248.392 12.9292 248.4 12.9252 248.645 12.9105C248.833 12.8985 249.028 12.8958 249.212 12.8757C249.495 12.8464 249.683 12.8985 249.894 12.9479C250.063 12.9867 250.258 12.9546 250.438 12.9426C250.633 12.9292 250.81 12.9332 250.955 12.984C251.055 13.0187 251.162 13.0374 251.289 13.0308C251.729 13.0067 252.17 12.98 252.61 12.9559C252.664 12.9532 252.729 12.9639 252.779 12.9733C253.216 13.0561 253.216 13.0601 253.649 13.0294C253.787 13.0201 253.902 13.0174 254.005 13.0454C254.105 13.0722 254.212 13.0976 254.315 13.1229C254.503 13.1136 254.695 13.1109 254.879 13.0949C255.02 13.0829 255.12 13.0882 255.231 13.1163C255.377 13.1523 255.499 13.2151 255.729 13.1844C255.848 13.1697 255.986 13.1737 256.105 13.1604C256.246 13.143 256.342 13.1537 256.453 13.1884C256.591 13.2298 256.733 13.2726 256.955 13.2512C257.2 13.2272 257.461 13.2232 257.71 13.2044C257.848 13.1938 257.944 13.2045 258.055 13.2392C258.193 13.2833 258.35 13.3114 258.564 13.294C259.001 13.2606 259.005 13.2672 259.43 13.3514C259.538 13.3728 259.652 13.3701 259.79 13.3595C259.909 13.3501 260.032 13.3701 260.116 13.4089C260.197 13.4517 260.189 13.4784 260.197 13.5011ZM226.055 1.44984C225.929 1.45652 225.802 1.46454 225.618 1.34829C225.607 1.32825 225.615 1.3042 225.588 1.28683C225.526 1.25075 225.431 1.22537 225.316 1.22136C225.109 1.21601 224.86 1.26143 224.864 1.29618C224.867 1.32557 224.932 1.35096 225.059 1.37501C225.113 1.38436 225.155 1.4004 225.205 1.41109C225.35 1.44182 225.465 1.50196 225.676 1.47123C225.638 1.38838 225.657 1.4298 225.676 1.47123C225.657 1.522 225.714 1.55808 225.852 1.57278C225.89 1.57679 225.948 1.57411 225.979 1.56609C226.097 1.5367 226.116 1.49662 226.028 1.39106C226.013 1.40843 226.024 1.43915 226.059 1.44717C226.093 1.45519 226.178 1.44851 226.22 1.43916C226.327 1.41377 226.381 1.38036 226.354 1.3523C226.339 1.3376 226.266 1.3189 226.22 1.3189C226.139 1.3189 226.067 1.34829 226.055 1.44984ZM257.036 16.9458C256.756 16.9712 256.434 16.9619 256.154 17.014C256.105 17.0233 256.055 17.0474 256.051 17.0661C256.047 17.0781 256.124 17.0955 256.17 17.1048C256.273 17.1262 256.388 17.1195 256.522 17.1129C256.725 17.1035 256.844 17.165 257.001 17.1957C257.051 17.2051 257.116 17.2117 257.17 17.2091C257.48 17.193 257.787 17.1757 258.097 17.157C258.151 17.153 258.208 17.1436 258.254 17.1316C258.407 17.0928 258.392 17.0674 258.243 17.038C258.078 17.006 257.948 16.9525 257.779 16.9271C257.538 16.891 257.292 16.9391 257.036 16.9458ZM235.277 17.9213C235.09 17.932 234.906 17.9426 234.718 17.9533C234.657 17.9573 234.591 17.9587 234.534 17.964C234.415 17.9734 234.327 18.0014 234.27 18.0455C234.358 18.0803 234.465 18.1003 234.584 18.0963C234.772 18.0883 234.955 18.0709 235.143 18.0669C235.346 18.0616 235.465 18.1217 235.622 18.1524C235.672 18.1618 235.733 18.1631 235.791 18.1644C236.074 18.1698 236.247 18.1003 236.193 18.0028C236.155 17.9266 236.009 17.8812 235.833 17.8905C235.649 17.8999 235.461 17.9106 235.277 17.9213ZM258.346 14.9709C258.392 14.9482 258.442 14.9322 258.465 14.9121C258.534 14.844 258.507 14.7932 258.38 14.7397C258.227 14.6743 258.039 14.7184 257.867 14.7251C257.825 14.7264 257.779 14.7544 257.756 14.7718C257.741 14.7838 257.741 14.8092 257.764 14.8159C257.951 14.8694 258.151 14.9188 258.346 14.9709ZM225.109 11.0238C224.925 11.0345 224.737 11.0425 224.553 11.0572C224.507 11.0612 224.465 11.0866 224.438 11.1039C224.388 11.136 224.442 11.1801 224.599 11.1841C224.779 11.1895 224.967 11.1667 225.155 11.1561C225.392 11.1427 225.534 11.0932 225.446 11.0505C225.362 11.0091 225.247 11.0011 225.109 11.0238ZM23.4288 8.16829C23.5514 8.16161 23.6779 8.15626 23.8005 8.14691C23.9154 8.13756 24.0036 8.10816 24.0611 8.06407C23.9653 8.02933 23.858 8.01062 23.7392 8.01463C23.5515 8.02264 23.3676 8.03333 23.1837 8.04669C23.0687 8.05471 22.9577 8.08411 22.9308 8.12954C22.904 8.16428 23.1606 8.18433 23.4288 8.16829ZM208.906 7.96251C208.956 7.97454 209.005 7.99859 209.055 7.99859C209.178 7.99859 209.304 7.99057 209.419 7.97721C209.469 7.97186 209.507 7.94781 209.53 7.92911C209.546 7.91708 209.542 7.89571 209.519 7.88502C209.408 7.82088 208.963 7.8436 208.891 7.91709C208.883 7.93045 208.902 7.94781 208.906 7.96251ZM196.818 0.645444C196.829 0.666823 196.833 0.6882 196.849 0.709579C196.879 0.749665 196.963 0.779068 197.086 0.799111C197.182 0.765706 197.232 0.728298 197.228 0.688211C197.224 0.666832 197.212 0.645439 197.197 0.62406C197.167 0.583974 197.082 0.554587 196.96 0.534544C196.864 0.566613 196.818 0.604021 196.818 0.645444ZM267.2 18.1538C267.166 18.1711 267.131 18.1885 267.093 18.2045C267.196 18.2433 267.292 18.2553 267.365 18.2339C267.411 18.2206 267.438 18.2005 267.472 18.1832C267.369 18.1444 267.277 18.1337 267.2 18.1538ZM264.817 18.3355C264.867 18.3475 264.913 18.3636 264.967 18.3716C265.055 18.3849 265.135 18.3622 265.196 18.3141C265.147 18.3021 265.101 18.286 265.047 18.278C264.959 18.2647 264.878 18.2874 264.817 18.3355ZM266.327 18.091C266.3 18.123 266.354 18.1498 266.495 18.1725C266.53 18.1551 266.576 18.1391 266.599 18.1204C266.637 18.0896 266.572 18.0616 266.434 18.0402C266.396 18.0562 266.361 18.0736 266.327 18.091ZM258.239 16.6505C258.212 16.6826 258.266 16.7093 258.407 16.732C258.442 16.7147 258.488 16.6986 258.511 16.6799C258.549 16.6492 258.484 16.6211 258.346 16.5998C258.308 16.6158 258.273 16.6332 258.239 16.6505ZM247.22 7.19553C247.185 7.2129 247.151 7.23027 247.112 7.24631C247.216 7.28506 247.312 7.29708 247.384 7.2757C247.43 7.26234 247.457 7.2423 247.492 7.22492C247.388 7.18617 247.296 7.17549 247.22 7.19553ZM236.664 2.17941C236.756 2.18876 236.833 2.17006 236.898 2.12062C236.848 2.1086 236.802 2.09256 236.748 2.08454C236.66 2.07118 236.58 2.0939 236.519 2.142C236.568 2.15537 236.618 2.16738 236.664 2.17941ZM231.059 1.8654C231.024 1.88277 230.99 1.90014 230.952 1.91618C231.055 1.95493 231.151 1.96695 231.224 1.94557C231.27 1.93221 231.296 1.91216 231.331 1.89479C231.227 1.85604 231.136 1.84669 231.059 1.8654ZM193.048 0.644106C193.013 0.661477 192.979 0.678848 192.941 0.694883C193.044 0.733633 193.14 0.745655 193.213 0.724275C193.259 0.710913 193.285 0.69087 193.32 0.673499C193.216 0.634749 193.124 0.625399 193.048 0.644106ZM3.78152 11.5155C3.73171 11.5035 3.68195 11.4914 3.63597 11.4781C3.52486 11.5142 3.49039 11.5476 3.55169 11.5729C3.59001 11.589 3.64743 11.5983 3.69724 11.6104C3.81218 11.5743 3.83899 11.5422 3.78152 11.5155Z" fill="#FFE492"/>
</svg>
