<svg width="658" height="332" viewBox="0 0 658 332" fill="none" xmlns="http://www.w3.org/2000/svg">
<path d="M3 137.072L75.5 0H608.5L633 87.2742L608.5 270.037L43 307L3 137.072Z" fill="#FDE73A"/>
<line x1="632.472" y1="111.441" x2="609.472" y2="292.441" stroke="black" stroke-opacity="0.7" stroke-width="7"/>
<line x1="40.7541" y1="328.509" x2="608.754" y2="288.509" stroke="black" stroke-opacity="0.7" stroke-width="7"/>
<line x1="5.41432" y1="158.23" x2="44.4143" y2="331.23" stroke="black" stroke-opacity="0.7" stroke-width="7"/>
<line x1="77.1125" y1="20.6007" x2="5.11251" y2="160.601" stroke="black" stroke-opacity="0.7" stroke-width="7"/>
<line x1="74" y1="21.5" x2="609" y2="21.5" stroke="black" stroke-opacity="0.7" stroke-width="7"/>
<path d="M614.817 78.1315C613.715 79.6997 611.928 79.6997 610.826 78.1315C609.725 76.5605 609.725 74.0139 610.826 72.4443L627.858 48.1763C628.96 46.6081 630.747 46.6081 631.849 48.1763C632.95 49.7459 632.95 52.2939 631.849 53.8634L614.817 78.1315Z" fill="black" fill-opacity="0.7"/>
<line x1="605.401" y1="19.1754" x2="613.401" y2="52.1754" stroke="black" stroke-opacity="0.7" stroke-width="7"/>
<line x1="621.31" y1="80.8622" x2="632.31" y2="112.862" stroke="black" stroke-opacity="0.7" stroke-width="7"/>
<line x1="78" y1="25.5" x2="74" y2="25.5" stroke="black" stroke-opacity="0.7"/>
</svg>
