<svg width="537" height="576" viewBox="0 0 537 576" fill="none" xmlns="http://www.w3.org/2000/svg">
<g clip-path="url(#clip0_653_172)" filter="url(#filter0_i_653_172)">
<path d="M135.409 552.735C134.817 552.764 134.231 552.599 133.73 552.261C133.229 551.923 132.837 551.429 132.609 550.847C132.38 550.264 132.325 549.621 132.451 549.004C132.577 548.387 132.878 547.826 133.314 547.397C133.387 547.088 133.439 546.867 133.512 546.558C132.945 545.024 131.961 543.706 130.686 542.771C129.411 541.837 127.903 541.33 126.356 541.314C124.808 541.299 123.292 541.776 122 542.684C120.709 543.593 119.702 544.891 119.108 546.413C115.681 554.958 111.245 563.803 113.451 573.214C98.88 540.322 103.835 499.408 125.369 471.279C131.322 467.786 136.146 461.582 137.402 454.377C134.456 455.44 130.783 452.888 132.998 449.583C133.958 448.32 134.928 447.067 135.888 445.804C124.697 433.11 111.364 453.06 123.682 470.192C119.652 475.572 116.162 481.387 113.268 487.541C113.936 481.006 113.139 474.396 110.941 468.254C108.713 462.53 104.537 457.71 100.86 452.761C96.3896 446.732 87.1882 449.513 86.5866 457.165C90.7125 458.609 91.2486 464.957 86.5289 465.826C87.7651 480.06 96.496 493.141 108.521 499.384C104.08 512.655 102.346 526.782 103.434 540.822C101.312 524.413 84.7739 520.431 73.2147 513.909C72.479 513.406 71.6219 513.142 70.7479 513.15C69.8739 513.157 69.0209 513.436 68.2928 513.951C67.5648 514.466 66.9932 515.195 66.6478 516.05C66.3024 516.905 66.1981 517.849 66.3477 518.766C67.9431 519.457 69.4701 520.315 70.9063 521.328C71.5792 521.81 72.0958 522.501 72.3851 523.308C72.6744 524.115 72.7224 524.998 72.5224 525.835C72.3224 526.672 71.8842 527.422 71.268 527.984C70.6517 528.545 69.8876 528.89 69.0802 528.97C74.9068 544.33 89.9709 554.644 105.443 554.586C106.93 561.467 109.084 568.166 111.871 574.573H134.834C134.916 574.301 134.99 574.021 135.064 573.749C132.939 573.891 130.805 573.756 128.71 573.346C134.334 566.254 138.683 562.636 135.41 552.736L135.409 552.735Z" fill="#0FDC0F"/>
<path d="M340.133 552.735C340.725 552.764 341.312 552.599 341.813 552.261C342.314 551.923 342.705 551.429 342.934 550.847C343.163 550.264 343.218 549.621 343.092 549.004C342.966 548.387 342.664 547.826 342.229 547.397C342.156 547.088 342.104 546.867 342.031 546.558C342.598 545.024 343.582 543.706 344.857 542.771C346.132 541.837 347.639 541.33 349.187 541.314C350.734 541.299 352.251 541.776 353.542 542.684C354.833 543.593 355.841 544.891 356.434 546.413C359.862 554.958 364.297 563.803 362.092 573.214C376.663 540.322 371.707 499.408 350.173 471.279C344.221 467.786 339.397 461.582 338.141 454.377C341.086 455.44 344.759 452.888 342.544 449.583C341.584 448.32 340.615 447.067 339.655 445.804C350.845 433.11 364.178 453.06 351.861 470.192C355.89 475.572 359.38 481.387 362.274 487.541C361.606 481.006 362.404 474.396 364.602 468.254C366.83 462.53 371.005 457.71 374.682 452.761C379.153 446.732 388.354 449.513 388.956 457.165C384.83 458.609 384.294 464.957 389.014 465.826C387.777 480.06 379.047 493.141 367.022 499.384C371.462 512.655 373.196 526.782 372.108 540.822C374.231 524.413 390.769 520.431 402.328 513.909C403.064 513.406 403.921 513.142 404.795 513.15C405.669 513.157 406.522 513.436 407.25 513.951C407.978 514.466 408.549 515.195 408.895 516.05C409.24 516.905 409.344 517.849 409.195 518.766C407.599 519.457 406.072 520.315 404.636 521.328C403.963 521.81 403.447 522.501 403.157 523.308C402.868 524.115 402.82 524.998 403.02 525.835C403.22 526.672 403.658 527.422 404.275 527.984C404.891 528.545 405.655 528.89 406.462 528.97C400.636 544.33 385.572 554.644 370.1 554.586C368.613 561.467 366.459 568.166 363.672 574.573H340.709C340.626 574.301 340.552 574.021 340.478 573.749C342.604 573.891 344.738 573.756 346.832 573.346C341.209 566.254 336.86 562.636 340.133 552.735Z" fill="#0FDC0F"/>
<path d="M348.647 556.368L338.758 558.763L325.373 519.276L339.969 515.739L348.647 556.368Z" fill="#FFB6B6"/>
<path d="M351.344 567.271L320.933 574.64L320.845 574.231C320.131 570.887 320.693 567.378 322.408 564.476C324.123 561.574 326.849 559.516 329.988 558.755L334.585 552.919L345.908 554.897L348.563 554.253L351.344 567.271Z" fill="#2F2E41"/>
<path d="M508.176 363.893L513.612 373.011L483.177 399.688L475.152 386.228L508.176 363.893Z" fill="#FFB6B6"/>
<path d="M516.917 357.53L533.636 385.571L533.303 385.797C530.585 387.635 527.293 388.248 524.151 387.501C521.009 386.754 518.274 384.709 516.548 381.814L509.845 379.159L507.795 367.134L506.336 364.686L516.917 357.53Z" fill="#2F2E41"/>
<path d="M192.942 266.4L190.5 251.321L227.634 233.461L235.653 218.339C235.394 217.012 235.485 215.634 235.914 214.359C236.344 213.083 237.097 211.959 238.089 211.11C239.081 210.261 240.274 209.721 241.537 209.549C242.799 209.377 244.081 209.58 245.242 210.136C246.403 210.692 247.396 211.578 248.114 212.698C248.831 213.817 249.244 215.126 249.307 216.48C249.37 217.833 249.08 219.179 248.47 220.369C247.859 221.558 246.952 222.545 245.849 223.219L232.657 244.942L192.942 266.4Z" fill="#A0616A"/>
<path d="M181.656 254.074L198.379 244.976L202.805 262.679L191.19 271.85L181.656 254.074Z" fill="#2C89CB"/>
<path d="M144.131 554.996L154.242 554.995L159.052 513.456L144.129 513.457L144.131 554.996Z" fill="#A0616A"/>
<path d="M157.607 555.965V548.665L154.949 548.838L144.129 549.52L141.624 549.684L139.71 574.136L139.607 575.447H146.787L147.018 574.145L148.06 568.228L150.753 574.145L151.342 575.447H170.376C171.509 575.439 172.593 574.956 173.393 574.102C174.193 573.248 174.645 572.092 174.65 570.886C175.453 566.889 159.624 558.25 157.607 555.965Z" fill="#2F2E41"/>
<path d="M24.109 390.145L21.752 400.618L58.5557 415.285L62.034 399.828L24.109 390.145Z" fill="#A0616A"/>
<path d="M20.8837 403.876L27.5494 405.579L28.0112 402.785L29.9108 391.419L30.3451 388.787L8.46713 381.103L7.29419 380.691L5.62023 388.127L6.75495 388.67L11.9142 391.129L5.88409 392.538L4.55806 392.845L0.120101 412.56C-0.137016 413.735 0.0514 414.97 0.644471 415.998C1.23754 417.026 2.18736 417.763 3.28767 418.049C6.74904 419.813 18.3272 405.433 20.8837 403.876Z" fill="#2F2E41"/>
<path d="M159.764 286.158L146.75 279.678L120.796 313.131L104.987 317.39C103.854 316.774 102.582 316.505 101.314 316.611C100.045 316.716 98.8285 317.194 97.7985 317.99C96.7685 318.786 95.9651 319.869 95.4771 321.121C94.989 322.373 94.8353 323.744 95.033 325.083C95.2306 326.422 95.7719 327.676 96.597 328.708C97.4221 329.74 98.4989 330.509 99.7085 330.93C100.918 331.351 102.213 331.408 103.451 331.094C104.689 330.78 105.822 330.108 106.723 329.151L129.872 321.316L159.764 286.158Z" fill="#A0616A"/>
<path d="M344.276 162.318C341.518 162.318 338.821 161.447 336.527 159.815C334.233 158.182 332.446 155.862 331.39 153.147C330.334 150.433 330.058 147.446 330.596 144.564C331.134 141.682 332.463 139.035 334.413 136.957C336.364 134.88 338.849 133.465 341.555 132.891C344.261 132.318 347.065 132.612 349.614 133.737C352.163 134.861 354.341 136.765 355.874 139.209C357.406 141.652 358.224 144.524 358.224 147.462C358.22 151.401 356.749 155.177 354.135 157.962C351.52 160.747 347.974 162.314 344.276 162.318ZM344.276 134.311C341.834 134.311 339.447 135.082 337.416 136.527C335.386 137.972 333.803 140.026 332.869 142.429C331.934 144.832 331.69 147.477 332.166 150.028C332.642 152.579 333.818 154.922 335.545 156.762C337.272 158.601 339.472 159.853 341.867 160.361C344.263 160.868 346.745 160.608 349.001 159.612C351.258 158.617 353.186 156.931 354.543 154.769C355.9 152.606 356.624 150.063 356.624 147.462C356.62 143.975 355.318 140.633 353.003 138.167C350.688 135.702 347.55 134.315 344.276 134.311Z" fill="#F9A826"/>
<path d="M343.292 153.059C343.264 153.059 343.235 153.058 343.207 153.056C342.96 153.044 342.718 152.974 342.498 152.852C342.278 152.731 342.085 152.56 341.933 152.351L339.736 149.342C339.597 149.153 339.495 148.935 339.435 148.703C339.375 148.471 339.358 148.229 339.386 147.99C339.414 147.751 339.486 147.521 339.598 147.312C339.71 147.103 339.859 146.919 340.037 146.771L340.116 146.706C340.295 146.558 340.498 146.449 340.716 146.385C340.934 146.321 341.162 146.303 341.386 146.333C341.61 146.363 341.827 146.44 342.023 146.559C342.22 146.678 342.392 146.837 342.531 147.027C342.642 147.179 342.782 147.303 342.943 147.392C343.103 147.48 343.279 147.531 343.46 147.541C343.64 147.55 343.82 147.518 343.988 147.446C344.156 147.374 344.307 147.265 344.431 147.125L348.892 142.109C349.206 141.757 349.639 141.551 350.095 141.538C350.55 141.525 350.993 141.705 351.324 142.039L351.397 142.113C351.561 142.278 351.693 142.477 351.785 142.696C351.877 142.916 351.928 143.153 351.934 143.394C351.94 143.634 351.902 143.874 351.821 144.098C351.74 144.323 351.619 144.529 351.463 144.703L344.54 152.487C344.379 152.667 344.186 152.811 343.971 152.91C343.756 153.008 343.525 153.059 343.292 153.059Z" fill="#F9A826"/>
<path d="M274.645 342.185C271.887 342.185 269.19 341.313 266.896 339.681C264.602 338.048 262.815 335.728 261.759 333.014C260.703 330.299 260.427 327.312 260.965 324.43C261.503 321.548 262.832 318.901 264.783 316.823C266.733 314.746 269.219 313.331 271.924 312.758C274.63 312.184 277.434 312.479 279.983 313.603C282.532 314.727 284.71 316.632 286.243 319.075C287.776 321.518 288.594 324.39 288.594 327.328C288.589 331.267 287.119 335.043 284.504 337.828C281.889 340.614 278.343 342.18 274.645 342.185ZM274.645 314.177C272.203 314.177 269.816 314.948 267.786 316.393C265.755 317.839 264.172 319.893 263.238 322.296C262.303 324.699 262.059 327.343 262.535 329.894C263.012 332.445 264.188 334.789 265.914 336.628C267.641 338.467 269.841 339.72 272.237 340.227C274.632 340.734 277.114 340.474 279.371 339.479C281.627 338.483 283.555 336.798 284.912 334.635C286.269 332.472 286.993 329.929 286.993 327.328C286.989 323.842 285.687 320.499 283.372 318.033C281.057 315.568 277.919 314.181 274.645 314.177Z" fill="#F9A826"/>
<path d="M273.661 332.925C273.633 332.925 273.605 332.924 273.577 332.923C273.329 332.91 273.087 332.84 272.867 332.719C272.647 332.597 272.454 332.426 272.302 332.217L270.105 329.209C269.966 329.019 269.864 328.802 269.804 328.57C269.744 328.338 269.727 328.095 269.755 327.856C269.783 327.618 269.855 327.387 269.967 327.178C270.079 326.969 270.228 326.785 270.406 326.637L270.485 326.572C270.664 326.424 270.868 326.315 271.086 326.251C271.303 326.187 271.531 326.17 271.755 326.199C271.979 326.229 272.196 326.306 272.392 326.425C272.589 326.544 272.761 326.703 272.9 326.893C273.011 327.045 273.151 327.169 273.312 327.258C273.472 327.347 273.648 327.397 273.829 327.407C274.009 327.416 274.189 327.384 274.357 327.312C274.525 327.241 274.676 327.131 274.8 326.992L279.261 321.975C279.575 321.623 280.008 321.418 280.464 321.404C280.92 321.391 281.362 321.571 281.693 321.905L281.767 321.979C281.931 322.145 282.062 322.343 282.155 322.563C282.247 322.782 282.297 323.019 282.303 323.26C282.309 323.5 282.271 323.74 282.19 323.965C282.109 324.189 281.988 324.395 281.832 324.569L274.909 332.353C274.748 332.534 274.555 332.678 274.34 332.776C274.126 332.874 273.894 332.925 273.661 332.925Z" fill="#F9A826"/>
<path d="M121.78 141.86C119.022 141.86 116.325 140.989 114.031 139.356C111.737 137.724 109.949 135.404 108.894 132.689C107.838 129.974 107.562 126.987 108.1 124.105C108.638 121.224 109.967 118.576 111.917 116.499C113.868 114.421 116.353 113.006 119.059 112.433C121.765 111.86 124.569 112.154 127.118 113.278C129.667 114.403 131.845 116.307 133.378 118.75C134.91 121.193 135.728 124.065 135.728 127.004C135.724 130.942 134.253 134.719 131.638 137.504C129.024 140.289 125.478 141.856 121.78 141.86ZM121.78 113.852C119.338 113.852 116.951 114.624 114.92 116.069C112.89 117.514 111.307 119.568 110.373 121.971C109.438 124.374 109.194 127.018 109.67 129.569C110.146 132.121 111.322 134.464 113.049 136.303C114.776 138.142 116.976 139.395 119.371 139.902C121.766 140.41 124.249 140.149 126.505 139.154C128.762 138.159 130.69 136.473 132.047 134.31C133.404 132.147 134.128 129.605 134.128 127.004C134.124 123.517 132.822 120.174 130.507 117.709C128.192 115.243 125.054 113.856 121.78 113.852Z" fill="#F9A826"/>
<path d="M120.795 132.6C120.767 132.6 120.739 132.599 120.711 132.598C120.464 132.585 120.222 132.516 120.002 132.394C119.782 132.272 119.589 132.101 119.437 131.893L117.24 128.884C117.101 128.694 116.999 128.477 116.939 128.245C116.879 128.013 116.862 127.771 116.89 127.532C116.918 127.293 116.99 127.062 117.102 126.853C117.213 126.644 117.363 126.46 117.541 126.313L117.62 126.247C117.798 126.099 118.002 125.99 118.22 125.926C118.438 125.862 118.666 125.845 118.89 125.875C119.114 125.905 119.331 125.981 119.527 126.1C119.724 126.219 119.896 126.378 120.035 126.568C120.146 126.72 120.286 126.845 120.446 126.933C120.607 127.022 120.783 127.073 120.964 127.082C121.144 127.091 121.324 127.059 121.492 126.988C121.659 126.916 121.811 126.807 121.935 126.667L126.396 121.651C126.71 121.298 127.143 121.093 127.598 121.08C128.054 121.067 128.497 121.247 128.828 121.58L128.901 121.654C129.065 121.82 129.197 122.018 129.289 122.238C129.381 122.458 129.432 122.695 129.438 122.935C129.444 123.176 129.406 123.415 129.325 123.64C129.244 123.864 129.122 124.07 128.967 124.245L122.044 132.028C121.883 132.209 121.69 132.353 121.475 132.451C121.26 132.55 121.029 132.6 120.795 132.6Z" fill="#F9A826"/>
<path d="M233.448 397.422C201.104 397.422 163.932 359.193 131.045 377.356C31.4703 432.351 45.1773 340.326 16.5703 306.101L17.5095 304.095C49.074 334.24 88.4833 358.767 131.477 375.022C170.33 389.714 209.475 396.521 244.664 394.725L244.725 397.136C241.009 397.327 237.25 397.422 233.448 397.422Z" fill="#E42C2C"/>
<path d="M189.081 138.952C192.815 138.952 195.842 134.629 195.842 129.296C195.842 123.963 192.815 119.64 189.081 119.64C185.347 119.64 182.32 123.963 182.32 129.296C182.32 134.629 185.347 138.952 189.081 138.952Z" fill="#6C63FF"/>
<path d="M189.081 138.952C192.815 138.952 195.842 134.629 195.842 129.296C195.842 123.963 192.815 119.64 189.081 119.64C185.347 119.64 182.32 123.963 182.32 129.296C182.32 134.629 185.347 138.952 189.081 138.952Z" fill="#FDE73A"/>
<path d="M267.168 289.588C264.077 291.781 260.913 286.56 264.063 284.464C267.154 282.271 270.318 287.492 267.168 289.588Z" fill="#FDE73A"/>
<path d="M249.376 113.827C254.238 113.827 258.18 109.629 258.18 104.45C258.18 99.2714 254.238 95.0732 249.376 95.0732C244.514 95.0732 240.572 99.2714 240.572 104.45C240.572 109.629 244.514 113.827 249.376 113.827Z" fill="#E42C2C"/>
<path opacity="0.3" d="M259.909 176.635L310.005 20.7998L254.997 174.769C254.724 175.135 254.538 175.564 254.453 176.022C254.368 176.479 254.386 176.952 254.507 177.4C254.627 177.848 254.847 178.26 255.146 178.6C255.446 178.94 255.817 179.199 256.23 179.356C256.642 179.512 257.084 179.562 257.518 179.5C257.952 179.439 258.366 179.268 258.726 179.002C259.085 178.736 259.38 178.383 259.586 177.971C259.792 177.559 259.903 177.101 259.909 176.635Z" fill="white"/>
<path d="M146.645 340.044C146.645 340.044 125.291 354.854 130.938 364.695C131.132 365.035 105.431 401.19 105.431 401.19L56.9125 397.909L55.2031 415.205L98.3975 428.53C98.3975 428.53 108.965 436.799 117.128 427.688C125.291 418.578 152.482 390.679 152.482 390.679L153.794 447.006L140.144 525.058L160.525 523.682L180.362 445.376L187.684 356.675L146.645 340.044Z" fill="#2F2E41"/>
<path d="M161.855 251.161L152.876 258.409L142.641 281.675L152.482 295.912C152.482 295.912 160.761 311.193 147.51 325.993C134.259 340.792 124.083 356.598 134.69 356.034C145.296 355.469 188.252 378.74 188.535 359.675C188.818 340.61 189.39 325.993 189.39 325.993L200.652 295.568C200.652 295.568 207.362 277.418 202.651 271.985C197.94 266.552 191.633 259.609 191.633 259.609L180.162 247.392H169.805L161.855 251.161Z" fill="#2C89CB"/>
<path d="M178.617 206.457C198.762 218.667 182.224 250.882 161.704 239.41C141.559 227.201 158.097 194.986 178.617 206.457Z" fill="#A0616A"/>
<path d="M189.389 213.227C187.978 215.182 185.029 214.265 179.253 215.661C179.266 213.576 179.04 211.497 178.58 209.47C178.15 211.98 177.209 214.358 175.822 216.437C170.807 217.029 176.954 233.256 174.387 245.186C171.078 220.017 164.12 226.611 167.635 231.603C169.886 234.799 168.386 244.387 161.634 239.593C150.495 245.232 134.63 217.222 152.214 204.086C151.899 196.985 159.317 195.863 163.885 198.047C174.97 189.251 187.635 200.521 189.389 213.227Z" fill="#2F2E41"/>
<path d="M137.701 194.862C133.216 224.233 109.176 189.461 97.8733 218.364C94.3194 228.831 100.417 236.319 104.274 245.008C105.154 252.148 96.4332 255.77 95.5197 262.343C95.2654 277.411 118.089 276.489 124.47 266.982C131.026 257.03 123.197 243.678 127.138 232.996C132.676 218.166 155.201 218.056 157.163 200.802C153.363 195.038 143.144 188.436 137.701 194.862Z" fill="#2F2E41"/>
<path d="M155.87 197.732C155.723 197.798 155.576 197.864 155.445 197.938H155.437C155.314 198.003 155.19 198.069 155.067 198.143C155.051 198.151 155.044 198.16 155.028 198.168C154.866 198.003 154.704 197.839 154.534 197.674C154.49 197.942 154.501 198.217 154.565 198.48L154.588 198.579C154.742 198.752 154.905 198.916 155.075 199.089C155.229 198.966 155.376 198.834 155.53 198.711C155.623 198.629 155.716 198.546 155.816 198.464C155.831 198.25 155.854 198.003 155.878 197.732L155.87 197.732ZM160.519 188.586C157.075 187.747 155.963 192.542 155.63 194.853C154.379 186.464 149.175 189.104 150.974 194.828C151.547 196.523 152.45 198.07 153.623 199.369C153.785 199.566 153.962 199.764 154.148 199.961C153.939 201.112 154.99 200.816 156.41 199.755C157.46 198.961 158.43 198.054 159.306 197.049C162.14 193.883 164.349 189.647 160.519 188.586ZM160.627 193.307C159.564 194.766 158.372 196.113 157.067 197.329C156.658 197.724 156.241 198.102 155.816 198.464C155.808 198.538 155.808 198.604 155.8 198.661C155.771 198.741 155.734 198.818 155.692 198.892C155.26 199.722 154.773 199.27 154.588 198.579C154.573 198.554 154.549 198.53 154.534 198.505C153.917 197.826 153.38 197.069 152.935 196.251C149.746 190.362 154.881 186.357 154.627 197.354C154.58 197.454 154.548 197.563 154.534 197.674C154.49 197.942 154.501 198.217 154.565 198.48L154.588 198.579C154.742 198.752 154.905 198.916 155.075 199.089C155.229 198.966 155.376 198.834 155.53 198.711C155.623 198.629 155.716 198.546 155.816 198.464C155.831 198.25 155.854 198.003 155.878 197.732V197.724C156.078 195.519 156.627 191.555 157.638 190.477C159.862 188.66 162.743 190.625 160.627 193.307ZM155.87 197.732C155.723 197.798 155.576 197.864 155.445 197.938H155.437C155.314 198.003 155.19 198.069 155.067 198.143C155.051 198.151 155.044 198.16 155.028 198.168C154.866 198.003 154.704 197.839 154.534 197.674C154.49 197.942 154.501 198.217 154.565 198.48L154.588 198.579C154.742 198.752 154.905 198.916 155.075 199.089C155.229 198.966 155.376 198.834 155.53 198.711C155.623 198.629 155.716 198.546 155.816 198.464C155.831 198.25 155.854 198.003 155.878 197.732L155.87 197.732Z" fill="#2F2E41"/>
<path d="M342.064 359.663L334.624 380.329L299.723 453.657L330.391 538.959L346.218 534.508L333.173 453.657L370.6 405.221L415.048 437.329C415.048 437.329 434.76 453.721 442.259 438.182C449.759 422.643 498.283 389.592 498.283 389.592L486.278 375.953L430.399 403.806L391.831 345.986L342.064 359.663Z" fill="#2F2E41"/>
<path d="M379.606 262.181L367.359 248.166L346.35 245.088L320.607 264.282L320.867 285.528L333.592 335.591C333.592 335.591 328.745 371.56 342.284 371.199C355.822 370.838 363.202 363.649 368.716 365.112C374.23 366.576 397.671 372.804 399.156 366.28C400.642 359.756 408.538 364.428 408.191 358.256C407.845 352.084 386.815 307.598 386.815 307.598L392.044 263.107L379.606 262.181Z" fill="#2C89CB"/>
<path d="M457.152 197.668C457.262 198.83 457.131 200.004 456.768 201.106C456.406 202.209 455.821 203.213 455.055 204.049C454.288 204.885 453.359 205.531 452.333 205.943C451.307 206.355 450.208 206.522 449.115 206.433L420.95 263.485L413.389 251.121L442.177 197.277C442.439 195.33 443.363 193.554 444.773 192.284C446.183 191.014 447.981 190.339 449.827 190.388C451.673 190.436 453.438 191.204 454.788 192.545C456.138 193.887 456.979 195.71 457.152 197.668Z" fill="#FFB6B6"/>
<path d="M368.486 272.79C368.486 272.79 367.369 282.938 378.096 285.45C388.822 287.963 418.539 269.877 423.411 267.115C424.936 266.25 427.006 262.01 429.13 256.593C430.084 254.162 431.048 251.493 431.979 248.786C432.518 247.22 435.097 246.792 435.605 245.239C436.11 243.694 434.543 241.022 435 239.566C437.17 232.655 438.707 227.172 438.707 227.172L431.598 212.948C421.655 218.547 416.556 230.879 412.805 245.087L368.486 272.79Z" fill="#2C89CB"/>
<path d="M243.217 210.769C243.384 211.924 243.786 213.025 244.396 213.996C245.006 214.967 245.808 215.783 246.747 216.388C247.685 216.993 248.736 217.371 249.827 217.497C250.917 217.622 252.02 217.491 253.058 217.113L293.731 264.842L298.147 250.856L257.624 206.399C256.912 204.584 255.6 203.11 253.937 202.257C252.273 201.403 250.374 201.229 248.598 201.768C246.822 202.307 245.293 203.521 244.301 205.18C243.31 206.839 242.924 208.827 243.217 210.769Z" fill="#FFB6B6"/>
<path d="M346.713 259.867C346.713 259.867 350.179 269.394 340.384 274.686C330.589 279.977 297.569 270.388 292.203 269.012C290.523 268.581 287.522 265.028 284.193 260.35C282.699 258.25 281.138 255.924 279.601 253.551C278.711 252.178 276.113 252.452 275.257 251.083C274.405 249.722 275.294 246.718 274.509 245.43C270.785 239.317 268.008 234.418 268.008 234.418L271.549 218.752C282.491 221.522 290.326 232.103 297.295 244.858L346.713 259.867Z" fill="#2C89CB"/>
<path d="M357.273 241.523C368.312 241.523 377.262 231.991 377.262 220.232C377.262 208.474 368.312 198.941 357.273 198.941C346.233 198.941 337.283 208.474 337.283 220.232C337.283 231.991 346.233 241.523 357.273 241.523Z" fill="#FFB6B6"/>
<path d="M380.093 208.042C377.99 204.577 374.044 202.268 370.219 202.917C369.863 200.316 368.844 197.87 367.273 195.844C365.702 193.818 363.639 192.29 361.309 191.426C358.979 190.562 356.472 190.396 354.059 190.945C351.647 191.494 349.422 192.737 347.627 194.54C347.036 194.097 346.349 193.825 345.631 193.748C344.912 193.671 344.187 193.794 343.527 194.103C342.21 194.741 341.065 195.72 340.195 196.951C338 199.866 336.589 203.361 336.111 207.063C335.633 210.766 336.106 214.537 337.48 217.975C337.013 216.165 338.716 214.462 340.437 214.056C342.158 213.649 343.963 214.034 345.708 213.769C347.944 213.43 349.955 212.048 352.195 211.737C354.095 211.606 356 211.867 357.807 212.505C359.613 213.144 361.516 213.416 363.417 213.308C365.302 213.069 367.731 220.68 367.698 226.04C367.692 227.056 367.888 228.36 368.82 228.575C369.968 228.841 370.633 227.153 371.726 226.694C372.229 226.54 372.769 226.6 373.231 226.862C373.694 227.124 374.043 227.567 374.205 228.098C374.342 228.637 374.357 229.204 374.248 229.75C374.138 230.297 373.908 230.808 373.576 231.241C372.904 232.098 372.107 232.835 371.215 233.422L371.665 233.821C372.092 234.301 372.663 234.609 373.279 234.69C373.896 234.772 374.52 234.622 375.044 234.268C376.076 233.524 376.911 232.51 377.471 231.325C379.58 227.852 381.087 224.005 381.922 219.965C382.626 215.909 382.195 211.506 380.093 208.042Z" fill="#2F2E41"/>
<path d="M527.971 292.013C502.188 312.813 450.885 306.242 434.965 341.87C386.762 449.743 345.523 367.57 303.318 358.684L302.93 356.48C345.18 360.213 390.499 354.422 433.987 339.732C473.287 326.458 508.35 306.712 535.384 282.65L536.799 284.534C533.945 287.076 531.002 289.569 527.971 292.013Z" fill="#E42C2C"/>
<path d="M418.962 574.546C418.348 576.484 67.7387 576.483 67.0762 574.551C67.6895 572.609 418.299 572.609 418.962 574.546Z" fill="#CCCCCC"/>
</g>
<defs>
<filter id="filter0_i_653_172" x="0" y="0" width="536.801" height="576" filterUnits="userSpaceOnUse" color-interpolation-filters="sRGB">
<feFlood flood-opacity="0" result="BackgroundImageFix"/>
<feBlend mode="normal" in="SourceGraphic" in2="BackgroundImageFix" result="shape"/>
<feColorMatrix in="SourceAlpha" type="matrix" values="0 0 0 0 0 0 0 0 0 0 0 0 0 0 0 0 0 0 127 0" result="hardAlpha"/>
<feOffset/>
<feGaussianBlur stdDeviation="16"/>
<feComposite in2="hardAlpha" operator="arithmetic" k2="-1" k3="1"/>
<feColorMatrix type="matrix" values="0 0 0 0 1 0 0 0 0 1 0 0 0 0 1 0 0 0 0.25 0"/>
<feBlend mode="normal" in2="shape" result="effect1_innerShadow_653_172"/>
</filter>
<clipPath id="clip0_653_172">
<rect width="536.8" height="576" fill="white"/>
</clipPath>
</defs>
</svg>
