<svg width="150" height="100" viewBox="0 0 150 100" fill="none" xmlns="http://www.w3.org/2000/svg">
<g clip-path="url(#clip0_1_47)">
<mask id="path-1-inside-1_1_47" fill="white">
<path d="M0 0H50V50H0V0Z"/>
</mask>
<path d="M0 0H50V50H0V0Z" fill="black"/>
<path d="M5.638 27.148H26.26V29.794H5.638V27.148ZM5.89 12.49H26.134V15.052H5.89V12.49ZM13.45 23.536L16.39 24.166C14.5 28.282 11.854 33.406 9.922 36.724L7.15 35.758C9.04 32.566 11.686 27.4 13.45 23.536ZM19.75 28.702L22.69 29.08C21.262 37.27 16.852 41.302 7.15 43.36C6.94 42.52 6.31 41.386 5.722 40.756C14.5 39.286 18.448 35.842 19.75 28.702ZM22.396 5.56L25.084 6.736C23.866 8.668 22.48 10.768 21.304 12.196L19.204 11.146C20.254 9.634 21.64 7.198 22.396 5.56ZM14.584 4.72H17.482V24.04H14.584V4.72ZM7.444 6.736L9.838 5.728C11.014 7.408 12.148 9.634 12.568 11.146L10.09 12.28C9.712 10.768 8.62 8.458 7.444 6.736ZM14.626 13.624L16.768 14.884C14.71 18.412 10.762 22.15 7.15 24.124C6.772 23.41 6.016 22.36 5.428 21.73C8.914 20.218 12.778 16.858 14.626 13.624ZM17.146 15.094C18.658 15.892 23.782 19.126 25 20.008L23.278 22.318C21.766 20.89 17.398 17.614 15.634 16.438L17.146 15.094ZM29.326 12.49H44.278V15.43H29.326V12.49ZM30.376 4.72L33.568 5.182C32.182 13.414 29.704 20.932 26.008 25.846C25.504 25.258 24.202 24.208 23.446 23.704C27.016 19.252 29.2 12.154 30.376 4.72ZM38.65 14.17L41.842 14.506C39.826 28.996 35.374 38.026 24.79 43.486C24.454 42.73 23.53 41.344 22.9 40.672C32.896 35.968 36.928 27.484 38.65 14.17ZM31.006 15.094C32.854 26.644 36.886 36.556 44.698 40.672C43.942 41.302 42.934 42.52 42.472 43.36C34.24 38.53 30.25 28.282 28.15 15.556L31.006 15.094ZM9.67 35.17L11.35 33.028C16.39 34.96 21.598 37.732 24.622 40.042L22.438 42.31C19.54 39.958 14.542 37.144 9.67 35.17Z" fill="white"/>
</g>
<path d="M0 0V-1H-1V0H0ZM50 0H51V-1H50V0ZM0 1H50V-1H0V1ZM49 0V50H51V0H49ZM1 50V0H-1V50H1Z" fill="black" mask="url(#path-1-inside-1_1_47)"/>
<rect x="0.5" y="50.5" width="49" height="49" fill="white"/>
<rect x="0.5" y="50.5" width="49" height="49" stroke="black"/>
<path d="M24.7664 59.3251C26.0076 59.335 27.2488 59.5714 28.49 60.0344C29.7312 60.4973 30.864 61.2657 31.8884 62.3394C32.9129 63.4033 33.7354 64.8562 34.356 66.6983C34.9766 68.5404 35.2869 70.8504 35.2869 73.6282C35.2869 76.3175 35.0308 78.7062 34.5186 80.7946C34.0162 82.8731 33.2872 84.6265 32.3317 86.0548C31.3861 87.4832 30.2335 88.5667 28.8741 89.3055C27.5246 90.0443 25.9978 90.4137 24.2936 90.4137C22.5993 90.4137 21.0872 90.0788 19.7574 89.409C18.4374 88.7293 17.3538 87.7885 16.5067 86.5868C15.6694 85.3751 15.1325 83.9714 14.8961 82.3756H18.5014C18.8265 83.7645 19.4717 84.9121 20.4371 85.8184C21.4123 86.7148 22.6978 87.163 24.2936 87.163C26.6282 87.163 28.4703 86.1435 29.8198 84.1044C31.1792 82.0653 31.8589 79.184 31.8589 75.4605H31.6225C31.0708 76.2879 30.4158 77.0021 29.6573 77.603C28.8988 78.2039 28.0565 78.6668 27.1306 78.9919C26.2046 79.317 25.2196 79.4795 24.1754 79.4795C22.4417 79.4795 20.8508 79.051 19.4028 78.194C17.9646 77.3272 16.812 76.1401 15.9452 74.633C15.0882 73.116 14.6597 71.3823 14.6597 69.4319C14.6597 67.5799 15.0734 65.8856 15.9009 64.3489C16.7382 62.8024 17.9104 61.5711 19.4175 60.6549C20.9345 59.7388 22.7175 59.2956 24.7664 59.3251ZM24.7664 62.5758C23.5252 62.5758 22.4072 62.8861 21.4123 63.5067C20.4272 64.1174 19.6441 64.9449 19.0629 65.9891C18.4916 67.0234 18.2059 68.171 18.2059 69.4319C18.2059 70.6927 18.4817 71.8403 19.0334 72.8747C19.5948 73.8991 20.3583 74.7167 21.3236 75.3275C22.2988 75.9284 23.407 76.2288 24.6482 76.2288C25.584 76.2288 26.4558 76.0466 27.2636 75.6821C28.0713 75.3078 28.7756 74.8005 29.3765 74.1602C29.9873 73.51 30.465 72.7762 30.8098 71.9586C31.1546 71.1311 31.327 70.2692 31.327 69.3728C31.327 68.1907 31.0413 67.0825 30.4699 66.0482C29.9085 65.0139 29.1303 64.1765 28.1353 63.5363C27.1503 62.896 26.0273 62.5758 24.7664 62.5758Z" fill="black"/>
<g clip-path="url(#clip1_1_47)">
<mask id="path-6-inside-2_1_47" fill="white">
<path d="M50 0H100V50H50V0Z"/>
</mask>
<path d="M50 0H100V50H50V0Z" fill="black"/>
<mask id="path-8-outside-3_1_47" maskUnits="userSpaceOnUse" x="56" y="8" width="38" height="35" fill="black">
<rect fill="white" x="56" y="8" width="38" height="35"/>
<path d="M77.646 11.356C77.1 15.724 76.26 20.638 74.958 25.132C72.396 33.742 69.036 38.194 65.172 38.194C61.392 38.194 57.654 33.91 57.654 26.938C57.654 17.824 65.76 9.886 76.05 9.886C85.878 9.886 92.136 16.816 92.136 25.342C92.136 34.12 86.34 40 76.344 41.302L74.412 38.194C75.756 38.068 77.016 37.9 78.024 37.69C83.4 36.472 88.692 32.44 88.692 25.174C88.692 18.454 84.03 12.91 75.966 12.91C66.726 12.91 60.972 20.512 60.972 26.686C60.972 31.978 63.366 34.33 65.256 34.33C67.23 34.33 69.498 31.474 71.64 24.376C72.858 20.386 73.74 15.64 74.16 11.272L77.646 11.356Z"/>
</mask>
<path d="M77.646 11.356C77.1 15.724 76.26 20.638 74.958 25.132C72.396 33.742 69.036 38.194 65.172 38.194C61.392 38.194 57.654 33.91 57.654 26.938C57.654 17.824 65.76 9.886 76.05 9.886C85.878 9.886 92.136 16.816 92.136 25.342C92.136 34.12 86.34 40 76.344 41.302L74.412 38.194C75.756 38.068 77.016 37.9 78.024 37.69C83.4 36.472 88.692 32.44 88.692 25.174C88.692 18.454 84.03 12.91 75.966 12.91C66.726 12.91 60.972 20.512 60.972 26.686C60.972 31.978 63.366 34.33 65.256 34.33C67.23 34.33 69.498 31.474 71.64 24.376C72.858 20.386 73.74 15.64 74.16 11.272L77.646 11.356Z" fill="white"/>
<path d="M77.646 11.356L78.6383 11.48L78.7754 10.3829L77.6701 10.3563L77.646 11.356ZM74.958 25.132L75.9165 25.4172L75.9185 25.4103L74.958 25.132ZM76.344 41.302L75.4947 41.8299L75.8347 42.3768L76.4732 42.2936L76.344 41.302ZM74.412 38.194L74.3187 37.1984L72.7094 37.3492L73.5627 38.7219L74.412 38.194ZM78.024 37.69L78.228 38.669L78.2365 38.6672L78.245 38.6653L78.024 37.69ZM71.64 24.376L70.6836 24.084L70.6826 24.0871L71.64 24.376ZM74.16 11.272L74.1841 10.2723L73.2537 10.2499L73.1646 11.1763L74.16 11.272ZM76.6537 11.232C76.1112 15.5722 75.2793 20.4293 73.9975 24.8537L75.9185 25.4103C77.2407 20.8467 78.0888 15.8758 78.6383 11.48L76.6537 11.232ZM73.9995 24.8468C72.7341 29.0994 71.2953 32.2373 69.7535 34.2914C68.2141 36.3423 66.6706 37.194 65.172 37.194V39.194C67.5374 39.194 69.6059 37.8197 71.353 35.4921C73.0977 33.1677 74.6199 29.7746 75.9165 25.4172L73.9995 24.8468ZM65.172 37.194C63.6775 37.194 62.073 36.344 60.8054 34.5939C59.542 32.8497 58.654 30.2503 58.654 26.938H56.654C56.654 30.5977 57.635 33.6263 59.1856 35.7671C60.732 37.902 62.8865 39.194 65.172 39.194V37.194ZM58.654 26.938C58.654 18.4308 66.2561 10.886 76.05 10.886V8.886C65.2639 8.886 56.654 17.2172 56.654 26.938H58.654ZM76.05 10.886C85.3239 10.886 91.136 17.3665 91.136 25.342H93.136C93.136 16.2655 86.4321 8.886 76.05 8.886V10.886ZM91.136 25.342C91.136 29.4977 89.7708 32.8999 87.2773 35.4225C84.7725 37.9565 81.0511 39.6804 76.2148 40.3104L76.4732 42.2936C81.6329 41.6216 85.8075 39.7545 88.6997 36.8285C91.6032 33.8911 93.136 29.9643 93.136 25.342H91.136ZM77.1933 40.7741L75.2613 37.6661L73.5627 38.7219L75.4947 41.8299L77.1933 40.7741ZM74.5053 39.1896C75.8682 39.0619 77.169 38.8896 78.228 38.669L77.82 36.711C76.863 36.9104 75.6438 37.0741 74.3187 37.1984L74.5053 39.1896ZM78.245 38.6653C83.9124 37.3812 89.692 33.0569 89.692 25.174H87.692C87.692 31.8231 82.8876 35.5628 77.803 36.7147L78.245 38.6653ZM89.692 25.174C89.692 21.582 88.4438 18.256 86.0685 15.8234C83.6869 13.3843 80.2375 11.91 75.966 11.91V13.91C79.7585 13.91 82.6721 15.2077 84.6375 17.2206C86.6092 19.24 87.692 22.046 87.692 25.174H89.692ZM75.966 11.91C66.1457 11.91 59.972 19.9881 59.972 26.686H61.972C61.972 21.0359 67.3063 13.91 75.966 13.91V11.91ZM59.972 26.686C59.972 29.475 60.6022 31.5938 61.5737 33.048C62.5381 34.4915 63.8874 35.33 65.256 35.33V33.33C64.7346 33.33 63.9419 32.9925 63.2368 31.937C62.5388 30.8922 61.972 29.189 61.972 26.686H59.972ZM65.256 35.33C66.7555 35.33 68.0773 34.2571 69.2137 32.5745C70.3761 30.8534 71.5136 28.2562 72.5974 24.6649L70.6826 24.0871C69.6244 27.5938 68.5569 29.9736 67.5563 31.455C66.5298 32.9749 65.7305 33.33 65.256 33.33V35.33ZM72.5964 24.668C73.8369 20.6045 74.73 15.7915 75.1554 11.3677L73.1646 11.1763C72.75 15.4885 71.8791 20.1675 70.6836 24.084L72.5964 24.668ZM74.1359 12.2717L77.6219 12.3557L77.6701 10.3563L74.1841 10.2723L74.1359 12.2717Z" fill="black" mask="url(#path-8-outside-3_1_47)"/>
</g>
<path d="M100 0H101V-1H100V0ZM50 1H100V-1H50V1ZM99 0V50H101V0H99Z" fill="black" mask="url(#path-6-inside-2_1_47)"/>
<mask id="path-10-inside-4_1_47" fill="white">
<path d="M50 50H100V100H50V50Z"/>
</mask>
<path d="M50 50H100V100H50V50Z" fill="black"/>
<path d="M100 50H101V49H100V50ZM100 100V101H101V100H100ZM50 51H100V49H50V51ZM99 50V100H101V50H99ZM100 99H50V101H100V99Z" fill="black" mask="url(#path-10-inside-4_1_47)"/>
<path d="M64.1942 71.4839V86.2136H61.1984V74.3966H55.914V71.4839H64.1942ZM64.1942 84.9653C66.1499 88.0444 69.8115 89.4591 74.7629 89.6255C79.3816 89.8336 88.9933 89.7087 94.028 89.3759C93.6535 90.0832 93.1542 91.5395 93.0293 92.4549C88.3275 92.663 79.4232 92.7462 74.7629 92.5382C69.2705 92.3301 65.4841 90.8738 62.9043 87.5867C61.0735 89.3759 59.1595 91.1651 57.0791 92.9959L55.4563 89.9584C57.2871 88.6269 59.534 86.7545 61.4896 84.9653H64.1942ZM56.2885 57.8362L58.6602 56.1302C61.24 58.0026 64.1526 60.8736 65.4425 62.9125L62.8627 64.8681C61.6977 62.7876 58.8267 59.875 56.2885 57.8362ZM71.4758 66.6157L74.1388 65.9499C75.0958 67.2398 75.928 69.029 76.2193 70.2357L73.3482 70.9846C73.1402 69.778 72.3496 67.9472 71.4758 66.6157ZM68.9377 58.2523H90.616V60.5824H68.9377V58.2523ZM68.6464 75.8113H91.1985V78.1414H68.6464V75.8113ZM67.0653 70.6518H92.8629V73.0235H67.0653V70.6518ZM66.1499 63.703H93.4454V66.1164H66.1499V63.703ZM66.5659 81.2621H93.1126V83.6754H66.5659V81.2621ZM78.0085 55.0484H81.1291V65.2426H78.0085V55.0484ZM78.0085 71.7336H81.1291V87.6283H78.0085V71.7336ZM84.7907 65.7835L87.8282 66.6157C86.9544 68.2384 86.039 69.9028 85.29 71.0262L82.8351 70.2773C83.5009 68.9874 84.3746 67.0318 84.7907 65.7835Z" fill="white"/>
<mask id="path-13-inside-5_1_47" fill="white">
<path d="M100 0H150V50H100V0Z"/>
</mask>
<path d="M100 0H150V50H100V0Z" fill="white"/>
<path d="M150 0H151V-1H150V0ZM100 1H150V-1H100V1ZM149 0V50H151V0H149Z" fill="black" mask="url(#path-13-inside-5_1_47)"/>
<path d="M124.357 40.4137C122.407 40.4137 120.668 40.0788 119.142 39.409C117.625 38.7391 116.418 37.8082 115.521 36.6163C114.635 35.4145 114.152 34.0207 114.073 32.4347H117.797C117.876 33.4099 118.211 34.2522 118.802 34.9614C119.393 35.6608 120.166 36.2026 121.122 36.5868C122.077 36.9709 123.136 37.163 124.298 37.163C125.599 37.163 126.751 36.9365 127.756 36.4833C128.761 36.0302 129.549 35.3998 130.12 34.592C130.691 33.7842 130.977 32.8484 130.977 31.7846C130.977 30.6714 130.701 29.6913 130.15 28.8442C129.598 27.9871 128.79 27.3173 127.726 26.8346C126.663 26.3519 125.362 26.1106 123.826 26.1106H121.402V22.8599H123.826C125.027 22.8599 126.081 22.6432 126.988 22.2097C127.904 21.7763 128.618 21.1656 129.13 20.3775C129.652 19.5895 129.913 18.6635 129.913 17.5996C129.913 16.5752 129.687 15.6837 129.234 14.9252C128.78 14.1667 128.14 13.5757 127.313 13.1521C126.495 12.7285 125.53 12.5167 124.417 12.5167C123.372 12.5167 122.387 12.7088 121.461 13.093C120.545 13.4673 119.797 14.014 119.215 14.7331C118.634 15.4424 118.319 16.2994 118.27 17.3041H114.724C114.783 15.7182 115.26 14.3292 116.157 13.1373C117.053 11.9355 118.225 10.9997 119.673 10.3299C121.131 9.66003 122.732 9.32511 124.476 9.32511C126.347 9.32511 127.953 9.70436 129.293 10.4629C130.632 11.2115 131.662 12.2015 132.381 13.4328C133.1 14.6642 133.459 15.994 133.459 17.4223C133.459 19.1265 133.011 20.5795 132.115 21.7812C131.228 22.983 130.022 23.8154 128.495 24.2784V24.5148C130.406 24.83 131.898 25.6427 132.972 26.9528C134.046 28.2531 134.582 29.8637 134.582 31.7846C134.582 33.4296 134.134 34.9072 133.238 36.2174C132.351 37.5176 131.14 38.5421 129.603 39.2908C128.066 40.0394 126.318 40.4137 124.357 40.4137Z" fill="black"/>
<mask id="path-16-inside-6_1_47" fill="white">
<path d="M100 50H150V100H100V50Z"/>
</mask>
<path d="M100 50H150V100H100V50Z" fill="black"/>
<path d="M150 50H151V49H150V50ZM150 100V101H151V100H150ZM100 51H150V49H100V51ZM149 50V100H151V50H149ZM150 99H100V101H150V99Z" fill="black" mask="url(#path-16-inside-6_1_47)"/>
<path d="M122.641 56.3382H126.094C125.762 62.8709 125.137 83.6338 107.911 92.9959C107.37 92.2053 106.33 91.2483 105.373 90.5409C122.35 81.8862 122.35 61.8722 122.641 56.3382ZM125.97 57.1704C126.094 60.4159 127.301 82.5104 144.444 90.3745C143.529 91.0818 142.572 92.1221 142.072 92.9959C124.43 84.5492 123.265 61.2897 122.974 57.4617L125.97 57.1704Z" fill="white"/>
<defs>
<clipPath id="clip0_1_47">
<path d="M0 0H50V50H0V0Z" fill="white"/>
</clipPath>
<clipPath id="clip1_1_47">
<path d="M50 0H100V50H50V0Z" fill="white"/>
</clipPath>
</defs>
</svg>
