<svg width="90" height="90" viewBox="0 0 90 90" fill="none" xmlns="http://www.w3.org/2000/svg">
<g clip-path="url(#clip0_1_30)">
<rect x="0.5" y="0.5" width="44" height="44" fill="white"/>
<rect x="0.5" y="0.5" width="44" height="44" stroke="black"/>
<path d="M14.692 21.964V24.52H29.524V21.964H14.692ZM14.692 26.248V28.84H29.524V26.248H14.692ZM14.692 17.68V20.2H29.524V17.68H14.692ZM12.208 15.88H32.152V30.676H12.208V15.88ZM16.708 30.028H19.48C18.508 34.924 15.772 37.264 6.952 38.416C6.7 37.804 6.052 36.652 5.548 36.076C13.648 35.284 15.916 33.7 16.708 30.028ZM24.448 29.956H27.148V34.78C27.148 35.608 27.4 35.752 28.984 35.752C29.704 35.752 33.268 35.752 34.276 35.752C35.608 35.752 35.86 35.32 35.968 31.828C36.544 32.26 37.66 32.656 38.416 32.8C38.092 37.192 37.3 38.2 34.528 38.2C33.772 38.2 29.416 38.2 28.732 38.2C25.312 38.2 24.448 37.444 24.448 34.816V29.956ZM7.132 11.02H37.156V18.256H34.564V13.288H9.616V18.256H7.132V11.02ZM31.9 5.548L34.672 6.52C33.232 8.5 31.504 10.66 30.1 12.064L27.94 11.128C29.272 9.652 30.964 7.24 31.9 5.548ZM9.472 6.916L11.74 5.836C13.036 7.168 14.548 9.004 15.232 10.228L12.82 11.452C12.172 10.192 10.768 8.248 9.472 6.916ZM18.652 6.124L20.992 5.296C22.108 6.772 23.296 8.788 23.764 10.12L21.352 11.056C20.92 9.724 19.768 7.636 18.652 6.124Z" fill="black"/>
<mask id="path-5-inside-1_1_30" fill="white">
<path d="M45 0H90V45H45V0Z"/>
</mask>
<path d="M45 0H90V45H45V0Z" fill="white"/>
<path d="M90 0H91V-1H90V0ZM90 45V46H91V45H90ZM45 1H90V-1H45V1ZM89 0V45H91V0H89ZM90 44H45V46H90V44Z" fill="black" mask="url(#path-5-inside-1_1_30)"/>
<path d="M60.232 7.132C64.12 7.996 70.996 8.824 74.452 9.004L74.056 11.668C70.456 11.344 64.156 10.552 59.764 9.76L60.232 7.132ZM75.172 17.428C74.488 17.896 73.588 18.652 73.156 19.012C71.788 20.272 67.756 24.052 66.388 25.456C66.784 25.42 67.432 25.42 67.828 25.528C69.196 25.672 70.024 26.608 70.528 28.084C70.888 29.128 71.392 30.964 71.752 32.116C72.184 33.484 73.012 34.096 74.884 34.096C77.224 34.096 79.96 33.772 81.688 33.34L81.472 36.364C79.96 36.652 76.648 36.904 74.74 36.904C71.824 36.904 70.06 36.22 69.268 33.844C68.908 32.764 68.404 30.64 68.044 29.632C67.648 28.372 66.856 27.688 65.848 27.688C64.876 27.688 64.012 28.192 63.184 29.02C61.852 30.28 57.928 34.42 55.876 37.012L53.14 35.104C53.608 34.744 54.256 34.168 54.94 33.484C56.416 32.044 66.208 22.216 69.736 18.688C66.892 18.832 60.844 19.372 58.648 19.552C57.46 19.624 56.524 19.768 55.768 19.876L55.516 16.744C56.344 16.816 57.388 16.816 58.54 16.816C60.628 16.744 68.98 16.204 71.716 15.844C72.328 15.772 73.084 15.592 73.444 15.448L75.172 17.428Z" fill="black"/>
<mask id="path-8-inside-2_1_30" fill="white">
<path d="M0 45H45V90H0V45Z"/>
</mask>
<path d="M0 45H45V90H0V45Z" fill="white"/>
<path d="M45 90V91H46V90H45ZM0 90H-1V91H0V90ZM44 45V90H46V45H44ZM45 89H0V91H45V89ZM1 90V45H-1V90H1Z" fill="black" mask="url(#path-8-inside-2_1_30)"/>
<path d="M37.408 57.676C37.048 58.072 36.724 58.468 36.508 58.792C33.808 63.22 28.84 69.556 22.468 74.164L20.236 72.148C25.996 68.152 30.64 62.32 32.548 58.9C29.308 58.9 13.432 58.9 11.38 58.9C9.94 58.9 8.392 59.008 7.708 59.08V55.876C8.68 56.02 10.12 56.128 11.38 56.128C13.216 56.128 29.236 56.128 32.836 56.128C33.808 56.128 34.636 56.056 35.14 55.876L37.408 57.676ZM20.452 74.776C18.292 72.616 14.152 69.052 12.244 67.684L14.548 65.812C16.204 67 20.38 70.42 22.972 72.94C25.24 75.208 28.048 78.16 29.596 80.032L26.968 82.12C25.636 80.284 22.756 77.116 20.452 74.776Z" fill="black"/>
<mask id="path-11-inside-3_1_30" fill="white">
<path d="M45 45H90V90H45V45Z"/>
</mask>
<path d="M45 45H90V90H45V45Z" fill="white"/>
<path d="M90 90V91H91V90H90ZM89 45V90H91V45H89ZM90 89H45V91H90V89Z" fill="black" mask="url(#path-11-inside-3_1_30)"/>
<path d="M77.764 56.452C77.548 56.74 77.08 57.532 76.9 58C75.46 61.564 72.724 66.604 69.736 69.916C65.704 74.416 60.556 78.7 54.868 81.292L52.564 78.88C58.396 76.648 63.688 72.328 67.396 68.224C69.844 65.452 72.472 61.168 73.408 58.18C72.112 58.18 60.592 58.18 59.368 58.18C58.072 58.18 56.128 58.324 55.732 58.36V55.12C56.2 55.192 58.252 55.336 59.368 55.336C60.772 55.336 71.896 55.336 73.264 55.336C74.416 55.336 75.388 55.228 75.964 55.048L77.764 56.452ZM70.204 68.044C74.092 71.284 78.88 76.324 81.328 79.312L78.844 81.508C76.252 78.088 72.04 73.48 68.152 70.06L70.204 68.044Z" fill="black"/>
</g>
<rect x="0.5" y="0.5" width="89" height="89" stroke="black"/>
<defs>
<clipPath id="clip0_1_30">
<rect width="90" height="90" fill="white"/>
</clipPath>
</defs>
</svg>
