<svg width="82" height="78" viewBox="0 0 82 78" fill="none" xmlns="http://www.w3.org/2000/svg">
<path d="M33.5417 54C33.4592 54 33.3767 53.9974 33.294 53.9935C32.5646 53.9592 31.8515 53.7719 31.2035 53.4443C30.5555 53.1167 29.9881 52.6566 29.54 52.0957L23.0681 44.0002C22.6594 43.4892 22.3581 42.9049 22.1816 42.2806C22.005 41.6564 21.9566 41.0044 22.0391 40.3619C22.1215 39.7194 22.3333 39.099 22.6622 38.5362C22.9911 37.9733 23.4308 37.4791 23.9561 37.0816L24.189 36.9052C24.7142 36.5074 25.3149 36.2141 25.9567 36.0422C26.5985 35.8703 27.2688 35.8232 27.9293 35.9035C28.5898 35.9838 29.2276 36.19 29.8062 36.5103C30.3848 36.8305 30.8928 37.2586 31.3012 37.77C31.6281 38.1783 32.0418 38.5132 32.5139 38.7517C32.9861 38.9902 33.5056 39.1267 34.037 39.1519C34.5684 39.177 35.0991 39.0903 35.5928 38.8976C36.0866 38.7048 36.5317 38.4107 36.8978 38.0351L50.0381 24.5375C50.9632 23.5896 52.2369 23.0373 53.5798 23.0018C54.9228 22.9663 56.2254 23.4505 57.202 24.3481L57.4175 24.5479C57.9006 24.9931 58.289 25.5266 58.5602 26.1178C58.8314 26.7091 58.9802 27.3465 58.9982 27.9937C59.0161 28.641 58.9028 29.2853 58.6648 29.89C58.4267 30.4946 58.0686 31.0476 57.6108 31.5175L37.2186 52.4601C36.7456 52.9466 36.1755 53.334 35.5433 53.5988C34.9111 53.8635 34.23 54.0001 33.5417 54Z" fill="#F9A826"/>
<path d="M41 78C32.8909 78 24.9641 75.7127 18.2216 71.4273C11.4792 67.1419 6.22418 61.0509 3.12099 53.9246C0.0178026 46.7983 -0.794185 38.9567 0.787808 31.3915C2.3698 23.8262 6.27466 16.8771 12.0086 11.4229C17.7426 5.96862 25.0481 2.25421 33.0013 0.749387C40.9545 -0.755435 49.1982 0.0169088 56.69 2.96872C64.1817 5.92054 70.5851 10.9192 75.0903 17.3328C79.5954 23.7463 82 31.2865 82 39C81.9879 49.3399 77.6643 59.253 69.978 66.5644C62.2916 73.8758 51.8701 77.9884 41 78ZM41 4.47567C33.8215 4.47567 26.8043 6.5005 20.8357 10.2941C14.867 14.0877 10.215 19.4796 7.46795 25.7881C4.72088 32.0966 4.00211 39.0383 5.40256 45.7354C6.803 52.4325 10.2598 58.5841 15.3357 63.4124C20.4116 68.2408 26.8787 71.5289 33.9192 72.861C40.9597 74.1931 48.2574 73.5094 54.8894 70.8963C61.5215 68.2833 67.19 63.8582 71.1781 58.1807C75.1662 52.5032 77.2949 45.8282 77.2949 39C77.2839 29.8467 73.4565 21.0714 66.6523 14.5991C59.8481 8.12676 50.6226 4.48604 41 4.47567Z" fill="#F9A826"/>
</svg>
