<svg width="530" height="48" viewBox="0 0 530 48" fill="none" xmlns="http://www.w3.org/2000/svg">
<path d="M498.426 8.2987C497.699 8.32437 496.966 8.35836 496.253 8.37048C495.79 8.37927 495.597 8.46195 495.292 8.51946C495.19 8.53915 495.082 8.5719 494.986 8.57543C494.267 8.60058 493.547 8.6226 492.827 8.64462C492.603 8.59894 492.458 8.52728 492.119 8.52111C491.788 8.51598 491.399 8.54312 491.032 8.55465C490.548 8.57123 490.063 8.58781 489.578 8.60596C489.336 8.61504 489.136 8.59913 489.052 8.54842C489.036 8.54005 489.196 8.50533 489.283 8.48509C489.572 8.41765 489.854 8.34446 490.174 8.28592C490.479 8.22997 490.864 8.25968 491.191 8.1928C491.924 8.04246 491.931 8.04352 492.497 8.02286C492.981 8.00627 493.466 7.99124 493.95 7.96995C494.046 7.96643 494.154 7.93527 494.256 7.91558C494.561 7.85964 494.753 7.76754 495.209 7.76552C495.555 7.76493 495.936 7.74299 496.296 7.73041C496.593 7.66402 496.868 7.59291 497.188 7.53438C497.486 7.47894 497.572 7.44618 497.408 7.41205C497.258 7.38003 497.052 7.37716 496.78 7.39298C496.539 7.40832 496.296 7.41115 496.054 7.42023C495.929 7.42424 495.811 7.42929 495.694 7.43279C495.231 7.44784 495.231 7.44785 494.396 7.60692C494.069 7.6691 493.692 7.64044 493.379 7.70003C493.169 7.73993 492.988 7.79029 492.785 7.83124C492.698 7.84834 492.559 7.85965 492.449 7.8642C492.082 7.87885 491.715 7.89664 491.362 7.90088C491.112 7.9042 490.962 7.87061 490.989 7.82474C490.995 7.80701 491.169 7.76968 491.271 7.76094C491.505 7.74142 491.756 7.74593 491.982 7.71909C492.201 7.69277 492.426 7.64559 492.585 7.59988C492.909 7.50484 493.287 7.54289 493.601 7.50208C493.929 7.45868 494.196 7.37712 494.508 7.31753C494.588 7.3025 494.743 7.30741 494.868 7.3034C495.227 7.28926 495.587 7.27354 495.947 7.25939C496.244 7.193 496.563 7.12977 496.831 7.05917C497.315 6.93094 497.84 6.85807 498.48 6.8589C498.841 6.85885 499.192 6.82487 499.473 6.74385C499.762 6.66076 500.099 6.64345 500.474 6.62985C500.819 6.6183 501.173 6.62815 501.521 6.55974C502.276 6.40942 502.283 6.40421 503.187 6.37878C503.459 6.37078 503.664 6.35957 503.867 6.30923C504.055 6.26304 504.258 6.22053 504.453 6.1754C504.813 6.16126 505.18 6.1466 505.54 6.13402C506.003 6.11897 506.257 6.07914 506.361 5.98381C506.423 5.92598 506.449 5.87541 506.608 5.82814C506.795 5.771 507 5.75823 507.28 5.75129C507.544 5.74381 507.736 5.74769 507.85 5.79636C507.895 5.81676 507.985 5.83254 508.066 5.84568C508.133 5.85516 508.237 5.86989 508.296 5.86266C508.405 5.84872 508.551 5.82128 508.586 5.79837C508.931 5.58388 508.931 5.58231 509.294 5.50191C509.692 5.4127 510.106 5.32872 510.467 5.23425C510.793 5.15016 511.124 5.15371 511.483 5.12861C511.754 5.10966 511.927 5.05666 511.902 5.01751C511.886 4.99505 511.781 4.9678 511.693 4.97082C510.973 4.98971 510.246 5.01381 509.519 5.0426C509.431 5.04562 509.323 5.08147 509.222 5.10273C509.019 5.14524 508.839 5.20188 508.619 5.22664C508.4 5.2514 508.142 5.24584 507.9 5.25492C507.658 5.264 507.4 5.26156 507.181 5.28945C506.962 5.31733 506.79 5.37503 506.587 5.41911C506.492 5.43986 506.362 5.46941 506.281 5.47035C505.744 5.47017 505.352 5.54949 504.976 5.64499C504.896 5.66472 504.758 5.68384 504.655 5.68788C503.803 5.72068 502.959 5.74829 502.107 5.77796C501.762 5.78951 501.487 5.86377 501.421 5.96124C501.388 6.01545 501.318 6.07222 501.322 6.12387C501.328 6.21778 500.929 6.2976 500.635 6.30713C500.151 6.32529 499.659 6.34709 499.181 6.3569C498.792 6.36527 498.463 6.4071 498.204 6.48189C497.9 6.56757 497.548 6.57962 497.195 6.58699C496.931 6.59291 496.854 6.54639 496.859 6.41545C496.867 6.30956 496.74 6.2854 496.262 6.30148C495.66 6.32157 495.051 6.34216 494.442 6.36746C494.346 6.37099 494.238 6.40527 494.144 6.42602C493.941 6.46853 493.761 6.52674 493.542 6.55149C493.323 6.57782 493.065 6.57226 492.822 6.57977C492.58 6.58885 492.322 6.58486 492.103 6.61118C491.884 6.63751 491.704 6.69726 491.509 6.74083C491.415 6.76158 491.299 6.79013 491.203 6.79365C490.719 6.81494 490.234 6.82995 489.75 6.84654C489.206 6.86566 489.206 6.86566 488.444 7.01648C488.096 7.08489 487.742 7.07504 487.396 7.08659C487.029 7.09968 486.685 7.1175 486.403 7.20008C486.216 7.2541 486.005 7.29399 485.777 7.30204C485.168 7.32577 484.566 7.34429 483.957 7.36802C483.854 7.37206 483.715 7.38961 483.636 7.40934C483.252 7.50222 482.875 7.58051 482.33 7.58555C481.86 7.59016 481.354 7.62393 480.884 7.6301C480.626 7.63394 480.505 7.59206 480.554 7.54934C480.582 7.52694 480.734 7.4927 480.837 7.48553C481.071 7.46757 481.329 7.47314 481.548 7.44838C482.001 7.39784 482.219 7.25049 482.815 7.245C483.168 7.24233 483.534 7.22454 483.901 7.20519C483.996 7.2001 484.097 7.16319 484.198 7.14037C484.488 7.07762 484.741 7.00491 485.168 7.00338C485.521 7.00071 485.895 6.98083 486.255 6.96825C486.827 6.94865 486.827 6.94709 487.56 6.79988C487.909 6.7299 488.263 6.74132 488.608 6.7282C488.865 6.7181 489.108 6.71686 489.311 6.6806C489.624 6.62571 489.846 6.53471 490.234 6.51226C490.601 6.49135 490.961 6.48816 491.328 6.47037C491.555 6.45919 491.766 6.41928 491.946 6.36422C492.134 6.30864 492.337 6.27553 492.587 6.26751C492.947 6.25493 493.314 6.24497 493.681 6.22719C493.784 6.22158 493.9 6.19928 493.994 6.1801C494.198 6.13759 494.393 6.09091 494.589 6.04734C494.948 6.03163 495.315 6.00913 495.668 6.00333C495.94 5.99847 496.13 5.97889 496.347 5.93222C496.623 5.87049 496.844 5.77948 497.301 5.78372C497.529 5.78506 497.793 5.76194 498.021 5.76171C498.301 5.76259 498.49 5.74146 498.685 5.68067C499.052 5.56534 499.521 5.53099 500.007 5.53162C500.537 5.53231 500.929 5.4608 501.32 5.36428C501.733 5.26308 501.733 5.26466 502.043 5.06838C502.134 5.01164 502.404 4.96921 502.631 4.96272C503.013 4.95174 503.343 4.92087 503.617 4.84193C503.905 4.75726 504.257 4.74051 504.617 4.73263C505.095 4.72282 505.573 4.70986 505.955 4.59193C506.142 4.53479 506.346 4.5095 506.604 4.50253C507.331 4.47999 508.064 4.44598 508.777 4.43073C509.211 4.42242 509.456 4.35494 509.746 4.29219C510.138 4.20661 510.567 4.12474 510.558 4.00109C510.556 3.98074 510.657 3.95009 510.744 3.92829C510.932 3.88211 511.135 3.83959 511.331 3.79446C511.621 3.72701 511.904 3.66792 512.308 3.66479C512.661 3.66055 513.035 3.64069 513.395 3.62968C513.755 3.61867 514.085 3.60344 514.403 3.52143C514.772 3.428 515.163 3.33617 515.585 3.25637C515.882 3.19938 516.282 3.23275 516.601 3.16169C516.797 3.11812 516.985 3.07039 517.195 3.03049C517.283 3.01339 517.422 3.01147 517.54 3.00641C517.782 2.99576 518.031 2.98304 518.267 2.9823C518.539 2.98057 518.744 2.96309 518.946 2.91275C519.135 2.86656 519.322 2.80786 519.541 2.78311C519.87 2.74597 520.24 2.78297 520.565 2.68792C520.731 2.64014 520.941 2.59084 521.16 2.56452C521.379 2.5382 521.637 2.54377 521.871 2.52581C521.974 2.51864 522.096 2.48489 522.153 2.46044C522.189 2.44693 522.136 2.42076 522.084 2.4087C522.016 2.39453 521.919 2.37614 521.824 2.37967C521.097 2.4022 520.37 2.42943 519.643 2.45353C519.21 2.46809 519.21 2.4681 518.345 2.62766C518.142 2.66548 517.914 2.67666 517.657 2.68364C517.312 2.69362 516.958 2.69159 516.601 2.74486C516.14 2.88407 515.562 2.93395 514.944 2.93627C514.686 2.93698 514.452 2.95337 514.264 2.99643C513.865 3.08408 513.444 3.16855 513.09 3.26408C512.815 3.33833 512.684 3.35225 512.561 3.28531C512.523 3.2644 512.485 3.24193 512.491 3.2195C512.529 3.13817 512.604 3.05584 512.643 2.97451C512.656 2.95157 512.596 2.9306 512.557 2.90969C512.435 2.85215 512.282 2.86761 512.029 2.94032C511.777 3.01303 511.472 3.07053 511.06 3.07417C510.707 3.07684 510.326 3.1066 509.973 3.10771C509.428 3.11118 509.051 3.1879 508.667 3.28236C508.588 3.30208 508.449 3.31963 508.347 3.32367C507.253 3.36399 506.166 3.3991 505.072 3.43942C504.837 3.44798 504.626 3.48632 504.446 3.54139C504.258 3.59696 504.047 3.63374 503.812 3.6423C502.843 3.67704 501.874 3.7149 500.905 3.74182C500.508 3.75226 500.195 3.79464 499.927 3.86838C499.725 3.92341 499.535 3.94925 499.279 3.96248C499 3.97725 498.801 3.97541 498.659 3.93975C498.524 3.90514 498.617 3.8719 498.908 3.81698C499.22 3.75739 499.51 3.68836 499.807 3.62354C500.049 3.61289 500.292 3.60853 500.526 3.59058C500.629 3.58341 500.722 3.54856 500.823 3.52574C501.113 3.45986 501.381 3.39552 501.8 3.39137C502.153 3.38869 502.527 3.36727 502.887 3.35626C503.386 3.33865 503.386 3.33864 504.185 3.18369C504.389 3.14431 504.608 3.13052 504.873 3.12617C505.101 3.12125 505.334 3.08294 505.492 3.02471C505.556 3.00132 505.532 2.97153 505.386 2.87796C505.381 2.80126 505.537 2.82496 505.591 2.87146C505.677 2.93783 505.525 2.97206 505.229 2.95342C505.022 2.93959 504.917 2.90605 504.966 2.8696C504.994 2.85033 505.131 2.81868 505.386 2.87796C506.037 2.9268 506.529 2.90345 506.999 2.89572C507.278 2.89034 507.454 2.8718 507.671 2.81574C507.931 2.74878 508.191 2.67867 508.625 2.67349C509.096 2.66888 509.594 2.6372 510.072 2.62739C510.513 2.61857 510.735 2.53381 511.01 2.47365C511.344 2.40157 511.721 2.43023 512.027 2.38054C512.347 2.32984 512.57 2.24509 512.942 2.20645C513.487 2.21081 513.826 2.10847 514.233 2.02813C514.552 1.96646 514.935 1.97428 515.281 1.96742C515.67 1.95906 515.992 1.91928 516.259 1.84398C516.562 1.7583 516.907 1.74831 517.26 1.73781C518.082 1.71175 518.112 1.71442 518.582 1.59504C518.922 1.50835 519.253 1.51346 519.598 1.49722C519.896 1.43396 520.185 1.36809 520.498 1.3085C520.578 1.29348 520.733 1.29836 520.857 1.29435C521.217 1.28177 521.584 1.26869 521.944 1.25611C522.186 1.24703 522.444 1.25259 522.663 1.22783C522.882 1.20151 523.062 1.1433 523.258 1.09973C523.454 1.05617 523.657 1.01209 523.845 0.96747C524.135 0.900026 524.41 0.841436 524.822 0.83623C525.175 0.831994 525.542 0.812646 525.909 0.801124C526.372 0.786074 526.357 0.782391 527.207 0.628554C527.665 0.544633 528.146 0.573949 528.615 0.54743C528.849 0.534168 529.075 0.501074 529.233 0.444413C529.298 0.421021 529.274 0.391252 529.294 0.363106C528.082 0.405358 526.864 0.4544 525.666 0.486234C525.203 0.498155 524.966 0.5714 524.72 0.63577C524.315 0.739583 523.765 0.667927 523.384 0.792117C523.153 0.866422 522.819 0.922837 522.414 0.922836C522.178 0.923576 521.93 0.942565 521.687 0.945381C521.069 0.953968 520.505 0.991841 520.022 1.13416C519.856 1.1835 519.616 1.22074 519.443 1.26903C519.24 1.3225 519.044 1.35826 518.802 1.36734C517.708 1.40609 516.621 1.44433 515.534 1.47944C515.439 1.48297 515.342 1.46616 515.26 1.45457C515.052 1.42509 515.115 1.38604 515.443 1.33481C515.552 1.31773 515.639 1.29125 515.74 1.26843C515.936 1.22486 516.115 1.1651 516.334 1.13877C516.553 1.11245 516.811 1.11643 517.054 1.10735C517.296 1.09827 517.554 1.10382 517.773 1.07907C517.992 1.05275 518.172 0.994551 518.375 0.952038C518.469 0.931291 518.585 0.899611 518.68 0.894518C519.164 0.870105 519.642 0.854032 520.126 0.834315C520.423 0.771055 520.675 0.692088 521.033 0.652902C521.26 0.627634 521.503 0.627954 521.737 0.608433C521.839 0.599697 521.969 0.566998 522.019 0.543066C522.048 0.528496 521.95 0.503846 521.876 0.493316C521.594 0.453299 521.214 0.490893 520.868 0.496184C520.493 0.501957 520.156 0.531778 519.875 0.612797C519.687 0.666809 519.476 0.703572 519.241 0.712138C518.632 0.734302 518.03 0.752824 517.421 0.778119C517.318 0.782159 517.194 0.804955 517.1 0.82257C516.337 0.971829 516.338 0.974959 515.794 0.992513C514.994 1.0186 514.994 1.01861 514.465 1.13895C514.364 1.16178 514.256 1.19919 514.168 1.20377C513.316 1.23814 512.472 1.27201 511.627 1.29492C511.348 1.30342 511.158 1.31673 510.956 1.37177C510.782 1.41849 510.58 1.47197 510.361 1.49673C510.134 1.522 509.884 1.51593 509.641 1.52501C509.399 1.53409 509.141 1.53167 508.93 1.55904C508.711 1.58693 508.523 1.64407 508.335 1.68869C508.14 1.73539 507.927 1.74869 507.655 1.75512C506.818 1.77751 506.811 1.78271 505.99 1.93763C505.895 1.95524 505.772 1.97647 505.669 1.98051C505.06 2.00424 504.458 2.02276 503.848 2.04649C503.613 2.05505 503.388 2.09128 503.23 2.14794C503.165 2.17133 503.189 2.20111 503.15 2.26523C503.099 2.2829 503.156 2.25375 503.169 2.22925C503.279 2.2247 503.411 2.21235 503.492 2.21924C503.699 2.23464 503.805 2.26661 503.756 2.30306C503.728 2.32233 503.59 2.35397 503.502 2.36011C503.341 2.37138 503.199 2.34667 503.15 2.26523C502.685 2.24584 502.193 2.2692 501.715 2.27745C501.436 2.28127 501.26 2.30138 501.043 2.35744C500.783 2.42596 500.516 2.49345 500.082 2.49863C499.611 2.50324 499.113 2.53335 498.628 2.54524C498.069 2.55913 497.837 2.71691 497.368 2.74656C496.885 2.77724 496.399 2.78442 495.915 2.79945C495.489 2.8135 495.489 2.81351 494.617 2.97671C494.297 3.03682 493.912 3.00866 493.6 3.06982C493.39 3.10972 493.209 3.16008 493.006 3.20103C492.919 3.21813 492.78 3.22787 492.669 3.23242C492.06 3.25615 491.444 3.28665 490.856 3.29319C490.186 3.29911 489.684 3.37827 489.214 3.50391C488.612 3.52869 488.004 3.56181 487.408 3.57356C486.975 3.58187 486.729 3.65093 486.439 3.71368C486.338 3.73494 486.251 3.76456 486.142 3.77851C486.033 3.79245 485.9 3.78917 485.782 3.79267C485.298 3.80926 484.799 3.83624 484.328 3.84085C483.747 3.84532 483.536 3.98904 483.091 4.03593C482.785 3.98024 482.616 3.88664 482.023 3.9203C481.539 3.94785 481.054 3.9566 480.569 3.97319C480.327 3.98226 480.084 3.98977 479.842 3.99884C479.453 4.0119 479.265 3.96367 479.339 3.86412C479.38 3.8094 479.413 3.75519 479.446 3.70098C479.513 3.60351 479.324 3.53805 479.016 3.54861C478.164 3.57828 477.319 3.60589 476.468 3.6387C476.24 3.64675 476.022 3.68873 475.842 3.7438C475.654 3.79938 475.443 3.833 475.209 3.84156C474.357 3.87124 473.512 3.89883 472.661 3.93163C472.565 3.93516 472.442 3.95952 472.348 3.9787C472.144 4.02122 471.949 4.06792 471.753 4.11148C471.269 4.1312 470.792 4.15511 470.315 4.16963C469.544 4.19523 469.543 4.19367 468.985 4.31919C468.884 4.34202 468.784 4.37891 468.688 4.384C468.322 4.40335 467.962 4.4128 467.594 4.42432C466.515 4.45892 466.515 4.45893 466.203 4.52791C465.92 4.59171 465.668 4.66286 465.234 4.66803C464.763 4.67264 464.264 4.69808 463.78 4.71624C463.42 4.73038 463.06 4.74294 462.701 4.76491C462.606 4.77 462.505 4.80692 462.404 4.82974C462.114 4.89875 461.831 4.95786 461.427 4.95942C461.191 4.96016 460.942 4.97444 460.7 4.98351C460.068 5.00565 460.068 5.00567 459.042 5.1718C458.94 5.18836 458.816 5.20802 458.713 5.21049C457.862 5.24173 457.017 5.26932 456.166 5.30213C456.063 5.30617 455.939 5.32428 455.837 5.33927C454.686 5.51098 454.686 5.51097 453.453 5.5532C452.983 5.57033 452.968 5.5651 452.483 5.68237C452.265 5.73373 452.084 5.76375 451.826 5.77072C450.857 5.80077 449.881 5.84384 448.918 5.86711C448.485 5.87855 448.239 5.94293 447.949 6.00568C447.848 6.02694 447.74 6.06591 447.652 6.07049C446.683 6.10836 445.713 6.13998 444.744 6.17785C444.656 6.18087 444.549 6.21986 444.447 6.24111C444.251 6.28312 444.064 6.3387 443.845 6.36346C443.618 6.38873 443.368 6.38266 443.118 6.39225C442.509 6.41441 442.509 6.41597 441.812 6.55749C441.718 6.57667 441.594 6.6026 441.499 6.60613C440.53 6.64244 439.554 6.68394 438.591 6.70565C438.04 6.71902 437.67 6.79054 437.286 6.88343C437.206 6.90315 437.068 6.91914 436.965 6.92318C435.871 6.96349 434.784 6.99861 433.69 7.03893C433.463 7.04698 433.245 7.08896 433.064 7.14246C432.776 7.22712 432.431 7.24337 432.064 7.25489C431.219 7.28092 431.212 7.28299 430.719 7.39295C430.618 7.41577 430.531 7.44226 430.422 7.45777C430.32 7.47277 430.188 7.47729 430.078 7.48185C429.593 7.5 429.109 7.51659 428.624 7.53318C428.139 7.54977 427.648 7.57469 427.17 7.58138C426.582 7.58948 426.31 7.7107 425.903 7.78634C425.301 7.808 424.685 7.83849 424.09 7.84711C423.634 7.85382 423.426 7.93754 423.128 7.99454C423.027 8.01423 422.919 8.04852 422.823 8.05205C421.729 8.09393 420.635 8.13269 419.548 8.16623C419.284 8.17528 419.109 8.20009 418.892 8.25302C418.407 8.37186 418.385 8.37026 417.562 8.39633C417.203 8.40734 416.857 8.41889 416.554 8.50458C416.287 8.58144 415.959 8.61858 415.569 8.62695C415.091 8.63676 414.6 8.65854 414.115 8.6767C413.631 8.69329 413.146 8.70362 412.662 8.7296C412.273 8.74892 412.044 8.83886 411.739 8.89794C411.644 8.91556 411.512 8.92635 411.402 8.9309C410.918 8.95062 410.419 8.9745 409.948 8.98067C409.375 8.98775 409.066 9.09585 408.666 9.17411C408.579 9.19121 408.432 9.1952 408.322 9.19819C407.47 9.22943 406.626 9.25704 405.774 9.28671C405.477 9.34997 405.172 9.41217 404.875 9.47543C404.39 9.49358 403.905 9.51018 403.421 9.52833C403.054 9.54142 402.68 9.56285 402.334 9.56344C401.885 9.56338 401.67 9.65231 401.373 9.70931C401.271 9.72901 401.163 9.76329 401.068 9.76682C400.458 9.79211 399.849 9.81584 399.247 9.83123C398.673 9.84457 398.456 10.0013 397.987 10.0326C397.504 10.0648 397.004 10.0793 396.534 10.0839C395.989 10.0889 395.612 10.1656 395.228 10.2601C395.149 10.2798 395.01 10.2974 394.907 10.3014C394.298 10.3251 393.696 10.3436 393.087 10.3674C392.984 10.3714 392.86 10.3879 392.758 10.4045C391.607 10.5778 391.607 10.5793 391.1 10.5959C390.741 10.6085 390.373 10.6184 390.007 10.6362C389.904 10.6403 389.78 10.6631 389.686 10.6822C388.931 10.831 388.931 10.8326 388.38 10.8522C387.895 10.8688 387.411 10.8854 386.926 10.902C386.629 10.9652 386.324 11.0274 386.027 11.0907C385.425 11.1123 384.808 11.1397 384.213 11.153C383.934 11.16 383.751 11.1775 383.541 11.2314C383.281 11.2968 383.021 11.3701 382.58 11.3742C382.109 11.3788 381.611 11.4105 381.133 11.4203C380.56 11.4321 380.335 11.5909 379.874 11.6216C379.39 11.6538 378.891 11.6683 378.42 11.6729C377.876 11.678 377.498 11.7547 377.115 11.8491C377.035 11.8689 376.896 11.8864 376.794 11.8905C375.457 11.9383 374.128 11.9856 372.792 12.0303C371.97 12.0579 371.969 12.0564 370.415 12.2516C370.306 12.2655 370.189 12.28 370.079 12.2845C369.594 12.3042 369.096 12.3281 368.625 12.3343C368.051 12.3414 367.742 12.4479 367.343 12.5277C367.256 12.5448 367.116 12.5483 366.999 12.5534C366.632 12.568 366.272 12.579 365.905 12.5921C365.42 12.6087 364.936 12.6253 364.451 12.6419C364.153 12.7036 363.849 12.7673 363.551 12.829C362.949 12.8507 362.333 12.8828 361.738 12.8914C361.282 12.8981 361.074 12.9787 360.776 13.0373C360.675 13.0569 360.567 13.0912 360.471 13.0963C359.377 13.1382 358.284 13.1785 357.196 13.2105C356.748 13.223 356.548 13.3078 356.25 13.3648C356.149 13.3829 356.033 13.4114 355.937 13.4149C355.211 13.4437 354.484 13.4678 353.757 13.4919C353.345 13.505 353.345 13.505 352.459 13.6645C352.357 13.6826 352.24 13.7018 352.138 13.7058C349.832 13.7884 347.534 13.8657 345.228 13.9483C344.993 13.9569 344.782 13.9952 344.602 14.0503C344.415 14.1058 344.204 14.1426 343.969 14.1512C343 14.1859 342.024 14.2243 341.061 14.2507C340.664 14.2611 340.351 14.3035 340.084 14.3773C339.881 14.4323 339.692 14.4613 339.435 14.4698C338.95 14.4848 338.466 14.503 337.981 14.5196C337.497 14.5362 337.012 14.5527 336.527 14.5693C336.043 14.5859 335.551 14.6108 335.073 14.6175C334.485 14.6256 334.206 14.7426 333.807 14.8193C333.08 14.8466 332.353 14.8738 331.633 14.899C330.664 14.9337 329.695 14.9653 328.726 15.0016C328.638 15.0046 328.53 15.0405 328.428 15.0617C328.131 15.1219 327.915 15.192 327.467 15.206C325.293 15.2747 323.105 15.3569 320.924 15.4276C320.469 15.4422 320.275 15.5233 319.97 15.5808C319.869 15.5989 319.753 15.629 319.658 15.6326C318.446 15.678 317.235 15.7186 316.023 15.7609C315.531 15.778 315.531 15.778 314.717 15.9324C314.623 15.95 314.499 15.9728 314.397 15.9769C312.818 16.0338 311.247 16.087 309.668 16.1424C309.433 16.1509 309.222 16.1877 309.035 16.2433C308.855 16.2983 308.636 16.3372 308.409 16.3452C306.955 16.3966 305.494 16.45 304.047 16.4961C303.658 16.5076 303.337 16.5442 303.062 16.62C302.867 16.6745 302.671 16.7056 302.421 16.7136C300.24 16.789 298.059 16.8676 295.878 16.9383C295.46 16.9519 295.169 17.0021 294.909 17.0722C294.699 17.1277 294.517 17.1484 294.252 17.1606C293.974 17.1722 293.804 17.1668 293.647 17.1306C293.445 17.0833 293.315 17.0154 292.846 17.0434C292.362 17.0725 291.87 17.0881 291.392 17.0948C290.936 17.0999 290.729 17.1852 290.446 17.2474C290.235 17.292 290.038 17.3106 289.766 17.3154C289.516 17.3203 289.361 17.3045 289.211 17.2646C288.881 17.1807 288.851 17.1828 288.461 17.2777C288.251 17.3286 288.062 17.3701 287.827 17.3802C286.858 17.4165 285.889 17.4497 284.92 17.4813C284.362 17.4999 284.354 17.4973 283.942 17.6047C283.74 17.6582 283.543 17.6908 283.301 17.6983C280.635 17.7903 277.97 17.8855 275.304 17.9728C274.893 17.9858 274.617 18.0382 274.327 18.1056C274.233 18.1279 274.14 18.1565 274.03 18.1704C273.921 18.1844 273.796 18.1868 273.678 18.1919C271.74 18.2598 269.794 18.3314 267.863 18.3909C267.422 18.4044 267.191 18.4709 266.894 18.5326C266.792 18.5539 266.706 18.5819 266.596 18.5959C266.487 18.6083 266.354 18.6065 266.236 18.61C264.298 18.6779 262.353 18.7495 260.421 18.8091C259.958 18.8241 259.765 18.9037 259.467 18.9591C259.365 18.9788 259.257 19.01 259.162 19.0135C258.553 19.0388 257.95 19.0573 257.341 19.0795C255.887 19.1293 254.433 19.1821 252.979 19.2303C252.421 19.2489 252.189 19.4051 251.72 19.4317C251.111 19.4663 250.509 19.477 249.899 19.4976C249.414 19.5142 248.93 19.5324 248.445 19.5474C247.968 19.5635 247.968 19.5635 246.788 19.7372C246.686 19.7522 246.562 19.7719 246.459 19.7759C244.763 19.8363 243.06 19.8973 241.371 19.9524C240.981 19.9655 240.66 19.9959 240.385 20.0732C240.19 20.1278 239.987 20.1625 239.744 20.17C237.197 20.2585 234.656 20.3465 232.108 20.4366C232.013 20.4401 231.889 20.4645 231.795 20.4836C231.592 20.5262 231.396 20.5729 231.201 20.6164C231.052 20.5907 230.859 20.5711 230.761 20.5371C230.625 20.4915 230.448 20.4882 230.169 20.4982C229.89 20.5083 229.715 20.5237 229.498 20.5798C229.238 20.6483 228.969 20.7064 228.536 20.721C225.87 20.8083 223.205 20.905 220.539 20.9939C220.099 21.009 219.899 21.0922 219.593 21.1497C219.492 21.1678 219.376 21.1932 219.28 21.1967C218.186 21.2371 217.099 21.2737 216.005 21.3125C212.973 21.4176 209.941 21.5274 206.915 21.6257C206.364 21.6438 205.993 21.709 205.61 21.8035C205.53 21.8232 205.392 21.8408 205.289 21.8448C201.045 21.9937 196.801 22.1411 192.564 22.2879C192.336 22.296 192.118 22.3364 191.938 22.3899C191.751 22.4455 191.54 22.4807 191.305 22.4892C189.366 22.5572 187.428 22.6251 185.489 22.6914C185.005 22.708 184.997 22.707 184.504 22.8169C184.403 22.8397 184.295 22.8771 184.214 22.8797C184.045 22.8836 183.881 22.8558 183.761 22.8107C183.639 22.7626 183.455 22.7597 183.183 22.7677C182.904 22.7762 182.722 22.7937 182.512 22.8462C182.244 22.9121 181.998 22.9749 181.557 22.9899C175.984 23.1784 170.411 23.3746 164.838 23.5646C164.39 23.5802 164.189 23.6603 163.884 23.7178C163.782 23.7359 163.681 23.7587 163.571 23.7695C163.454 23.7809 163.329 23.7802 163.212 23.7837C154.121 24.1 145.031 24.4148 135.941 24.7312C135.397 24.7503 135.405 24.7498 134.801 24.6473C134.727 24.6352 134.63 24.6184 134.527 24.6224C131.744 24.7164 128.954 24.814 126.164 24.9116C124.952 24.9538 123.741 24.9945 122.529 25.0383C122.096 25.0544 122.096 25.0544 121.051 24.9576C120.962 24.9497 120.858 24.9381 120.756 24.9421C115.909 25.1095 111.063 25.277 106.21 25.4481C105.828 25.4622 105.518 25.4555 105.337 25.3927C105.209 25.3482 105.046 25.3281 104.803 25.3357C101.411 25.4533 98.0187 25.5694 94.6192 25.6908C94.2154 25.7048 93.9705 25.6779 93.7681 25.626C93.7007 25.6087 93.6403 25.5878 93.544 25.5788C93.4551 25.5709 93.323 25.5754 93.2128 25.5784C90.305 25.6794 87.3972 25.7774 84.4825 25.8837C84.0493 25.8998 83.8694 25.8542 83.6527 25.808C83.578 25.7928 83.5247 25.7682 83.4285 25.7608C83.3324 25.7549 83.1933 25.7647 83.0759 25.7697C80.6528 25.8542 78.2297 25.9372 75.8066 26.0217C75.3383 26.0623 75.2294 25.9787 74.9985 25.9398C74.9166 25.9266 74.8564 25.9057 74.7603 25.8998C74.6569 25.8944 74.525 25.9052 74.4002 25.9108C72.4618 25.9787 70.523 26.0419 68.5776 26.1151C68.1298 26.1322 68.0363 26.0586 67.7907 26.0207C67.709 26.0091 67.6266 25.9881 67.5311 25.9901C66.3193 26.0292 65.1078 26.0714 63.8964 26.1153C63.4925 26.1293 63.4926 26.1309 62.7713 26.0256C62.6895 26.0141 62.5929 26.0019 62.49 26.0044C60.6762 26.0652 58.8553 26.1296 57.0343 26.1924C56.7994 26.201 56.6356 26.1747 56.5147 26.1297C56.3938 26.0847 56.2229 26.062 55.988 26.0706C54.5341 26.1203 53.0799 26.1686 51.6263 26.223C51.2226 26.2387 50.9563 26.218 50.7755 26.1598C50.64 26.1158 50.477 26.1005 50.2199 26.109C48.7661 26.1604 47.312 26.207 45.8513 26.2651C45.4256 26.2823 45.2021 26.2444 45.0217 26.191C44.8788 26.1475 44.7163 26.14 44.4446 26.1495C41.7794 26.2447 39.1069 26.3403 36.4483 26.4256C36.0003 26.4396 35.777 26.5103 35.4868 26.5699C35.0731 26.6539 34.6892 26.7405 34.6977 26.8626C34.699 26.8814 34.576 26.912 34.4892 26.9338C33.8455 27.0968 33.8455 27.0967 33.7517 27.2291C33.6984 27.3099 33.638 27.3928 33.5922 27.4746C33.506 27.6096 33.2738 27.6589 32.5983 27.6826C32.356 27.6916 32.1135 27.6976 31.8714 27.7082C31.5117 27.7224 31.2443 27.793 31.185 27.8915C31.1519 27.9457 31.1117 28.0004 31.0787 28.0546C31.4458 28.0416 31.4385 28.0436 32.0963 28.1879C32.3729 28.2488 32.373 28.2488 31.8585 28.365C31.6628 28.4086 31.4746 28.4548 31.2642 28.4978C31.1698 28.517 31.0459 28.5335 30.9432 28.5375C30.3339 28.5613 29.7317 28.5814 29.1296 28.6014C28.1603 28.6346 28.1602 28.6346 27.1898 28.8629C27.1101 28.8811 26.9873 28.9133 27.0028 28.9248C27.0874 28.977 27.2869 28.9883 27.5364 28.9771C27.9033 28.9609 28.2633 28.9514 28.6231 28.9389C28.8653 28.9298 29.1077 28.9223 29.3499 28.9132C29.5812 28.9568 29.8197 28.9983 30.0364 29.0445C30.3799 29.1148 30.38 29.118 29.9232 29.216C29.6332 29.2803 29.321 29.3415 29.0236 29.4032C28.6638 29.4157 28.2966 29.4273 27.9369 29.4414C27.4818 29.4591 27.3007 29.5016 27.1906 29.6116C27.0943 29.7079 27.2242 29.7759 27.5771 29.7701C27.9373 29.7638 28.2753 29.7527 28.464 29.8198C28.6451 29.8842 28.9548 29.8924 29.3361 29.872C29.5782 29.8598 29.8207 29.8539 30.063 29.8464C30.3789 29.8369 30.553 29.9049 30.4933 29.9987C30.4607 30.0592 30.3908 30.1128 30.106 30.1453C28.8427 30.2887 28.8278 30.2882 28.2054 30.4387C28.1474 30.4522 28.1055 30.4834 28.1285 30.496C28.1668 30.5169 28.2498 30.5457 28.338 30.5442C29.1827 30.5198 30.0272 30.4922 30.8712 30.4567C31.1501 30.4451 31.356 30.4417 31.4553 30.493C31.5927 30.5636 31.5393 30.6412 31.2867 30.7139C31.2074 30.7368 31.0769 30.7679 30.9889 30.7725C30.0201 30.812 29.0581 30.8431 28.0892 30.8825C28.0011 30.8855 27.8419 30.9234 27.8067 30.9463C27.7361 30.989 27.8494 31.0314 28.1069 31.0307C28.4455 31.0306 28.7899 31.0081 29.0224 31.0705C29.3452 31.1596 29.7405 31.2342 30.0995 31.316C30.1594 31.3307 30.2573 31.36 30.2355 31.3647C30.0548 31.4119 29.8442 31.4534 29.6561 31.4996C29.3376 31.5769 29.3429 31.6536 29.4213 31.722C29.484 31.7774 29.7054 31.7855 29.9764 31.7666C30.0936 31.7584 30.2401 31.7481 30.3363 31.7556C30.5878 31.7726 30.6714 31.8108 30.5492 31.8524C30.4773 31.8763 30.3474 31.9121 30.2593 31.9151C28.6882 31.9731 27.1097 32.0331 25.545 32.078C25.0823 32.0915 24.8741 32.1658 24.5988 32.2276C24.3886 32.2753 24.1916 32.3017 23.9263 32.2966C23.6757 32.2921 23.435 32.3215 23.2848 32.3839C23.1632 32.4349 23.3854 32.4555 23.9816 32.4547C24.092 32.4549 24.2168 32.4509 24.2984 32.4609C25.1599 32.5705 25.16 32.5721 25.7475 32.553C26.3203 32.5334 26.3205 32.535 26.6272 32.6048C26.7693 32.6373 26.926 32.6688 27.0609 32.7034C27.1134 32.7171 27.2036 32.7422 27.1749 32.7536C27.0172 32.8134 26.7981 32.8398 26.541 32.8467C25.9678 32.8601 25.2955 32.9291 24.9848 32.8014C24.8637 32.7532 24.6795 32.7504 24.4151 32.7594C21.7572 32.8541 19.0988 32.9425 16.4337 33.0407C16.0006 33.0569 15.7989 33.0128 15.6259 32.9604C15.4757 32.9174 15.3134 32.913 15.0344 32.9231C14.7554 32.9332 14.5353 32.9438 14.3777 33.0068C14.2847 33.0447 14.3684 33.0829 14.5912 33.1114C14.9105 33.152 14.8574 33.2343 14.7599 33.3151C14.6901 33.3687 14.4654 33.419 14.2235 33.4328C13.8642 33.4516 13.5188 33.4585 13.2228 33.5421C13.0496 33.5904 12.8315 33.6308 12.6359 33.6759C12.2595 33.7667 11.8832 33.8591 11.3456 33.8542C10.9804 33.8955 10.728 33.9698 10.4381 34.0341C9.95236 34.1404 9.90918 34.1544 10.2661 34.2065C10.6677 34.265 10.3679 34.3992 10.5935 34.4684C10.8343 34.5427 11.1622 34.6 11.4538 34.6646C11.5286 34.6813 11.596 34.6971 11.6708 34.7139C11.5045 34.757 11.3534 34.8068 11.1572 34.8426C10.9028 34.8887 10.7733 34.9323 10.7948 35.0284C10.7445 35.046 10.7638 35.0085 10.8217 34.995C10.887 34.981 11.0488 34.9776 11.1302 34.9829C11.3373 34.9983 11.4425 35.0303 11.3935 35.0667C11.3654 35.086 11.2279 35.1176 11.14 35.1238C10.9789 35.135 10.8373 35.1103 10.7874 35.0289C9.96258 35.0221 9.11058 35.0502 8.25916 35.0845C8.17104 35.0876 8.06342 35.1266 7.96197 35.1494C7.62875 35.2262 7.6286 35.2246 6.64085 35.3094C6.53842 35.3181 6.40085 35.3498 6.35111 35.3753C6.14537 35.4856 6.16008 35.59 6.06465 35.6989C6.25969 35.7513 6.45447 35.8021 6.65673 35.8525C7.06135 35.9547 7.58219 36.0331 7.89979 36.1541C7.83923 36.2354 7.75668 36.3182 8.08335 36.3583C9.00441 36.3725 8.99715 36.373 9.25144 36.4307C9.97683 36.5939 10.695 36.7592 11.4494 36.9172C11.651 36.9582 11.6531 36.9879 11.3032 37.0359C11.1938 37.0499 11.0765 37.0597 10.9591 37.0647C10.5921 37.0794 10.2239 37.0768 9.86541 37.1082C9.50683 37.138 9.24795 37.2253 8.95792 37.288C8.66067 37.3529 8.36354 37.4192 8.0664 37.4856C7.72181 37.505 7.37454 37.4853 7.0352 37.5798C6.77534 37.653 6.44849 37.7152 6.15134 37.7816C6.38673 37.8846 6.81798 37.9457 7.15493 38.0275C7.46192 38.102 7.46897 38.0999 8.27984 38.1172C8.66313 38.125 8.80735 38.2926 8.48868 38.3668C8.10484 38.4566 7.69879 38.5431 7.30741 38.6303C6.96282 38.6497 6.60835 38.632 6.28366 38.7255C6.03101 38.7966 5.74048 38.8531 5.31422 38.8625C4.59399 38.8782 3.86033 38.9122 3.13321 38.9348C2.88351 38.9428 2.61285 38.968 2.5067 39.0289C2.43608 39.0716 2.65212 39.1084 2.89461 39.1024C3.26194 39.0925 3.59283 39.0882 3.78142 39.1537C3.96269 39.2196 4.28659 39.2206 4.66824 39.2049C4.77101 39.2009 4.8896 39.2114 4.94219 39.2266C5.21223 39.299 5.51071 39.3567 6.0745 39.3142C6.31108 39.3291 6.43826 39.3595 6.36764 39.4022C6.32511 39.4256 6.17323 39.463 6.08512 39.466C5.47607 39.4929 4.86704 39.5197 4.27176 39.533C3.99254 39.54 3.77979 39.5517 3.60728 39.611C3.48495 39.651 3.55382 39.6886 3.79139 39.7176C3.99922 39.7424 4.06106 39.7837 4.05013 39.8379C4.02215 39.9642 3.80488 40.0155 3.10116 40.0569C2.59531 40.0859 2.4722 40.115 2.36978 40.2291C2.34223 40.2562 2.27152 40.2958 2.32399 40.3094C2.6464 40.3938 2.8607 40.5109 3.45751 40.5195C3.69322 40.5219 3.94216 40.5045 4.0915 40.535C4.24084 40.5654 4.37603 40.6032 4.53259 40.6315C4.72632 40.6652 4.8611 40.6998 4.77528 40.7357C4.63251 40.7991 4.39852 40.8202 4.12619 40.8204C3.89071 40.8211 3.64156 40.837 3.39919 40.8445C2.96582 40.8575 2.61716 40.9228 2.5707 40.9952C2.44423 41.1865 2.31027 41.3767 2.19845 41.567C2.18533 41.59 2.22383 41.6156 2.28374 41.6303C2.49343 41.6817 2.71763 41.7289 2.93454 41.7782C3.18873 41.8344 3.58334 41.7926 3.92127 41.7831C4.3988 41.7702 4.39853 41.7686 5.04629 41.8743C5.29949 41.9164 5.73003 41.8627 5.99012 41.898C6.07189 41.9096 6.19839 41.929 6.17751 41.9462C6.14963 41.9686 6.00431 41.9945 5.89509 42.0116C5.7932 42.0282 5.66904 42.0416 5.55884 42.0445C4.22256 42.0924 2.89342 42.1366 1.55725 42.1859C1.32963 42.194 1.08299 42.2458 1.00581 42.3C0.928411 42.351 0.954146 42.4043 0.943108 42.457C1.16001 42.5063 1.4058 42.5489 1.59373 42.6049C1.73662 42.6484 1.89944 42.6606 2.178 42.6443C2.54457 42.6234 2.90483 42.6171 3.316 42.6025C4.09376 42.7777 4.85758 42.9649 5.69393 43.1361C6.03 43.2054 5.95613 43.3049 6.02894 43.3989C6.10122 43.4851 6.59096 43.4367 6.92244 43.4403C7.18766 43.4437 7.27894 43.4877 7.17881 43.5293C7.12163 43.5537 6.9915 43.5864 6.88895 43.5936C6.64723 43.6105 6.40454 43.6133 6.16227 43.6224C5.92001 43.6315 5.64201 43.6556 5.44238 43.6428C5.25019 43.6311 5.12187 43.5866 4.99418 43.5499C4.85151 43.5096 4.66731 43.5052 4.38875 43.5215C4.02962 43.5435 3.66974 43.5545 3.31006 43.5686C2.91879 43.6573 2.51268 43.7455 2.13628 43.8363C2.06391 43.8539 2.0517 43.8909 2.06066 43.9139C2.07958 43.9739 1.97236 44.0192 1.73273 44.0658C1.52938 44.1052 1.36342 44.153 1.17516 44.1976C1.32461 44.2296 1.48866 44.2591 1.60903 44.2963C1.87208 44.3738 2.19922 44.4201 2.75568 44.3781C2.97969 44.4237 3.16069 44.4866 3.44931 44.5089C3.72317 44.5306 4.18181 44.4577 4.39336 44.5357C4.49908 44.5739 4.6566 44.6148 4.85568 44.6197C5.17272 44.6274 5.58181 44.5831 5.77106 44.6579C5.88443 44.7003 6.04869 44.7345 6.26198 44.7322C6.50468 44.7293 6.75388 44.715 6.93175 44.7325C7.02807 44.7415 7.13238 44.7594 7.13391 44.7813C7.1349 44.7954 6.99005 44.8275 6.88816 44.8441C6.7937 44.8617 6.66959 44.8782 6.5595 44.8828C6.1926 44.899 5.83249 44.9069 5.4656 44.9231C5.36283 44.9271 5.24644 44.9463 5.13722 44.9634C4.81668 45.0109 4.8408 45.0407 5.10111 45.0791C5.36131 45.116 5.54945 45.1736 5.76636 45.2229C6.00152 45.2175 6.29414 45.1923 6.45736 45.2108C6.73177 45.2404 6.92709 45.2975 7.1511 45.3432C7.39347 45.3357 7.64272 45.3214 7.87099 45.3227C7.96665 45.3223 8.01304 45.3537 8.09504 45.3684C8.24427 45.3973 8.37283 45.4449 8.57191 45.4498C8.89617 45.4555 9.29094 45.4169 9.4874 45.4896C9.60078 45.532 9.7729 45.5735 9.97821 45.5623C10.55 45.5286 10.7977 45.5978 11.0964 45.6587C11.3204 45.7044 11.787 45.6403 12.033 45.6844C12.1969 45.7123 12.3176 45.7526 12.4813 45.7789C12.5484 45.7899 12.688 45.788 12.7982 45.785C13.4005 45.7665 14.0096 45.7412 14.612 45.7243C14.7076 45.7223 14.7972 45.7396 14.8717 45.7533C15.0284 45.7832 15.1275 45.8329 15.3198 45.8462C15.5121 45.8595 15.783 45.8406 16.018 45.832C16.7741 45.8027 16.8323 45.7924 17.1859 45.9013C17.4718 45.9899 18.1477 45.8655 18.3831 45.9686C18.5197 46.0283 18.7653 46.0677 19.198 46.0453C19.8067 46.0138 20.4094 46.0015 21.0188 45.9793C21.5621 45.9602 21.5548 45.9607 22.151 46.0653C22.4193 46.1126 22.8069 46.0761 23.152 46.0645C23.5192 46.0514 23.8574 46.0466 24.0386 46.1126C24.2198 46.177 24.5438 46.1795 24.9181 46.1644C25.2632 46.1512 25.6509 46.1163 25.9263 46.1599C26.596 46.2641 26.5888 46.2662 27.0514 46.2495C27.7783 46.2239 28.5052 46.1982 29.2322 46.1741C29.7168 46.1575 30.2224 46.1253 30.679 46.128C31.0103 46.13 31.1629 46.2074 31.3796 46.2536C31.9819 46.2351 32.5841 46.2166 33.1863 46.1965C34.0308 46.1689 34.8824 46.1376 35.7342 46.1079C36.1046 46.1418 36.1652 46.2697 36.7809 46.2329C37.1474 46.2105 37.5077 46.2057 37.8748 46.1926C38.4843 46.172 39.0869 46.1582 39.6956 46.1266C40.1576 46.1022 40.244 46.1811 40.4894 46.2174C40.5713 46.2306 40.6465 46.252 40.742 46.2501C41.6973 46.2273 42.6794 46.1681 43.6141 46.1672C43.7098 46.1668 43.8 46.1935 43.8236 46.2155C43.8392 46.227 43.7163 46.2591 43.6365 46.2757C43.5421 46.2949 43.4185 46.3161 43.3157 46.3202C40.2833 46.4268 37.2508 46.5319 34.2183 46.6386C33.7924 46.6527 33.7925 46.6542 32.7477 46.5543C32.6588 46.5463 32.555 46.5379 32.4448 46.5409C31.9601 46.5559 31.4686 46.5792 30.9908 46.5891C30.6013 46.5974 30.2804 46.6387 30.006 46.7146C29.8111 46.7691 29.6068 46.7959 29.3575 46.8102C29.0789 46.825 28.8947 46.8206 28.7306 46.7896C28.5141 46.7465 28.3989 46.6791 27.951 46.6947C25.8881 46.7713 23.8244 46.8401 21.7684 46.9115C21.4843 46.9534 21.3475 46.996 21.4234 47.03C21.469 47.0504 21.5592 47.0756 21.6473 47.0726C22.4919 47.0465 23.3435 47.0153 24.1881 46.9877C24.3056 46.9842 24.4665 46.9698 24.5335 46.9808C24.8607 47.0287 24.986 47.1348 25.5945 47.1001C25.9465 47.0802 26.307 47.0786 26.6454 47.0769C26.7411 47.0765 26.8313 47.1033 26.8549 47.1252C26.8631 47.1372 26.7476 47.1689 26.6604 47.186C26.3413 47.2539 25.964 47.2252 25.6439 47.2791C25.5348 47.2977 25.382 47.3242 25.3613 47.3445C25.3479 47.3627 25.4744 47.3822 25.5635 47.3933C25.6451 47.4033 25.7559 47.4097 25.8661 47.4067C26.8355 47.3751 27.8052 47.345 28.774 47.3056C29.1703 47.2889 29.4513 47.3086 29.6321 47.3683C29.7677 47.4123 29.9308 47.4292 30.1804 47.4196C31.8765 47.3592 33.5729 47.305 35.276 47.2394C35.7017 47.2222 35.9252 47.2585 36.1057 47.3135C36.2486 47.357 36.411 47.3645 36.6827 47.355C39.1129 47.2668 41.529 47.1891 43.959 47.0978C44.4068 47.0806 44.5434 47.1387 44.7745 47.1808C44.8565 47.1955 44.9094 47.2169 45.0129 47.2223C45.1163 47.2276 45.248 47.2169 45.3727 47.2113C47.3112 47.1434 49.2501 47.0801 51.1955 47.007C51.6507 46.9893 51.7439 47.0615 51.9821 47.0999C52.0639 47.1114 52.1392 47.1345 52.2347 47.1325C53.6887 47.0843 55.1425 47.033 56.5964 46.9832C57.5657 46.9501 58.5349 46.9169 59.5041 46.8822C59.9813 46.8645 59.9814 46.8661 60.6364 46.9697C60.7109 46.9818 60.8149 46.995 60.9105 46.993C63.7009 46.8985 66.4836 46.7999 69.2739 46.7039C69.5088 46.6953 69.6798 46.7195 69.8007 46.7646C69.9216 46.8096 70.0928 46.8338 70.3204 46.8257C72.5013 46.7519 74.6821 46.6764 76.87 46.5974C77.2664 46.5822 77.5473 46.6003 77.728 46.6585C77.8636 46.7025 78.0267 46.7194 78.2763 46.7098C80.457 46.6328 82.6382 46.5605 84.826 46.4799C85.2445 46.4648 85.4532 46.5036 85.6627 46.5519C85.7374 46.5687 85.7986 46.6006 85.8867 46.5976C86.9738 46.5656 88.0537 46.5357 89.1472 46.4891C89.6022 46.4699 89.7607 46.5249 89.9482 46.5747C90.0982 46.6145 90.2679 46.62 90.5467 46.6067C91.1556 46.5783 91.7581 46.5629 92.3532 46.548C92.4414 46.5466 92.5537 46.5733 92.5626 46.5947C92.5801 46.6344 92.4135 46.6744 92.1362 46.7079C89.2285 46.809 86.3135 46.9106 83.4058 47.0117C82.9285 47.0278 82.9284 47.0278 82.2735 46.9242C82.199 46.9121 82.0949 46.8989 81.9921 46.9014C79.2018 46.9974 76.419 47.0945 73.6287 47.1905C73.3937 47.1991 73.2228 47.1748 73.1018 47.1298C72.9809 47.0848 72.8098 47.0606 72.5822 47.0686C69.9167 47.1607 67.2512 47.2511 64.5788 47.3483C64.1824 47.3635 63.9016 47.3469 63.7207 47.2872C63.5852 47.2432 63.4221 47.2263 63.1725 47.2359C60.6247 47.326 58.0837 47.4109 55.5288 47.5046C55.2719 47.5147 55.0847 47.5734 55.1023 47.6146C55.1112 47.636 55.2234 47.6643 55.3115 47.6613C56.6409 47.6203 57.9632 47.5813 59.2991 47.5272C59.7468 47.5085 59.8833 47.5681 60.1144 47.6102C60.1891 47.6254 60.2496 47.6479 60.3456 47.6522C60.449 47.6576 60.5807 47.6468 60.7055 47.6412C63.8556 47.5326 67.0059 47.4255 70.1629 47.3102C70.6181 47.2941 70.7112 47.3646 70.9494 47.403C71.0313 47.4162 71.1066 47.4392 71.202 47.4357C72.1715 47.4056 73.1407 47.3709 74.1098 47.3362C75.806 47.2773 77.5022 47.2185 79.2057 47.1591C79.6976 47.142 79.6977 47.142 80.3379 47.2451C80.4123 47.2572 80.5165 47.2719 80.6119 47.2684C85.0984 47.1135 89.585 46.9587 94.0713 46.8022C94.3063 46.7937 94.4772 46.8179 94.5981 46.8629C94.719 46.9064 94.89 46.9322 95.1177 46.9257C101.183 46.7155 107.241 46.5058 113.306 46.2924C113.702 46.2789 113.983 46.2923 114.164 46.3536C114.292 46.3981 114.462 46.4145 114.712 46.4064C121.379 46.1746 128.046 45.9427 134.721 45.7119C139.207 45.5555 143.694 45.4022 148.18 45.2426C148.591 45.228 148.814 45.2612 149.024 45.311C149.092 45.3283 149.16 45.3597 149.248 45.3567C150.21 45.3287 151.172 45.2976 152.134 45.2665C152.432 45.2033 152.729 45.1416 153.027 45.0783C153.258 45.1219 153.482 45.1676 153.713 45.2112C155.167 45.1551 156.6 45.1257 158.066 45.0452C158.162 45.0401 158.262 45.0032 158.364 44.9804C159.038 44.8341 159.427 44.8148 159.868 44.916C160.025 44.9522 160.16 44.9853 160.395 44.9767C161.122 44.9542 161.856 44.9217 162.576 44.9044C162.965 44.8945 163.287 44.8563 163.561 44.7805C163.756 44.726 163.96 44.6944 164.202 44.6869C165.539 44.6406 166.868 44.5933 168.204 44.5502C168.3 44.5467 168.389 44.5671 168.464 44.5808C168.62 44.6107 168.755 44.6453 168.905 44.6773C169.101 44.6369 169.319 44.6012 169.478 44.5555C169.68 44.5004 169.871 44.4871 170.15 44.4786C175.481 44.2962 180.819 44.1085 186.15 43.9276C186.605 43.9115 186.798 43.8319 187.104 43.776C187.205 43.7563 187.307 43.7335 187.416 43.7226C187.533 43.7113 187.658 43.712 187.776 43.7085C191.778 43.5702 195.78 43.4304 199.781 43.2921C200.31 43.274 200.31 43.274 201.087 43.1222C201.181 43.103 201.305 43.0802 201.408 43.0777C203.229 43.0117 205.05 42.9504 206.863 42.8865C207.098 42.878 207.294 42.8391 207.504 42.7882C207.917 42.6886 207.946 42.6866 208.261 42.7684C208.411 42.8066 208.567 42.8256 208.809 42.8228C209.074 42.82 209.286 42.8005 209.489 42.7579C209.78 42.6983 209.988 42.6177 210.436 42.6037C212.374 42.542 214.32 42.4674 216.251 42.4078C216.692 42.3943 216.923 42.3247 217.213 42.265C217.315 42.2438 217.408 42.2152 217.518 42.2028C217.627 42.1905 217.76 42.1922 217.877 42.1887C220.301 42.1042 222.731 42.0176 225.147 41.9399C225.602 41.9253 225.795 41.8442 226.101 41.7883C226.202 41.7686 226.318 41.7385 226.413 41.7349C227.867 41.682 229.328 41.6318 230.782 41.582C231.304 41.5644 231.304 41.5629 232.088 41.4121C232.182 41.3929 232.306 41.3717 232.409 41.3676C234.105 41.3072 235.808 41.2479 237.505 41.189C238.026 41.1714 238.026 41.1714 239.522 40.985C239.631 40.9711 239.748 40.9535 239.858 40.9489C241.796 40.881 243.742 40.811 245.681 40.7478C246.07 40.7348 246.391 40.6997 246.666 40.6239C246.861 40.5694 247.064 40.5378 247.307 40.5303C249.488 40.4549 251.676 40.3758 253.85 40.3056C254.268 40.292 254.537 40.2387 254.826 40.1728C254.921 40.1505 255.014 40.1219 255.124 40.1079C255.233 40.094 255.358 40.0916 255.476 40.0881C257.657 40.0126 259.844 39.932 262.018 39.8633C262.459 39.8498 262.69 39.7802 262.98 39.7206C263.081 39.6993 263.189 39.6635 263.277 39.6589C264.129 39.6261 264.98 39.5902 265.825 39.5704C266.281 39.5605 266.474 39.4747 266.779 39.4188C266.881 39.4007 266.996 39.369 267.092 39.3654C268.912 39.2995 270.734 39.2366 272.547 39.1758C272.804 39.1673 272.994 39.1399 273.196 39.0849C273.463 39.0111 273.777 38.9672 274.173 38.9567C275.018 38.9338 275.87 38.8995 276.721 38.8698C277.221 38.8522 277.221 38.8522 278.739 38.6642C278.848 38.6503 278.965 38.6327 279.075 38.6282C280.528 38.5768 281.989 38.5234 283.436 38.4773C283.826 38.4658 284.147 38.4292 284.421 38.3534C284.616 38.2989 284.813 38.2678 285.062 38.2598C286.399 38.2135 287.728 38.1678 289.064 38.1215C289.549 38.1049 290.035 38.1009 290.518 38.0671C290.869 38.0409 291.121 37.9478 291.433 37.8883C291.52 37.8712 291.667 37.8734 291.785 37.8684C293.481 37.8095 295.184 37.7455 296.874 37.695C297.314 37.6815 297.545 37.6119 297.835 37.5522C297.937 37.531 298.045 37.4951 298.133 37.4905C298.742 37.4652 299.344 37.4467 299.953 37.4246C300.68 37.3989 301.414 37.3665 302.134 37.3507C302.722 37.3379 302.932 37.1864 303.401 37.1489C303.76 37.1191 304.128 37.1201 304.487 37.1075C305.214 37.0819 305.941 37.0593 306.668 37.0305C306.925 37.0204 307.125 37.0316 307.209 37.0823C307.225 37.0923 307.102 37.1245 307.022 37.1442C306.059 37.3719 306.059 37.372 305.075 37.4062C304.466 37.4268 303.863 37.4468 303.254 37.4706C303.151 37.4746 303.035 37.4953 302.933 37.5119C302.642 37.559 302.674 37.5882 302.927 37.6272C303.18 37.6661 303.375 37.7217 303.592 37.771C303.889 37.7093 304.179 37.6481 304.477 37.5864C304.719 37.5773 304.961 37.5698 305.204 37.5607C306.415 37.5169 307.627 37.4747 308.838 37.4277C308.926 37.4247 309.034 37.3857 309.135 37.3629C309.425 37.297 309.686 37.2395 310.112 37.227C311.199 37.1965 312.293 37.1531 313.38 37.1164C313.857 37.1004 313.857 37.1003 314.685 36.9449C314.78 36.9273 314.903 36.9061 315.006 36.902C316.1 36.8617 317.187 36.825 318.281 36.7863C318.516 36.7777 318.741 36.7415 318.907 36.6843C318.971 36.6609 318.954 36.6307 319.215 36.3545C320.065 36.0859 320.659 36.0663 321.261 36.0431C321.518 36.033 321.746 36.0249 321.917 36.0445C322.006 36.0555 322.117 36.0729 322.119 36.0932C322.12 36.1089 321.96 36.1452 321.858 36.1555C321.135 36.2375 320.442 36.2199 319.73 36.2555C319.4 36.2723 319.119 36.3471 319.066 36.4404C319.053 36.4664 319.033 36.4946 319.013 36.5212C318.993 36.5478 318.98 36.5754 318.96 36.602C318.675 36.6298 318.504 36.6134 318.376 36.5689C318.27 36.5322 318.12 36.4924 317.921 36.4827C317.721 36.4715 317.451 36.4951 317.209 36.5042C316.974 36.5128 316.716 36.5104 316.497 36.5367C316.278 36.5646 316.105 36.6223 315.902 36.6648C315.808 36.6855 315.692 36.7141 315.597 36.7176C314.753 36.7499 313.916 36.7817 313.078 36.8056C312.638 36.8176 312.422 36.8987 312.147 36.9588C311.929 37.0055 311.709 37.0131 311.667 36.9436C311.56 36.7781 311.892 36.6825 312.641 36.6632C313.259 36.6483 313.816 36.6141 314.292 36.4738C314.357 36.4551 314.51 36.4381 314.605 36.4346C315.207 36.4114 315.802 36.3934 316.404 36.3702C316.514 36.3656 316.631 36.3511 316.733 36.3377C318.222 36.1487 318.221 36.1471 318.728 36.1306C318.971 36.1231 319.205 36.1145 319.2 36.354C319.679 36.5768 320.413 36.5428 321.126 36.5307C321.589 36.5219 321.782 36.4392 322.08 36.3822C322.182 36.3625 322.29 36.3298 322.385 36.3263C323.964 36.2678 325.535 36.213 327.107 36.1613C327.371 36.1522 327.561 36.1295 327.763 36.0745C328.023 36.0044 328.314 35.951 328.733 35.9406C329.57 35.9198 330.421 35.8838 331.273 35.8557C331.707 35.8412 331.707 35.8412 332.572 35.6832C332.666 35.6656 332.79 35.6443 332.892 35.6403C333.744 35.6075 334.589 35.5814 335.433 35.5507C335.668 35.5421 335.879 35.5054 336.059 35.4503C336.239 35.3953 336.457 35.358 336.685 35.3499C337.537 35.3187 338.381 35.2911 339.225 35.2603C339.328 35.2563 339.452 35.2366 339.546 35.219C340.433 35.0595 340.433 35.0595 340.844 35.0465C341.447 35.028 342.063 34.9959 342.658 34.9857C343.239 34.9765 343.533 34.8648 343.925 34.787C345.012 34.7472 346.105 34.7006 347.185 34.6692C347.626 34.6572 347.857 34.5892 348.147 34.528C348.248 34.5067 348.349 34.4698 348.444 34.4647C348.811 34.4454 349.171 34.4375 349.531 34.4249C349.891 34.4123 350.258 34.3993 350.617 34.3867C351.024 34.3126 351.288 34.1872 351.876 34.1822C352.23 34.1796 352.603 34.1581 352.963 34.1456C353.323 34.133 353.69 34.1199 354.05 34.1073C354.292 34.0982 354.542 34.0855 354.777 34.0832C355.211 34.0765 355.418 33.9849 355.723 33.929C355.825 33.9109 355.941 33.8839 356.036 33.8804C356.763 33.8516 357.497 33.8191 358.21 33.8055C358.761 33.7952 359.131 33.7221 359.515 33.6292C359.594 33.6095 359.733 33.592 359.836 33.5879C360.687 33.5551 361.532 33.5291 362.376 33.4984C362.604 33.4903 362.822 33.4499 363.002 33.3964C363.19 33.3408 363.401 33.3056 363.636 33.297C364.48 33.2663 365.332 33.2382 366.176 33.2075C366.279 33.2034 366.403 33.1822 366.497 33.163C367.31 33.0086 367.31 33.0071 367.795 32.992C367.913 32.9885 368.037 32.983 368.155 32.9795C368.757 32.9594 369.38 32.9237 369.969 32.9202C370.646 32.9154 371.133 32.8279 371.603 32.7053C372.205 32.6821 372.821 32.6501 373.409 32.6404C373.85 32.6331 374.08 32.5573 374.37 32.4976C374.472 32.4764 374.58 32.4405 374.668 32.4375C375.519 32.4047 376.371 32.3688 377.208 32.3495C377.664 32.3397 377.857 32.2554 378.162 32.1979C378.264 32.1782 378.372 32.1486 378.468 32.1451C378.952 32.1238 379.437 32.1088 379.921 32.0922C380.487 32.0731 380.487 32.0715 381.227 31.9238C381.575 31.8538 381.93 31.8652 382.275 31.8521C382.642 31.839 382.987 31.8244 383.275 31.7397C383.455 31.6862 383.673 31.6458 383.901 31.6362C384.385 31.6165 384.877 31.5962 385.355 31.5864C385.737 31.5785 386.066 31.543 386.34 31.4656C386.535 31.4111 386.739 31.3764 386.981 31.3689C388.068 31.3306 389.162 31.2935 390.248 31.2537C390.344 31.2501 390.475 31.2268 390.562 31.2066C390.765 31.1641 390.96 31.1189 391.156 31.0738C391.633 31.0546 392.124 31.0265 392.595 31.0157C393.094 31.0027 393.549 30.9788 393.931 30.8656C394.01 30.8412 394.126 30.8064 394.221 30.8013C394.588 30.7819 394.948 30.7725 395.307 30.7599C395.667 30.7473 396.034 30.7342 396.394 30.7217C396.809 30.6533 397.065 30.5222 397.653 30.5172C398.006 30.5146 398.38 30.4931 398.74 30.4806C399.1 30.468 399.467 30.4565 399.827 30.4423C399.944 30.4372 400.077 30.4359 400.179 30.4224C400.288 30.4085 400.382 30.3799 400.476 30.3576C400.766 30.2917 401.034 30.2274 401.453 30.2248C401.806 30.2221 402.18 30.2007 402.54 30.1897C403.032 30.1726 403.032 30.1726 403.838 30.0171C404.165 29.9534 404.542 29.9805 404.855 29.924C405.065 29.8857 405.246 29.8337 405.449 29.7928C405.536 29.7757 405.675 29.7613 405.778 29.7572C406.262 29.7375 406.754 29.7173 407.232 29.7075C407.621 29.6991 407.942 29.6578 408.209 29.5825C408.404 29.528 408.601 29.4969 408.85 29.4889C410.062 29.4482 411.273 29.4012 412.478 29.3658C412.889 29.3543 413.217 29.3047 413.44 29.2324C413.822 29.1082 414.379 29.1841 414.776 29.0776C415.022 29.0117 415.267 28.9379 415.723 28.9297C416.561 28.912 417.412 28.8745 418.256 28.8437C418.554 28.7805 418.851 28.7172 419.156 28.6534C419.64 28.6369 420.125 28.6203 420.609 28.6021C420.969 28.5896 421.336 28.578 421.696 28.5639C421.814 28.5588 421.938 28.5564 422.048 28.5409C422.157 28.5254 422.244 28.4989 422.345 28.476C422.845 28.364 422.845 28.3624 423.682 28.3353C424.042 28.3243 424.387 28.3096 424.683 28.226C424.957 28.1487 425.286 28.1147 425.668 28.1053C426.388 28.0864 427.115 28.0591 427.849 28.0298C428.077 28.0218 428.287 27.9803 428.475 27.9263C428.756 27.8421 429.108 27.8238 429.468 27.8159C429.946 27.8046 430.416 27.7937 430.813 27.6779C430.892 27.6534 431.015 27.6181 431.103 27.6136C431.704 27.5841 432.313 27.551 432.901 27.5397C433.489 27.5285 433.768 27.4115 434.167 27.3363C434.77 27.3147 435.379 27.2925 435.981 27.2709C436.098 27.2674 436.239 27.2717 436.341 27.2567C436.77 27.1936 437.011 27.0588 437.607 27.0533C437.953 27.0496 438.327 27.0298 438.686 27.0094C438.781 27.0043 438.904 26.9689 438.969 26.944C439.004 26.9305 438.966 26.9033 438.921 26.8907C438.786 26.8561 438.622 26.8267 438.501 26.7895C438.486 26.7842 438.623 26.7464 438.703 26.7282C438.899 26.6862 439.126 26.675 439.391 26.6691C439.619 26.6642 439.852 26.6259 440.01 26.5676C440.074 26.5442 440.05 26.5145 439.903 26.4209C439.898 26.3442 440.054 26.3679 440.109 26.4144C440.195 26.4808 440.043 26.515 439.747 26.4964C439.54 26.4825 439.435 26.449 439.483 26.4125C439.512 26.3933 439.649 26.3616 439.903 26.4209C440.555 26.4697 441.039 26.4531 441.524 26.4366C441.649 26.4325 441.797 26.438 441.884 26.4224C442.196 26.3628 442.486 26.2969 442.791 26.2332C443.143 26.218 443.474 26.2184 443.814 26.1333C444.291 26.0134 444.314 26.0197 444.784 26.0041C445.026 25.9966 445.269 25.9875 445.511 25.9785C445.753 25.9694 445.942 25.9326 446.152 25.8817C446.579 25.778 446.615 25.7754 446.908 25.8556C447.081 25.9049 447.199 25.917 447.41 25.874C448.106 25.7293 448.113 25.7226 448.716 25.7087C449.216 25.6974 449.685 25.6709 450.045 25.556C450.29 25.476 450.371 25.4845 450.573 25.5364C451.113 25.6732 451.354 25.6532 452.335 25.4589C452.792 25.3671 453.273 25.398 453.742 25.373C454.138 25.3516 454.414 25.2946 454.436 25.1939C454.454 25.1314 454.516 25.0829 454.779 25.0441C454.881 25.0291 455.004 25.0095 455.107 25.0054C455.716 24.9817 456.319 24.9616 456.928 24.941C457.236 24.9305 457.41 24.9922 457.358 25.0934C457.3 25.2013 457.419 25.2307 457.861 25.2297C458.126 25.2285 458.338 25.2105 458.549 25.1674C458.781 25.1197 458.713 25.0962 458.504 25.0542C458.004 24.9508 458.056 24.8621 458.679 24.7226C458.897 24.6744 459.071 24.6323 459.118 24.5802C459.146 24.5532 459.114 24.5223 459.179 24.4989C459.531 24.369 460.024 24.2668 460.577 24.1778C461.115 24.1827 461.476 24.0867 461.882 24.0016C462.202 23.9353 462.585 23.9462 462.93 23.9378C463.32 23.9278 463.641 23.8928 463.916 23.8154C464.111 23.7609 464.314 23.7278 464.557 23.7187C465.041 23.7021 465.533 23.6787 466.011 23.6705C466.422 23.6637 466.728 23.6109 466.98 23.5397C467.298 23.4499 467.66 23.4702 467.996 23.4372C468.45 23.3945 468.667 23.2394 469.263 23.2354C469.616 23.2328 469.983 23.215 470.35 23.1956C470.445 23.1905 470.56 23.1557 470.639 23.1313C471.022 23.0181 471.476 22.991 471.976 22.9812C472.322 22.9744 472.659 22.9665 472.992 22.8834C473.542 22.7443 474.151 22.6136 474.731 22.4803C474.806 22.4027 474.742 22.3223 475.156 22.2508C475.374 22.2135 475.577 22.1663 475.743 22.1185C475.945 22.0619 476.135 22.0377 476.399 22.0302C476.877 22.0188 477.376 21.9887 477.846 21.9841C478.28 21.9789 478.548 21.9083 478.808 21.8413C479.018 21.7873 479.214 21.7547 479.472 21.765C479.738 21.7731 479.927 21.7426 480.137 21.6855C480.433 21.6066 480.455 21.6113 481.45 21.5244C481.553 21.5157 481.676 21.4835 481.733 21.4591C481.761 21.4461 481.693 21.4194 481.641 21.4073C481.574 21.3931 481.469 21.3784 481.374 21.3804C480.287 21.4155 479.193 21.4558 478.106 21.4909C477.996 21.4939 477.878 21.4911 477.796 21.4811C477.707 21.47 477.596 21.4542 477.594 21.4323C477.593 21.4167 477.738 21.3876 477.84 21.3695C478.16 21.311 478.545 21.3391 478.857 21.2764C479.067 21.2349 479.24 21.1851 479.451 21.1452C479.538 21.1281 479.678 21.1199 479.788 21.1154C480.155 21.1007 480.515 21.0913 480.882 21.075C480.984 21.0694 481.1 21.0456 481.195 21.0264C481.891 20.8833 481.891 20.8833 482.501 20.8612C482.743 20.8521 483.001 20.8576 483.227 20.8324C483.446 20.8076 483.634 20.752 483.83 20.7116C484.236 20.6266 484.62 20.5446 484.641 20.4205C484.653 20.3725 484.891 20.3149 485.133 20.2949C485.367 20.2754 485.617 20.2752 485.86 20.2677C486.432 20.2465 486.432 20.2465 487.165 20.0993C487.369 20.0583 487.588 20.0398 487.853 20.0371C487.956 20.0361 488.08 20.0212 488.189 20.0056C488.547 19.9571 488.545 19.9273 488.306 19.8874C487.971 19.8275 488 19.8176 488.918 19.6826C489.267 19.6314 489.535 19.5624 489.825 19.4981C490.296 19.3944 490.289 19.3949 489.967 19.3246C489.893 19.3093 489.825 19.292 489.75 19.2752C489.534 19.229 489.36 19.1751 488.921 19.1996C488.437 19.2271 487.952 19.2359 487.467 19.2524C486.997 19.268 486.87 19.2392 486.906 19.1297C486.949 18.9977 487.043 18.977 487.885 18.9196C488.127 18.9027 488.338 18.8754 488.519 18.8203C488.427 18.7764 488.263 18.7485 488.028 18.7555C487.426 18.774 486.817 18.7962 486.215 18.8178C485.73 18.8344 485.245 18.851 484.761 18.8676C484.46 18.8776 484.264 18.8096 484.338 18.7132C484.378 18.6584 484.411 18.6042 484.444 18.55C484.517 18.4411 484.669 18.4037 485.16 18.3741C485.285 18.3669 485.403 18.3713 485.52 18.3599C485.995 18.3157 486.213 18.1699 486.787 18.1566C487.264 18.1452 487.763 18.115 488.234 18.1104C488.668 18.1053 488.905 18.032 489.203 17.9687C489.304 17.9475 489.412 17.9101 489.5 17.9055C490.109 17.8802 490.718 17.8549 491.314 17.8431C491.593 17.8362 491.761 17.815 491.978 17.7621C492.499 17.6344 492.514 17.6381 493.3 17.6115C493.872 17.5934 493.88 17.5898 494.605 17.4431C494.809 17.4021 495.028 17.3868 495.293 17.3809C495.638 17.3725 495.999 17.3724 496.356 17.3238C496.466 17.3099 496.603 17.2813 496.639 17.2584C496.66 17.2428 496.555 17.2156 496.466 17.2107C495.816 17.1744 495.062 17.2413 494.357 17.2576C494.136 17.2635 493.919 17.3087 493.738 17.3637C493.551 17.4193 493.347 17.4508 493.098 17.4604C492.613 17.477 492.121 17.5004 491.644 17.5086C491.232 17.5154 490.949 17.5714 490.666 17.6399C490.572 17.6622 490.465 17.6996 490.369 17.7047C489.283 17.7492 488.189 17.7942 487.11 17.8257C486.676 17.8371 486.431 17.9046 486.14 17.9674C486.039 17.9886 485.939 18.0255 485.843 18.0306C485.477 18.05 485.116 18.0579 484.749 18.071C483.413 18.1172 482.084 18.163 480.748 18.2124C480.659 18.2154 480.552 18.2559 480.45 18.2772C480.255 18.3192 480.051 18.3602 479.848 18.4011C479.481 18.4142 479.121 18.4236 478.754 18.4399C478.49 18.452 478.254 18.4465 478.213 18.3896C478.188 18.352 478.428 18.2991 478.684 18.2843C478.934 18.27 479.184 18.2714 479.388 18.2367C480.399 18.0653 480.399 18.0638 481.037 18.0395C481.595 18.0194 481.538 18.0392 482.022 17.9188C482.232 17.8663 482.421 17.8311 482.664 17.8236C483.266 17.8035 483.875 17.7829 484.485 17.7592C484.58 17.7556 484.703 17.7313 484.798 17.7121C485.509 17.568 485.509 17.5649 486.104 17.5469C486.882 17.5207 486.912 17.5265 487.425 17.3947C487.78 17.3038 488.112 17.3262 488.457 17.3052C488.848 17.2165 489.277 17.1315 489.631 17.0376C490.05 16.9265 490.498 16.9093 490.983 16.899C491.343 16.8911 491.695 16.8728 491.983 16.7881C492.257 16.7092 492.594 16.6793 492.976 16.6684C493.321 16.6584 493.675 16.6635 494.031 16.604C494.126 16.588 494.271 16.5542 494.262 16.5407C494.254 16.5193 494.156 16.4946 494.06 16.4919C493.382 16.4748 492.642 16.5281 491.93 16.5481C491.834 16.55 491.711 16.576 491.617 16.5951C491.413 16.6377 491.218 16.6843 491.022 16.7279C490.663 16.7436 490.296 16.7661 489.943 16.7719C489.671 16.7768 489.466 16.7927 489.271 16.8441C489.09 16.8913 488.896 16.9474 488.677 16.9737C488.458 17 488.2 16.9945 487.957 17.002C487.715 17.0095 487.437 17.0337 487.245 17.022C487.053 17.0102 486.931 16.9636 486.804 16.9285C486.661 16.8897 486.47 16.8874 486.191 16.9022C485.934 16.9154 485.73 16.936 485.542 16.9931C485.463 17.0176 485.354 17.0393 485.245 17.0595C485.143 17.0777 485.027 17.1031 484.932 17.1066C483.838 17.1469 482.751 17.1836 481.657 17.2223C481.114 17.2415 481.121 17.241 480 17.4122C479.898 17.4272 479.774 17.4468 479.671 17.4509C479.062 17.4746 478.46 17.4947 477.85 17.5153C477.234 17.5364 477.241 17.539 476.2 17.7109C476.011 17.743 475.731 17.7374 475.504 17.7564C475.029 17.7975 474.804 17.9454 474.245 17.9593C473.768 17.9706 473.269 18.0008 472.791 18.0059C472.357 18.0111 472.112 18.0833 471.822 18.146C471.72 18.1673 471.613 18.2063 471.524 18.2093C470.431 18.2512 469.344 18.2878 467.893 18.3846C467.534 18.4097 467.693 18.3655 467.927 18.3382C468.263 18.2974 468.375 18.3226 468.196 18.398C468.067 18.451 467.878 18.4863 467.724 18.4861C467.643 18.4855 467.538 18.4629 467.893 18.3846C468.27 18.2985 468.246 18.2671 468.31 18.2437C468.468 18.1871 468.694 18.1524 468.929 18.1423C469.296 18.1276 469.656 18.1182 470.023 18.102C470.126 18.0979 470.249 18.0783 470.344 18.0591C471.143 17.9057 471.15 17.8989 472.009 17.8765C472.281 17.8686 472.479 17.8547 472.689 17.8101C472.979 17.749 473.187 17.6652 473.635 17.6559C474.231 17.6442 474.84 17.6189 475.449 17.5936C475.544 17.59 475.645 17.5547 475.754 17.5345C476.052 17.4759 476.266 17.3901 476.715 17.3886C477.061 17.388 477.435 17.3682 477.802 17.3473C477.897 17.3422 478.042 17.3069 478.084 17.2835C478.17 17.2413 478.057 17.2067 477.806 17.1944C477.702 17.189 477.563 17.2019 477.446 17.2054C476.961 17.222 476.477 17.237 475.992 17.2567C475.735 17.2668 475.492 17.2603 475.458 17.2044C475.434 17.1668 475.695 17.1139 475.944 17.0997C476.311 17.0787 476.678 17.0656 477.031 17.0614C477.656 17.0523 478.197 17.005 478.696 16.8711C479.05 16.7771 479.03 16.8037 479.396 16.5736C479.488 16.5152 479.773 16.4906 480.023 16.4763C480.624 16.4421 480.9 16.3992 480.846 16.3542C480.776 16.2994 480.562 16.2955 480.29 16.3066C479.806 16.3279 479.321 16.3413 478.837 16.3579C478.719 16.3614 478.587 16.3612 478.477 16.372C478.367 16.3829 478.266 16.4088 478.172 16.4296C477.969 16.4736 477.796 16.5313 477.577 16.5576C477.358 16.584 477.1 16.5784 476.858 16.5859C476.616 16.595 476.358 16.5895 476.139 16.6158C475.92 16.6421 475.74 16.7019 475.544 16.7439C475.45 16.7646 475.334 16.7947 475.239 16.7998C474.755 16.8211 474.27 16.8345 473.785 16.8527C473.19 16.8738 473.19 16.8738 472.479 17.0211C472.276 17.0636 472.064 17.0769 471.792 17.0833C471.204 17.0992 471.197 17.1045 470.134 17.27C470.032 17.2866 469.908 17.3062 469.805 17.3087C468.711 17.349 467.625 17.3857 466.538 17.424C465.605 17.4561 465.605 17.4561 465.082 17.3355C464.693 17.2463 464.685 17.2468 465.055 17.1674C465.353 17.1026 465.619 17.0195 465.947 16.973C466.253 16.9295 466.639 16.9733 466.971 16.8778C467.137 16.83 467.354 16.7755 467.566 16.7544C467.902 16.723 468.264 16.7433 468.582 16.6519C468.741 16.6062 468.98 16.5533 469.185 16.5374C469.544 16.5091 469.911 16.5086 470.271 16.4944C470.381 16.4899 470.506 16.4812 470.608 16.4662C470.717 16.4491 470.811 16.4237 470.905 16.4014C471.194 16.3277 471.508 16.2806 471.89 16.2806C472.516 16.2808 473.071 16.22 473.548 16.086C473.612 16.0673 473.773 16.0545 473.876 16.0536C474.141 16.0508 474.368 16.0365 474.564 15.9929C474.644 15.9748 474.759 15.9447 474.744 15.9316C474.72 15.9097 474.63 15.8845 474.534 15.8833C473.842 15.8783 473.102 15.9237 472.389 15.9452C472.294 15.9488 472.178 15.9773 472.084 15.9981C471.881 16.0406 471.708 16.0998 471.489 16.1261C471.27 16.1525 471.013 16.15 470.77 16.1591C470.528 16.1682 470.27 16.1626 470.051 16.1874C469.832 16.2137 469.63 16.2672 469.456 16.3139C469.254 16.3674 469.056 16.3859 468.784 16.3892C468.431 16.3934 468.065 16.4159 467.705 16.4301C467.51 16.4736 467.314 16.5204 467.111 16.5629C467.017 16.5836 466.901 16.609 466.798 16.6146C466.314 16.6359 465.829 16.6509 465.344 16.6675C464.86 16.6841 464.86 16.6841 464.046 16.8385C463.952 16.8561 463.828 16.8774 463.725 16.8814C463.116 16.9051 462.514 16.9237 461.904 16.9474C461.669 16.956 461.459 16.9927 461.271 17.0483C461.091 17.1034 460.873 17.1422 460.645 17.1503C459.676 17.185 458.707 17.2213 457.737 17.2498C457.348 17.2613 457.019 17.2984 456.76 17.3732C456.456 17.4589 456.111 17.4673 455.751 17.4799C454.936 17.5054 454.929 17.5075 454.414 17.6237C454.313 17.6465 454.213 17.6834 454.117 17.6885C453.273 17.724 452.422 17.7614 451.584 17.7823C451.143 17.7927 450.913 17.8638 450.623 17.925C450.521 17.9463 450.413 17.9837 450.325 17.9867C449.716 18.012 449.107 18.0389 448.511 18.0491C447.916 18.0592 447.699 18.2207 447.252 18.2504C446.644 18.2913 446.041 18.2973 445.439 18.3174C444.954 18.334 444.47 18.3506 443.985 18.3672C443.5 18.3837 443.016 18.4035 442.531 18.4169C442.274 18.4239 442.085 18.4513 441.875 18.5053C441.607 18.5759 441.288 18.6391 440.998 18.7065C440.556 18.8051 440.556 18.8051 440.013 18.8242C439.895 18.8277 439.77 18.8333 439.653 18.8368C438.764 18.8643 438.764 18.8675 437.643 19.045C437.592 19.0532 437.459 19.0452 437.407 19.0363C437.25 19.0064 437.108 18.9723 436.966 18.9397C436.77 18.9786 436.53 19.0096 436.4 19.0548C436.034 19.1827 435.438 19.0844 435.064 19.2112C434.928 19.2585 434.688 19.3082 434.469 19.333C434.243 19.3583 433.985 19.3543 433.75 19.3613C433.14 19.3803 433.14 19.3819 432.61 19.2789C432.342 19.2285 431.962 19.2677 431.617 19.2761C431.256 19.284 430.911 19.2986 430.616 19.3838C430.349 19.4607 430.02 19.4978 429.631 19.5062C429.153 19.516 428.661 19.5362 428.177 19.5559C428.074 19.56 427.95 19.5765 427.848 19.5931C426.734 19.7638 426.734 19.7654 426.19 19.7829C425.948 19.7904 425.699 19.8047 425.463 19.807C425.066 19.8096 424.768 19.8635 424.486 19.9336C424.392 19.9559 424.284 19.9933 424.189 19.9984C423.705 20.0244 423.227 20.0436 422.75 20.0628C422.383 20.0774 422.017 20.0968 421.664 20.0994C421.075 20.1044 420.797 20.2262 420.397 20.3013C419.795 20.3229 419.186 20.3513 418.583 20.3652C418.304 20.3721 418.121 20.3896 417.912 20.442C417.644 20.5079 417.399 20.5786 416.957 20.5858C416.369 20.5955 415.753 20.6276 415.151 20.6508C414.752 20.7275 414.466 20.8466 413.885 20.851C413.531 20.8537 413.158 20.8751 412.798 20.8877C412.313 20.9043 411.829 20.9224 411.344 20.9375C410.823 20.955 410.83 20.9592 410.038 21.1074C409.581 21.1945 409.1 21.1667 408.631 21.1901C408.264 21.2079 408.076 21.1487 408.157 21.0502C408.239 20.9517 408.036 20.8935 407.698 20.9046C406.854 20.9337 406.002 20.9619 405.158 20.9942C405.055 20.9982 404.931 21.0179 404.837 21.0355C403.943 21.1971 403.942 21.1955 403.539 21.2096C402.936 21.2281 402.32 21.2586 401.725 21.2704C401.313 21.2787 401.015 21.3326 400.755 21.4042C400.553 21.4593 400.363 21.482 400.099 21.491C397.191 21.589 394.283 21.6948 391.383 21.7891C390.949 21.8037 390.704 21.8665 390.413 21.9292C390.312 21.9505 390.219 21.9869 390.116 21.994C389.874 22.0109 389.632 22.0138 389.389 22.0213C388.303 22.0595 387.215 22.0899 386.122 22.1381C385.66 22.1578 385.53 22.0945 385.328 22.0489C385.171 22.0142 384.994 22.0077 384.723 22.0204C384.459 22.0326 384.269 22.0538 384.066 22.1088C383.806 22.1805 383.509 22.2343 383.097 22.2411C382.619 22.2493 382.135 22.2722 381.643 22.2893C381.393 22.2989 381.201 22.284 381.116 22.2333C381.101 22.2249 381.253 22.1907 381.34 22.1705C381.63 22.103 381.904 22.0288 382.232 21.9729C382.566 21.9164 382.935 21.9284 383.287 21.9132C383.412 21.9076 383.53 21.9088 383.647 21.8991C383.757 21.8898 383.888 21.8728 383.968 21.853C384.344 21.756 384.743 21.6793 385.273 21.6847C385.726 21.6326 385.951 21.4863 386.533 21.4802C386.886 21.476 387.252 21.4598 387.619 21.442C387.715 21.4369 387.815 21.4015 387.917 21.3803C388.207 21.3207 388.437 21.2417 388.878 21.2375C389.349 21.2329 389.847 21.2028 390.325 21.1914C390.59 21.1855 390.779 21.1612 390.981 21.1062C391.242 21.0361 391.539 20.976 391.951 20.9724C392.304 20.9697 392.678 20.9483 393.038 20.9372C393.508 20.9217 393.508 20.9201 394.336 20.7647C394.431 20.7471 394.554 20.7258 394.657 20.7218C395.266 20.6981 395.869 20.6795 396.478 20.6558C396.713 20.6473 396.938 20.611 397.096 20.5544C397.161 20.531 397.137 20.5012 397.157 20.473C395.945 20.5153 394.734 20.5638 393.529 20.5962C393.074 20.6076 392.873 20.6861 392.575 20.7431C392.474 20.7628 392.366 20.7971 392.27 20.8006C391.419 20.8334 390.574 20.8641 389.73 20.8886C389.465 20.8961 389.268 20.9162 389.073 20.9754C388.576 21.1313 387.957 21.1085 387.384 21.1313C386.944 21.1495 386.801 21.1107 386.845 21.0038C386.903 20.8771 387.163 20.8211 387.839 20.7959C388.081 20.7868 388.324 20.7809 388.566 20.7702C388.801 20.7601 389.012 20.7249 389.199 20.6693C389.379 20.6143 389.597 20.577 389.825 20.5674C390.309 20.5477 390.801 20.5274 391.272 20.5181C391.661 20.5098 391.982 20.4716 392.249 20.3947C392.545 20.3095 392.898 20.299 393.25 20.2885C394.073 20.2625 394.08 20.2604 394.587 20.1463C394.689 20.1235 394.789 20.0865 394.885 20.0814C395.729 20.046 396.58 20.0069 397.41 19.9866C397.844 19.9752 398.089 19.9077 398.372 19.847C398.473 19.8258 398.574 19.7873 398.669 19.7838C399.278 19.7585 399.888 19.7332 400.483 19.7214C400.762 19.7161 400.93 19.6949 401.154 19.6415C401.69 19.5112 401.705 19.5133 402.476 19.4893C402.711 19.4823 402.969 19.4816 403.188 19.4537C403.406 19.4258 403.579 19.3681 403.782 19.3256C403.877 19.3064 403.993 19.281 404.095 19.277C404.58 19.2557 405.064 19.2406 405.549 19.224C406.004 19.2095 406.004 19.2079 406.847 19.0515C407.188 18.9867 407.55 18.996 407.895 18.9845C408.27 18.9725 408.606 18.9489 408.888 18.8679C409.169 18.7869 409.514 18.7659 409.881 18.7528C410.226 18.7413 410.58 18.7511 410.929 18.6843C411.728 18.5309 411.728 18.5293 412.227 18.5133C412.954 18.4892 413.674 18.464 414.408 18.4363C414.503 18.4328 414.626 18.4053 414.721 18.3861C414.924 18.3436 415.096 18.2843 415.315 18.258C415.534 18.2301 415.792 18.231 416.027 18.224C416.783 18.201 416.835 18.2083 417.334 18.0697C417.752 17.9555 418.288 18.0407 418.677 17.916C418.9 17.8453 419.205 17.78 419.632 17.7769C419.985 17.7742 420.351 17.7549 420.718 17.7418C421.299 17.7217 421.299 17.7201 422.024 17.5749C422.119 17.5558 422.242 17.5314 422.338 17.5279C422.822 17.5066 423.314 17.4832 423.784 17.4786C424.336 17.4731 424.683 17.389 425.089 17.3024C425.409 17.2345 425.792 17.2454 426.137 17.237C426.512 17.2265 426.849 17.1983 427.123 17.1178C427.411 17.0347 427.756 17.0184 428.123 17.0053C428.468 16.9922 428.822 17.0036 429.171 16.9352C429.919 16.7854 429.919 16.7854 430.469 16.7658C430.954 16.7492 431.439 16.7342 431.923 16.7129C432.018 16.7094 432.134 16.6808 432.228 16.6601C432.432 16.6176 432.604 16.5583 432.823 16.532C433.042 16.5057 433.3 16.5081 433.542 16.499C433.784 16.4899 434.042 16.4955 434.261 16.4707C434.481 16.446 434.683 16.3925 434.856 16.3458C435.059 16.2907 435.249 16.2727 435.528 16.2689C435.881 16.2647 436.248 16.2438 436.607 16.2296C436.803 16.1861 437.006 16.142 437.194 16.0958C437.39 16.0475 437.602 16.0358 437.874 16.0278C438.777 16.0024 438.785 15.9972 439.532 15.8474C439.873 15.7795 440.235 15.7904 440.58 15.7773C440.947 15.7642 441.292 15.7464 441.573 15.6638C441.847 15.5848 442.191 15.5529 442.558 15.5461C442.794 15.5422 443.043 15.5326 443.285 15.5204C443.395 15.5143 443.527 15.4988 443.606 15.4807C443.99 15.3878 444.367 15.3017 444.904 15.3066C445.372 15.2612 445.598 15.1165 446.164 15.1021C446.641 15.0907 447.14 15.0606 447.61 15.056C448.044 15.0508 448.349 14.9855 448.565 14.9153C448.954 14.7906 449.519 14.8832 449.908 14.76C450.132 14.6894 450.421 14.6251 450.862 14.6178C451.348 14.6091 451.499 14.5654 451.631 14.4571C451.708 14.3951 451.69 14.3507 451.541 14.3172C451.391 14.282 451.231 14.3011 451 14.3691C450.733 14.446 450.411 14.4795 450.022 14.4941C449.64 14.5083 449.412 14.606 449.099 14.6594C448.786 14.7142 448.409 14.6856 448.082 14.7509C447.313 14.9038 447.313 14.9038 446.784 14.9219C446.424 14.9345 446.05 14.9543 445.697 14.957C445.278 14.9596 445.01 15.0271 444.727 15.0909C444.626 15.1137 444.525 15.1506 444.437 15.1552C443.593 15.1906 442.742 15.2281 441.904 15.2474C441.464 15.2578 441.233 15.3305 440.943 15.3901C440.841 15.4114 440.733 15.4472 440.645 15.4502C439.919 15.479 439.199 15.5011 438.472 15.5252C438.33 15.4926 438.173 15.4627 438.038 15.4265C437.896 15.3893 437.704 15.3823 437.426 15.4033C436.964 15.4356 436.505 15.4016 436.05 15.5168C435.579 15.6346 435.543 15.6325 435.08 15.6444C434.492 15.6588 433.87 15.7086 433.316 15.6859C433.22 15.6816 433.115 15.6591 433.114 15.6372C433.105 15.6236 433.258 15.5925 433.352 15.5733C433.672 15.5132 434.049 15.5419 434.369 15.4802C434.579 15.4403 434.753 15.3904 434.963 15.349C435.05 15.3319 435.182 15.3242 435.3 15.3176C435.424 15.3105 435.542 15.3132 435.659 15.3034C435.769 15.2942 435.886 15.2766 435.973 15.2564C436.371 15.1687 436.792 15.0842 437.146 14.9887C437.493 14.8953 437.826 14.9192 438.178 14.8977C439.576 14.6898 439.576 14.6882 440.524 14.6566C440.759 14.648 441.001 14.6405 441.243 14.622C441.345 14.6149 441.438 14.5801 441.54 14.5572C441.829 14.4898 442.105 14.4281 442.517 14.4244C442.87 14.4217 443.244 14.4003 443.604 14.3893C444.088 14.3727 444.088 14.3727 444.902 14.2167C445.105 14.1774 445.325 14.1651 445.59 14.1592C445.818 14.1543 446.05 14.1144 446.208 14.0578C446.273 14.0344 446.249 14.0046 446.269 13.9765C445.542 14.0021 444.808 14.0361 444.102 14.0477C443.647 14.056 443.446 14.1377 443.148 14.1947C443.047 14.2143 442.939 14.2486 442.843 14.2522C442.124 14.2789 441.404 14.3025 440.684 14.3214C440.596 14.3244 440.484 14.2961 440.475 14.2747C440.457 14.235 440.638 14.1831 440.901 14.1662C441.253 14.1432 441.599 14.1457 441.91 14.0595C442.17 13.9847 442.497 13.9366 442.887 13.9345C443.123 13.9322 443.372 13.9148 443.607 13.9109C444.232 13.905 444.796 13.8577 445.257 13.7185C445.614 13.6652 445.968 13.6672 446.313 13.6572C446.57 13.6503 446.82 13.6438 447.001 13.6013C447.385 13.5115 447.761 13.4223 448.299 13.4271C448.874 13.3429 449.307 13.2198 449.786 13.1108C450.01 13.059 450.184 13.0263 450.45 13.0314C450.56 13.0331 450.692 13.0239 450.81 13.0204C451.052 13.0113 451.31 13.0168 451.529 12.9921C451.748 12.9658 451.928 12.9075 452.124 12.8655C452.218 12.8448 452.326 12.8136 452.422 12.8086C452.788 12.7908 453.148 12.7813 453.508 12.7687C453.868 12.7546 454.227 12.7405 454.587 12.7263C454.885 12.6646 455.189 12.6024 455.487 12.5407C455.972 12.5241 456.456 12.5075 456.933 12.4899C457.47 12.4713 457.469 12.4697 458.232 12.3189C458.573 12.251 458.941 12.2536 459.272 12.2509C459.824 12.2453 460.186 12.1602 460.57 12.0705C460.649 12.0523 460.795 12.0343 460.891 12.0339C461.273 12.0291 461.602 11.9889 461.876 11.9115C462.071 11.857 462.267 11.8243 462.51 11.8153C463.354 11.7861 464.199 11.7585 465.043 11.7262C465.146 11.7222 465.262 11.6999 465.356 11.6807C466.097 11.533 466.104 11.5278 466.655 11.5144C467.147 11.502 467.602 11.4797 467.984 11.3664C468.063 11.342 468.186 11.3067 468.274 11.3021C468.876 11.2758 469.485 11.2505 470.08 11.2356C470.352 11.2291 470.542 11.2111 470.752 11.1603C471.02 11.0959 471.258 11.0242 471.706 11.0133C472.948 10.9847 472.955 10.9748 474.412 10.7644C474.514 10.7494 474.654 10.7522 474.772 10.7502C475.022 10.7485 475.203 10.7138 475.42 10.6624C475.905 10.5467 475.921 10.5503 476.391 10.5348C476.75 10.5238 477.124 10.5008 477.477 10.4997C478.022 10.4962 478.377 10.4101 478.775 10.324C479.095 10.256 479.471 10.2675 479.816 10.2575C480.191 10.247 480.527 10.2188 480.801 10.1398C480.989 10.0858 481.192 10.0496 481.435 10.0405C482.279 10.0098 483.124 9.98217 483.968 9.95144C484.071 9.9474 484.194 9.92617 484.289 9.90856C485.117 9.75313 485.117 9.74842 485.947 9.72654C486.211 9.71906 486.431 9.70683 486.627 9.66013C486.815 9.61551 487.018 9.57143 487.214 9.52786C487.574 9.51372 487.94 9.49124 488.293 9.48544C488.565 9.48057 488.755 9.46099 488.965 9.41327C489.24 9.35154 489.47 9.2616 489.912 9.26687C490.14 9.26821 490.403 9.24507 490.631 9.24484C490.904 9.24624 491.086 9.22091 491.296 9.16536C491.556 9.0984 491.823 9.02938 492.25 9.02471C492.721 9.0201 493.219 8.98997 493.697 8.97859C493.961 8.97267 494.144 8.94734 494.353 8.89179C494.613 8.8217 494.911 8.76782 495.323 8.75948C496.161 8.74022 496.167 8.7319 496.974 8.57644C497.177 8.53706 497.397 8.5248 497.662 8.51889C497.889 8.51396 498.122 8.4741 498.28 8.41744C498.43 8.3566 498.413 8.32633 498.426 8.2987ZM434.143 26.9795C433.9 26.9885 433.658 26.9961 433.316 27.1568C433.295 27.1818 433.312 27.209 433.262 27.2329C433.148 27.2834 432.967 27.3259 432.748 27.346C432.352 27.3799 431.873 27.36 431.877 27.3188C431.882 27.2838 432.004 27.2454 432.244 27.2003C432.346 27.1822 432.425 27.1578 432.52 27.1386C432.795 27.0831 433.01 26.9973 433.416 27.0051C433.349 27.1073 433.382 27.0562 433.416 27.0051C433.375 26.9482 433.482 26.8983 433.744 26.8626C433.817 26.8528 433.927 26.8482 433.987 26.8535C434.216 26.8721 434.256 26.9165 434.096 27.0519C434.065 27.0336 434.085 26.9961 434.15 26.9821C434.215 26.9681 434.377 26.9646 434.458 26.97C434.665 26.9854 434.771 27.0173 434.722 27.0538C434.694 27.073 434.556 27.1047 434.468 27.1108C434.314 27.1216 434.173 27.0969 434.143 26.9795ZM492.101 4.68616C491.564 4.69381 490.95 4.74778 490.411 4.72413C490.315 4.71983 490.218 4.69831 490.209 4.67691C490.201 4.66334 490.346 4.63274 490.433 4.61564C490.629 4.57676 490.849 4.56924 491.106 4.55913C491.495 4.54294 491.717 4.45507 492.015 4.39807C492.109 4.38045 492.233 4.36393 492.336 4.35989C492.931 4.33718 493.518 4.31654 494.113 4.29696C494.216 4.29449 494.326 4.29776 494.415 4.30571C494.712 4.33061 494.684 4.36239 494.401 4.4168C494.089 4.47639 493.844 4.55642 493.524 4.6087C493.065 4.68323 492.592 4.65967 492.101 4.68616ZM450.424 6.45231C450.064 6.46489 449.712 6.47696 449.352 6.48954C449.234 6.49304 449.11 6.50019 448.999 6.50161C448.772 6.50653 448.601 6.48544 448.487 6.44147C448.653 6.389 448.857 6.35117 449.084 6.33999C449.444 6.32428 449.796 6.32004 450.156 6.29964C450.544 6.27876 450.767 6.19244 451.064 6.13544C451.159 6.11783 451.276 6.10807 451.386 6.09883C451.927 6.05466 452.263 6.113 452.168 6.23442C452.101 6.32876 451.826 6.40143 451.489 6.41404C451.136 6.42767 450.777 6.44025 450.424 6.45231ZM494.768 6.82436C494.858 6.84482 494.954 6.85693 495 6.87734C495.137 6.94794 495.09 7.01102 494.853 7.09054C494.565 7.18772 494.203 7.16115 493.873 7.17637C493.792 7.18044 493.702 7.15373 493.656 7.13645C493.626 7.12441 493.624 7.09466 493.667 7.08376C494.022 6.99606 494.399 6.91152 494.768 6.82436ZM431.549 15.8913C431.197 15.9033 430.837 15.919 430.484 15.9264C430.396 15.9279 430.313 15.9038 430.261 15.887C430.163 15.8561 430.262 15.7973 430.562 15.7716C430.906 15.7413 431.266 15.7428 431.626 15.7302C432.081 15.7141 432.356 15.753 432.191 15.8149C432.034 15.8747 431.815 15.8994 431.549 15.8913ZM46.2146 46.1977C46.4495 46.1891 46.6916 46.1785 46.9268 46.1731C47.1473 46.1686 47.3183 46.1913 47.4318 46.2353C47.2515 46.2888 47.0479 46.325 46.8205 46.3362C46.4609 46.3519 46.1085 46.364 45.7558 46.3729C45.5354 46.3789 45.3207 46.3593 45.2657 46.3097C45.2115 46.2726 45.7005 46.2148 46.2146 46.1977ZM400.823 21.6433C400.918 21.6225 401.011 21.5877 401.106 21.581C401.34 21.5646 401.583 21.5571 401.804 21.5574C401.899 21.557 401.974 21.5801 402.02 21.5989C402.05 21.6109 402.045 21.6365 402.002 21.6521C401.795 21.7421 400.943 21.7749 400.798 21.6985C400.782 21.6839 400.817 21.661 400.823 21.6433ZM378.313 31.8303C378.333 31.8037 378.339 31.7782 378.366 31.7511C378.422 31.7 378.58 31.6543 378.813 31.6145C378.999 31.6408 379.097 31.6779 379.093 31.7254C379.088 31.751 379.068 31.7776 379.04 31.8046C378.985 31.8557 378.826 31.9014 378.593 31.9413C378.408 31.9165 378.316 31.8788 378.313 31.8303ZM511.435 1.91235C511.367 1.89661 511.3 1.88087 511.226 1.86721C511.42 1.80799 511.602 1.78109 511.743 1.79641C511.832 1.80591 511.885 1.8258 511.953 1.84154C511.758 1.90076 511.583 1.92558 511.435 1.91235ZM506.864 2.01807C506.958 1.99732 507.045 1.97238 507.147 1.95582C507.314 1.92839 507.47 1.94426 507.591 1.99241C507.497 2.01315 507.41 2.03808 507.308 2.05464C507.141 2.08207 506.985 2.06622 506.864 2.01807ZM509.77 2.10269C509.716 2.06871 509.817 2.03023 510.086 1.98467C510.153 2.0004 510.242 2.01304 510.288 2.03188C510.364 2.06276 510.241 2.10434 509.979 2.14782C509.905 2.13417 509.837 2.11843 509.77 2.10269ZM494.425 4.87123C494.372 4.83725 494.472 4.79878 494.741 4.75322C494.808 4.76896 494.898 4.78159 494.943 4.80043C495.019 4.83131 494.897 4.87288 494.635 4.91636C494.56 4.9027 494.493 4.88697 494.425 4.87123ZM474.134 17.4197C474.067 17.404 473.999 17.3882 473.925 17.3746C474.119 17.3153 474.301 17.2885 474.442 17.3038C474.531 17.3133 474.584 17.3332 474.652 17.3489C474.457 17.4081 474.282 17.4329 474.134 17.4197ZM454.365 24.7066C454.54 24.6834 454.688 24.695 454.817 24.7442C454.722 24.765 454.636 24.7899 454.534 24.8065C454.367 24.8339 454.211 24.818 454.09 24.7699C454.184 24.7476 454.278 24.7268 454.365 24.7066ZM443.675 25.8238C443.607 25.808 443.54 25.7923 443.465 25.7786C443.66 25.7194 443.842 25.6925 443.983 25.7078C444.072 25.7173 444.125 25.7372 444.192 25.753C443.998 25.8122 443.823 25.8354 443.675 25.8238ZM371.106 32.3359C371.038 32.3201 370.971 32.3044 370.896 32.2907C371.091 32.2315 371.273 32.2046 371.414 32.2199C371.503 32.2294 371.556 32.2493 371.623 32.2651C371.429 32.3243 371.254 32.3475 371.106 32.3359ZM8.37898 44.9034C8.28474 44.9242 8.19059 44.9449 8.10379 44.9667C7.88842 44.9393 7.81978 44.9048 7.9349 44.8668C8.00683 44.8429 8.11585 44.8243 8.21009 44.8035C8.43278 44.8304 8.48666 44.8644 8.37898 44.9034Z" fill="#FFE492"/>
</svg>
