<svg width="800" height="226" viewBox="0 0 800 226" fill="none" xmlns="http://www.w3.org/2000/svg">
<path d="M68.188 21.25L39.995 109.293L104.29 219.546L588.542 206.165H759.913L780 127.235L760.826 46.625L68.188 21.25Z" fill="#FDE73A"/>
<path d="M49.281 5.62903L20 97.061L85.843 209.968L571.85 196.541C573.483 196.494 574.77 195.136 574.726 193.502C574.68 191.868 573.32 190.582 571.688 190.627L89.187 203.956L26.438 96.358L53.547 11.704L741.694 36.915L760.178 114.628L740.838 190.624L602.912 190.626C601.278 190.626 599.954 191.949 599.954 193.584C599.954 195.218 601.278 196.542 602.912 196.542L745.438 196.54L766.271 114.675L746.407 31.165L49.281 5.62903Z" fill="black"/>
<path d="M583.717 187.013C582.562 185.859 580.688 185.859 579.533 187.013C578.378 188.169 578.378 190.043 579.533 191.198L597.391 209.056C598.546 210.21 600.42 210.21 601.575 209.056C602.73 207.901 602.73 206.026 601.575 204.871L583.717 187.013Z" fill="black"/>
<path d="M85.8838 97.848C85.8118 98.28 85.7638 98.928 85.7398 99.504C85.6678 100.92 85.5478 104.592 85.5478 107.088C85.5478 109.584 85.6678 113.328 85.6678 114.84C85.6678 117.048 84.8518 117.768 83.5318 117.768C81.6598 117.768 78.5398 115.944 78.5398 113.784C78.5398 111.672 81.3958 109.44 84.3718 108.312C86.5078 107.472 88.9078 107.04 90.8038 107.04C94.3318 107.04 96.8518 108.936 96.8518 111.816C96.8518 114.72 95.0278 116.568 91.7158 117.336C90.6598 117.576 89.5798 117.624 88.7398 117.672L88.0678 115.752C88.9798 115.752 89.9878 115.776 90.8998 115.584C92.9878 115.176 94.9078 114.048 94.9078 111.816C94.9078 109.776 93.0598 108.696 90.8038 108.696C88.6438 108.696 86.6758 109.152 84.6358 109.968C82.2838 110.88 80.4358 112.488 80.4358 113.712C80.4358 114.792 82.1158 115.752 83.0518 115.752C83.6038 115.752 83.9158 115.368 83.9158 114.576C83.9158 113.184 83.7958 109.848 83.7958 107.184C83.7958 104.424 83.8918 100.512 83.8918 99.528C83.8918 99.072 83.8438 98.232 83.7718 97.848H85.8838ZM93.3478 100.512C95.0518 101.4 97.6678 103.032 98.8198 103.992L97.8598 105.528C96.6838 104.424 93.9958 102.768 92.4598 101.952L93.3478 100.512ZM78.9478 102.144C80.2678 102.312 81.1318 102.336 81.9958 102.336C84.3718 102.336 88.1878 101.832 90.5638 101.112L90.6118 102.984C88.1398 103.584 84.2038 104.112 82.0438 104.112C80.6998 104.112 79.7878 104.064 78.9958 103.992L78.9478 102.144ZM100.864 110.544C101.944 110.064 103.456 109.248 105.04 108.408L105.448 109.776C104.104 110.616 102.736 111.408 101.464 112.152L100.864 110.544ZM102.568 101.208C103.312 102.696 103.984 104.616 104.152 105.816L102.712 106.464C102.544 105.216 101.92 103.248 101.224 101.736L102.568 101.208ZM114.28 96.864V99.984H112.384V96.864H114.28ZM106.24 106.8C106.24 110.496 105.76 115.656 102.784 118.992C102.52 118.632 101.872 118.032 101.536 117.792C104.272 114.672 104.536 110.232 104.536 106.8V99H106.24V106.8ZM122.896 99V100.56H105.448V99H122.896ZM120.952 103.416L121.264 103.344L122.464 103.632C122.008 105.024 121.408 106.632 120.928 107.616L119.416 107.304C119.848 106.392 120.352 104.904 120.688 103.656V103.416H120.952ZM110.08 108C110.08 111.312 109.6 115.896 106.792 119.016C106.552 118.704 105.856 118.2 105.472 118.008C108.112 115.08 108.448 111 108.448 107.976V103.416H110.08V108ZM112.312 109.08C113.944 113.52 117.52 116.376 122.92 117.456C122.536 117.816 122.056 118.488 121.84 118.968C116.224 117.648 112.6 114.504 110.776 109.464L112.312 109.08ZM119.536 108.24L119.848 108.168L120.952 108.576C119.272 114.456 114.856 117.552 109.744 118.968C109.576 118.536 109.168 117.84 108.832 117.48C113.536 116.376 117.76 113.448 119.2 108.504V108.24H119.536ZM115.96 101.184V109.032H114.328V101.184H115.96ZM120.904 103.416V104.976H109.24V103.416H120.904ZM119.656 108.24V109.728H109.24V108.24H119.656ZM147.62 115.176C146.324 116.472 144.836 117.192 143.204 117.192C141.596 117.192 140.54 116.136 140.54 114.168C140.54 111.48 141.428 107.544 141.428 105.216C141.428 103.824 140.732 103.224 139.508 103.224C137.252 103.224 133.772 106.2 131.516 108.936L131.54 106.56C133.028 104.928 137.012 101.472 139.964 101.472C142.22 101.472 143.324 102.744 143.324 104.688C143.324 107.088 142.412 111.216 142.412 113.64C142.412 114.456 142.82 115.104 143.684 115.104C144.812 115.104 146.084 114.408 147.308 113.136L147.62 115.176ZM131.492 103.704C130.7 103.824 128.108 104.136 126.332 104.424L126.116 102.432C126.644 102.456 127.1 102.456 127.7 102.408C128.972 102.336 131.972 101.976 133.076 101.616L133.772 102.432C133.364 103.056 132.716 104.088 132.308 104.76L131.588 108.048C130.484 109.752 128.252 112.992 126.74 115.08L125.54 113.448C127.028 111.576 130.268 107.184 131.204 105.6L131.3 104.352L131.492 103.704ZM131.252 99.744C131.252 99.192 131.276 98.568 131.156 97.968L133.412 98.04C133.076 99.6 132.356 106.464 132.356 110.688C132.356 112.872 132.356 114.336 132.452 116.472C132.476 116.88 132.548 117.48 132.572 117.936H130.508C130.556 117.48 130.58 116.904 130.58 116.52C130.58 114.192 130.604 112.992 130.628 110.352C130.676 108.24 131.252 100.632 131.252 99.744ZM157.824 99.888H170.928V101.376H157.824V99.888ZM158.544 103.056H170.376V104.496H158.544V103.056ZM157.344 106.32H171.264V107.856H157.344V106.32ZM167.472 96.816L169.248 97.32C168.648 98.4 168 99.528 167.472 100.272L166.056 99.84C166.56 99 167.16 97.68 167.472 96.816ZM159.624 97.416L161.064 96.936C161.64 97.8 162.288 98.952 162.528 99.72L160.992 100.296C160.776 99.528 160.2 98.304 159.624 97.416ZM169.608 108.744L170.976 109.704C169.968 110.88 168.672 112.152 167.688 112.992L166.512 112.104C167.472 111.216 168.84 109.776 169.608 108.744ZM158.112 109.632L159.36 108.84C160.296 109.776 161.376 111.096 161.856 111.96L160.56 112.872C160.08 111.984 159.048 110.616 158.112 109.632ZM156.408 116.064C157.92 115.32 160.176 114.096 162.384 112.896L162.864 114.36C160.968 115.488 158.88 116.688 157.248 117.6L156.408 116.064ZM163.44 100.896H165.168V116.904C165.168 117.888 164.976 118.368 164.352 118.656C163.728 118.944 162.624 118.968 161.136 118.968C161.088 118.512 160.848 117.768 160.632 117.312C161.688 117.336 162.72 117.336 163.032 117.312C163.344 117.312 163.44 117.216 163.44 116.904V100.896ZM165.072 108.552C166.2 112.128 168.504 115.152 171.72 116.472C171.336 116.808 170.808 117.432 170.544 117.912C167.328 116.28 165.024 112.896 163.824 108.864L165.072 108.552ZM149.568 102.048H157.368V103.752H149.568V102.048ZM152.952 96.84H154.608V118.896H152.952V96.84ZM152.904 103.056L154.008 103.44C153.264 107.232 151.68 111.96 150 114.36C149.808 113.904 149.376 113.208 149.088 112.824C150.672 110.664 152.232 106.488 152.904 103.056ZM154.488 105.096C155.016 105.768 157.056 108.84 157.512 109.56L156.504 110.904C155.976 109.68 154.272 106.8 153.672 105.864L154.488 105.096ZM174.316 101.208C175.228 101.184 175.996 101.136 176.476 101.088C178.012 100.92 182.548 100.488 186.964 100.104C189.604 99.888 191.836 99.744 193.444 99.696L193.468 101.616C192.076 101.592 189.988 101.64 188.764 101.976C185.332 103.08 183.244 106.752 183.244 109.584C183.244 114.264 187.636 115.776 191.524 115.92L190.828 117.888C186.388 117.72 181.348 115.368 181.348 109.992C181.348 106.272 183.628 103.2 185.812 101.904C183.244 102.168 177.124 102.768 174.532 103.32L174.316 101.208ZM189.988 104.544C190.54 105.336 191.452 106.824 191.98 107.904L190.732 108.456C190.18 107.304 189.508 106.08 188.788 105.072L189.988 104.544ZM192.604 103.536C193.204 104.328 194.14 105.792 194.692 106.848L193.468 107.448C192.892 106.296 192.172 105.096 191.428 104.088L192.604 103.536ZM204.704 98.304C204.584 99.096 204.512 99.936 204.464 100.728C204.368 103.44 204.176 109.128 204.176 112.704C204.176 115.344 205.832 116.256 208.112 116.256C212.504 116.256 215 113.808 216.728 111.312L218.072 112.944C216.44 115.224 213.32 118.224 208.064 118.224C204.608 118.224 202.232 116.808 202.232 112.872C202.232 109.32 202.472 103.248 202.472 100.728C202.472 99.84 202.4 99 202.256 98.304H204.704ZM231.252 98.136C231.108 98.664 230.94 99.576 230.844 100.032C230.484 101.76 229.98 104.472 229.308 106.872C228.444 110.28 226.836 115.248 225.564 117.864L223.476 117.168C224.916 114.672 226.596 109.8 227.508 106.416C228.084 104.208 228.708 101.184 228.876 99.936C228.972 99.264 229.02 98.448 228.972 97.944L231.252 98.136ZM225.948 102.144C228.588 102.144 232.116 101.712 235.092 100.968V102.84C232.116 103.512 228.492 103.92 225.9 103.92C224.844 103.92 224.004 103.896 223.116 103.824L223.068 101.952C224.196 102.096 225.06 102.144 225.948 102.144ZM233.532 105.432C234.78 105.312 236.388 105.24 237.924 105.24C239.316 105.24 240.78 105.288 242.076 105.432L242.028 107.256C240.78 107.112 239.388 106.968 237.972 106.968C236.484 106.968 234.996 107.064 233.532 107.232V105.432ZM234.012 111.264C233.82 112.056 233.676 112.8 233.676 113.424C233.676 114.552 234.324 115.656 237.732 115.656C239.316 115.656 240.948 115.488 242.436 115.2L242.364 117.12C241.068 117.312 239.46 117.456 237.708 117.456C233.94 117.456 231.876 116.304 231.876 113.928C231.876 113.016 232.02 112.104 232.236 111.096L234.012 111.264ZM255.952 111.216L255.472 101.904L255.4 99.048H258.064L257.992 101.904L257.512 111.216H255.952ZM256.744 117.12C255.88 117.12 255.184 116.52 255.184 115.56C255.184 114.6 255.88 113.952 256.744 113.952C257.584 113.952 258.28 114.6 258.28 115.56C258.28 116.52 257.584 117.12 256.744 117.12ZM283.7 96.888H285.404V113.568H283.7V96.888ZM275.348 106.776L289.772 101.184L290.468 102.744L276.02 108.36L275.348 106.776ZM278.372 99.24H280.148V115.296C280.148 116.664 280.484 116.976 282.188 116.976C283.004 116.976 287.3 116.976 288.356 116.976C289.82 116.976 290.084 116.304 290.276 113.472C290.708 113.784 291.428 114.096 291.956 114.216C291.644 117.528 291.068 118.608 288.404 118.608C287.708 118.608 282.764 118.608 282.116 118.608C279.212 118.608 278.372 117.936 278.372 115.272V99.24ZM289.172 101.592H288.956L289.388 101.232L289.7 100.944L290.948 101.472L290.876 101.76C290.852 106.128 290.804 109.584 290.564 110.616C290.372 111.72 289.868 112.176 289.124 112.368C288.476 112.536 287.42 112.56 286.7 112.536C286.652 112.032 286.46 111.288 286.244 110.88C286.916 110.904 287.78 110.904 288.092 110.904C288.5 110.904 288.764 110.808 288.932 110.184C289.124 109.416 289.172 106.272 289.172 101.592ZM275.228 96.936L276.884 97.464C275.324 101.496 272.852 105.576 270.284 108.264C270.092 107.856 269.588 106.92 269.276 106.512C271.652 104.184 273.884 100.584 275.228 96.936ZM272.684 103.128L274.412 101.376L274.436 101.4V118.896H272.684V103.128ZM306.456 100.632C306.144 103.128 305.664 105.936 304.92 108.504C303.456 113.424 301.536 115.968 299.328 115.968C297.168 115.968 295.032 113.52 295.032 109.536C295.032 104.328 299.664 99.792 305.544 99.792C311.16 99.792 314.736 103.752 314.736 108.624C314.736 113.64 311.424 117 305.712 117.744L304.608 115.968C305.376 115.896 306.096 115.8 306.672 115.68C309.744 114.984 312.768 112.68 312.768 108.528C312.768 104.688 310.104 101.52 305.496 101.52C300.216 101.52 296.928 105.864 296.928 109.392C296.928 112.416 298.296 113.76 299.376 113.76C300.504 113.76 301.8 112.128 303.024 108.072C303.72 105.792 304.224 103.08 304.464 100.584L306.456 100.632ZM335.284 98.064C335.884 98.928 336.748 100.368 337.228 101.352L335.932 101.928C335.476 100.968 334.66 99.504 334.012 98.616L335.284 98.064ZM337.9 97.104C338.548 97.968 339.46 99.48 339.916 100.368L338.644 100.944C338.116 99.888 337.324 98.544 336.652 97.632L337.9 97.104ZM326.572 98.928C326.38 99.48 326.14 100.128 325.972 100.632C325.588 101.712 325.06 103.176 324.388 104.496C323.428 106.368 321.676 108.816 320.164 110.064L318.268 108.912C319.996 107.688 321.724 105.216 322.54 103.752C323.212 102.552 323.62 101.328 323.908 100.392C324.1 99.792 324.22 99.12 324.268 98.496L326.572 98.928ZM323.572 103.056C325.156 103.056 335.404 103.056 336.388 103.056C336.988 103.056 337.948 103.032 338.644 102.912V104.976C337.876 104.928 336.94 104.928 336.388 104.928C335.404 104.928 325.108 104.928 323.308 104.928L323.572 103.056ZM332.38 104.064C332.164 111.456 329.428 115.704 325.132 118.44L323.092 117.048C323.764 116.784 324.508 116.352 325.036 115.92C327.508 114.072 330.22 110.712 330.34 104.064H332.38ZM343.568 106.608C344.312 106.68 345.56 106.752 346.928 106.752C348.68 106.752 358.304 106.752 360.08 106.752C361.28 106.752 362.12 106.656 362.672 106.608V108.96C362.168 108.936 361.16 108.864 360.104 108.864C358.28 108.864 348.704 108.864 346.928 108.864C345.608 108.864 344.336 108.912 343.568 108.96V106.608ZM377.045 99.12C376.805 99.696 376.541 100.32 376.205 101.352C375.437 103.8 372.653 112.416 371.621 114.84L369.461 114.912C370.661 112.152 373.445 103.464 374.165 100.92C374.477 99.816 374.573 99.264 374.645 98.616L377.045 99.12ZM381.605 107.16C383.285 109.608 385.925 114.456 386.909 116.928L384.917 117.816C383.957 115.224 381.509 110.232 379.781 107.952L381.605 107.16ZM368.525 114.336C371.981 114.168 380.573 113.208 383.669 112.752L384.197 114.624C380.861 115.056 372.029 116.016 368.645 116.352C368.045 116.4 367.325 116.496 366.653 116.592L366.269 114.384C366.989 114.408 367.829 114.384 368.525 114.336ZM399.537 100.8C402.153 101.256 407.025 101.16 409.401 100.8V102.744C406.833 103.032 402.177 103.032 399.561 102.744L399.537 100.8ZM400.473 110.592C400.257 111.456 400.137 112.128 400.137 112.776C400.137 113.88 400.905 114.96 404.193 114.96C406.329 114.96 408.201 114.768 410.121 114.312L410.169 116.328C408.681 116.64 406.665 116.832 404.169 116.832C400.161 116.832 398.361 115.488 398.361 113.232C398.361 112.44 398.481 111.576 398.745 110.424L400.473 110.592ZM394.977 98.952C394.833 99.36 394.641 100.128 394.545 100.56C394.089 102.792 393.345 107.064 393.345 109.776C393.345 110.928 393.417 111.936 393.561 113.112C393.969 112.032 394.521 110.592 394.929 109.608L395.937 110.4C395.337 112.104 394.449 114.624 394.233 115.776C394.161 116.112 394.113 116.568 394.113 116.856C394.137 117.096 394.161 117.432 394.185 117.696L392.481 117.816C392.001 116.112 391.593 113.352 391.593 110.088C391.593 106.56 392.385 102.456 392.673 100.464C392.745 99.912 392.817 99.312 392.841 98.784L394.977 98.952ZM423.325 98.136C423.181 98.784 423.109 99.288 423.013 99.816C422.701 102.504 421.621 109.896 421.621 112.488C421.621 114.816 422.941 116.232 425.677 116.232C429.325 116.232 431.653 114.648 431.653 112.152C431.653 110.544 430.789 108.768 429.013 107.28L431.125 106.824C432.781 108.648 433.597 110.328 433.597 112.368C433.597 115.944 430.405 118.128 425.653 118.128C422.413 118.128 419.773 116.688 419.773 112.776C419.773 110.208 420.901 103.032 421.165 99.72C421.237 98.88 421.237 98.448 421.189 98.016L423.325 98.136ZM415.645 101.328C417.661 101.976 420.541 102.288 422.677 102.288C424.501 102.288 426.157 102.192 427.573 101.976L427.525 103.8C425.989 103.944 424.573 104.016 422.629 104.016C420.517 104.016 417.637 103.656 415.525 103.08L415.645 101.328ZM415.045 107.304C417.373 108.12 420.181 108.336 422.389 108.336C424.045 108.336 425.701 108.288 427.381 108.048L427.357 109.872C425.749 110.04 424.261 110.088 422.653 110.088C420.037 110.088 417.133 109.8 414.949 109.128L415.045 107.304ZM440.801 100.32C442.601 100.416 446.249 100.32 448.865 99.96C451.049 99.672 453.857 99.096 455.033 98.568L456.305 100.248C455.777 100.392 455.321 100.512 454.961 100.608C453.569 100.944 451.337 101.376 449.417 101.64C446.729 102 443.417 102.072 441.281 102.12L440.801 100.32ZM442.145 116.688C446.225 114.768 448.265 111.768 448.265 106.824C448.265 106.824 448.265 104.664 448.265 101.376L450.185 101.112C450.185 102.984 450.185 106.776 450.185 106.776C450.185 111.888 448.505 115.416 444.017 117.984L442.145 116.688ZM438.929 106.032C439.457 106.08 440.297 106.152 441.041 106.152C442.577 106.152 455.345 106.152 456.833 106.152C457.337 106.152 458.225 106.104 458.729 106.056V108.024C458.201 107.976 457.457 107.952 456.857 107.952C455.417 107.952 442.553 107.952 441.065 107.952C440.297 107.952 439.505 107.976 438.929 108.024V106.032ZM469.923 102.312C469.971 102.744 470.115 103.248 470.259 103.872C470.811 105.864 473.427 115.368 473.931 117C474.075 117.456 474.291 118.2 474.459 118.632L472.395 119.184C472.347 118.632 472.227 118.008 472.059 117.432C471.555 115.704 468.987 106.032 468.435 104.256C468.267 103.68 468.075 103.2 467.859 102.816L469.923 102.312ZM481.443 105.624C480.435 107.64 477.963 111.024 476.307 112.632L474.627 111.768C476.115 110.496 477.939 108.264 478.755 106.848C477.699 107.04 466.467 109.296 464.763 109.656L464.283 107.832C464.955 107.76 465.555 107.688 466.275 107.544C467.475 107.352 477.939 105.384 479.307 105.072C479.619 105 479.979 104.88 480.219 104.76L481.443 105.624ZM490.111 116.256C490.279 115.872 490.327 115.536 490.327 115.08C490.327 113.568 490.327 103.632 490.327 101.352C490.327 100.704 490.231 99.624 490.135 99.168H492.487C492.415 99.744 492.319 100.656 492.319 101.328C492.319 103.608 492.319 113.736 492.319 114.96C496.927 113.784 502.471 110.64 505.471 106.776L506.551 108.456C503.431 112.32 498.487 115.272 492.487 117.024C492.247 117.096 491.863 117.216 491.479 117.432L490.111 116.256ZM514.331 99.432C516.011 100.56 519.107 103.056 520.427 104.376L518.939 105.912C517.715 104.664 514.739 102.072 512.939 100.896L514.331 99.432ZM512.267 115.512C516.443 114.888 519.563 113.424 521.843 112.008C525.563 109.68 528.467 106.128 529.859 103.152L531.011 105.216C529.379 108.192 526.595 111.456 522.971 113.736C520.547 115.248 517.523 116.736 513.515 117.48L512.267 115.512ZM550.167 99.096C550.767 99.984 551.847 101.688 552.399 102.84L551.031 103.464C550.431 102.192 549.615 100.752 548.823 99.672L550.167 99.096ZM553.287 97.944C553.935 98.784 555.015 100.512 555.591 101.616L554.223 102.24C553.599 100.992 552.759 99.6 551.967 98.544L553.287 97.944ZM539.895 98.736C541.311 99.528 544.071 101.376 545.127 102.144L543.975 103.776C542.847 102.912 540.231 101.16 538.815 100.368L539.895 98.736ZM536.295 115.896C538.935 115.44 541.911 114.504 544.359 113.112C548.343 110.832 551.487 107.712 553.431 104.328L554.607 106.296C552.519 109.512 549.207 112.632 545.367 114.864C542.943 116.28 539.631 117.408 537.423 117.864L536.295 115.896ZM536.295 104.136C537.711 104.904 540.519 106.632 541.551 107.376L540.447 109.056C539.271 108.216 536.679 106.536 535.215 105.792L536.295 104.136ZM565.243 98.304C565.123 99.096 565.051 99.936 565.003 100.728C564.907 103.44 564.715 109.128 564.715 112.704C564.715 115.344 566.371 116.256 568.651 116.256C573.043 116.256 575.539 113.808 577.267 111.312L578.611 112.944C576.979 115.224 573.859 118.224 568.603 118.224C565.147 118.224 562.771 116.808 562.771 112.872C562.771 109.32 563.011 103.248 563.011 100.728C563.011 99.84 562.939 99 562.795 98.304H565.243ZM582.472 101.064C583.384 101.04 584.152 100.992 584.632 100.944C586.192 100.776 590.704 100.344 595.144 99.96C597.76 99.744 599.992 99.6 601.6 99.552L601.624 101.472C600.232 101.448 598.144 101.496 596.92 101.832C593.488 102.936 591.4 106.608 591.4 109.44C591.4 114.12 595.792 115.608 599.68 115.776L599.008 117.744C594.544 117.576 589.504 115.224 589.504 109.848C589.504 106.104 591.784 103.056 593.992 101.76C591.4 102.024 585.304 102.624 582.688 103.176L582.472 101.064ZM609.908 99.408C610.508 99.456 611.204 99.48 611.708 99.48C612.98 99.48 616.124 99.336 617.132 99.24C617.588 99.216 617.996 99.12 618.332 99L619.532 99.96C619.292 100.224 619.1 100.464 618.908 100.776C618.14 102.024 616.82 105.096 615.716 107.568C614.756 109.68 613.436 112.944 612.404 114.432C611.564 115.656 610.628 116.112 609.38 116.112C607.604 116.112 606.284 114.816 606.284 112.824C606.284 109.2 609.692 106.44 614.564 106.44C619.964 106.44 624.716 109.32 627.308 111.168L626.42 113.208C623.612 110.784 619.22 108.12 614.276 108.12C610.292 108.12 608.012 110.352 608.012 112.56C608.012 113.64 608.708 114.192 609.452 114.192C610.004 114.192 610.412 114 610.916 113.352C611.9 112.056 612.98 109.272 613.892 107.256C614.852 105.168 615.932 102.696 616.748 100.992C615.788 101.016 612.86 101.16 611.78 101.208C611.252 101.232 610.556 101.304 609.98 101.376L609.908 99.408ZM624.908 104.664C624.572 111.504 623.18 115.656 617.588 118.464L616.004 117.144C621.644 114.768 622.676 110.232 622.94 106.68C622.988 105.96 623.012 105.144 622.94 104.448L624.908 104.664ZM642.384 97.968C642.336 98.376 642.288 98.856 642.264 99.576C642.216 100.536 642.216 103.752 642.216 105.768C642.216 108.936 642.576 113.136 642.576 114.744C642.576 116.424 641.472 118.128 638.352 118.128C634.896 118.128 633 116.904 633 114.576C633 112.392 635.088 110.928 638.544 110.928C643.608 110.928 647.568 113.664 649.416 115.176L648.312 116.88C646.152 114.888 642.6 112.488 638.328 112.488C636.024 112.488 634.8 113.376 634.8 114.48C634.8 115.608 635.736 116.424 638.112 116.424C639.504 116.424 640.68 116.016 640.68 114.336C640.68 112.488 640.44 107.88 640.44 105.768C640.44 103.608 640.44 101.088 640.44 99.408C640.44 99 640.416 98.28 640.344 97.968H642.384ZM633.216 100.56C634.752 100.848 637.752 101.088 639.336 101.088C642.384 101.088 645.6 100.872 648.72 100.368V102.12C646.008 102.432 642.576 102.744 639.36 102.744C637.704 102.744 634.752 102.528 633.24 102.336L633.216 100.56ZM633.096 105.672C634.8 105.936 637.536 106.104 639.12 106.104C642.6 106.104 645.792 105.864 648.912 105.408V107.208C645.648 107.616 642.72 107.784 639.12 107.784C637.464 107.784 634.824 107.664 633.12 107.472L633.096 105.672ZM660.916 98.304C660.796 99.096 660.724 99.936 660.676 100.728C660.58 103.44 660.388 109.128 660.388 112.704C660.388 115.344 662.044 116.256 664.324 116.256C668.716 116.256 671.212 113.808 672.94 111.312L674.284 112.944C672.652 115.224 669.532 118.224 664.276 118.224C660.82 118.224 658.444 116.808 658.444 112.872C658.444 109.32 658.684 103.248 658.684 100.728C658.684 99.84 658.612 99 658.468 98.304H660.916ZM689.744 102.12C689.648 102.48 689.576 103.416 689.576 104.064C689.576 104.856 689.576 106.752 689.576 108.048C689.576 110.088 689.864 113.952 689.864 115.584C689.864 117.144 688.88 118.536 686.264 118.536C683.432 118.536 681.44 117.456 681.44 115.32C681.44 113.328 683.24 112.032 686.552 112.032C690.56 112.032 693.944 114.168 695.864 115.896L694.832 117.576C692.912 115.608 689.768 113.544 686.36 113.544C684.44 113.544 683.12 114.144 683.12 115.248C683.12 116.184 684.2 116.904 686.048 116.904C687.368 116.904 688.04 116.16 688.04 115.008C688.04 113.4 687.824 109.992 687.824 107.928C687.824 106.92 687.824 104.904 687.824 104.088C687.824 103.392 687.752 102.456 687.656 102.12H689.744ZM688.712 105.792C690.008 105.792 693.488 105.648 695.552 105.408L695.6 107.088C693.56 107.28 690.056 107.424 688.736 107.424L688.712 105.792ZM718.212 109.032C718.212 106.992 716.58 105.576 714.108 105.576C711.348 105.576 708.972 106.368 707.58 106.776C706.836 106.992 706.116 107.256 705.54 107.496L704.94 105.288C705.612 105.24 706.404 105.072 707.148 104.928C708.828 104.544 711.54 103.776 714.324 103.776C717.732 103.776 720.252 105.672 720.252 109.104C720.252 114.312 715.596 117.216 709.38 118.176L708.276 116.352C714.108 115.608 718.212 113.328 718.212 109.032ZM708.132 98.208C710.796 98.808 716.004 99.312 718.332 99.336L718.044 101.184C715.38 100.992 710.556 100.512 707.844 100.032L708.132 98.208Z" fill="black"/>
</svg>
