<svg width="634" height="332" viewBox="0 0 634 332" fill="none" xmlns="http://www.w3.org/2000/svg">
<path d="M1 137.072L73.5 0H606.5L631 87.2742L606.5 270.037L41 307L1 137.072Z" fill="#FDE73A"/>
<line x1="630.472" y1="111.441" x2="607.472" y2="292.441" stroke="black" stroke-width="7"/>
<line x1="38.7541" y1="328.509" x2="606.754" y2="288.509" stroke="black" stroke-width="7"/>
<line x1="3.41432" y1="158.23" x2="42.4143" y2="331.23" stroke="black" stroke-width="7"/>
<line x1="75.1125" y1="20.6007" x2="3.11251" y2="160.601" stroke="black" stroke-width="7"/>
<line x1="72" y1="21.5" x2="607" y2="21.5" stroke="black" stroke-width="7"/>
<path d="M612.817 78.1315C611.715 79.6997 609.928 79.6997 608.826 78.1315C607.725 76.5605 607.725 74.0139 608.826 72.4443L625.858 48.1763C626.96 46.6081 628.747 46.6081 629.849 48.1763C630.95 49.7459 630.95 52.2939 629.849 53.8634L612.817 78.1315Z" fill="black"/>
<line x1="603.401" y1="19.1754" x2="611.401" y2="52.1754" stroke="black" stroke-width="7"/>
<line x1="619.31" y1="80.8622" x2="630.31" y2="112.862" stroke="black" stroke-width="7"/>
<line x1="76" y1="25.5" x2="72" y2="25.5" stroke="black"/>
</svg>
