<svg width="764" height="214" viewBox="0 0 764 214" fill="none" xmlns="http://www.w3.org/2000/svg">
<g clip-path="url(#clip0_657_373)">
<path d="M48.4277 15.604L20.0938 103.579L84.7102 213.746L571.383 200.375H743.611L763.799 121.507L744.529 40.9593L48.4277 15.604Z" fill="#FDE73A"/>
<g filter="url(#filter0_d_657_373)">
<path d="M29.4274 -0.00488281L0 91.3561L66.1722 204.175L554.609 190.759C556.25 190.712 557.544 189.355 557.5 187.722C557.453 186.089 556.087 184.804 554.446 184.849L69.5329 198.168L6.47019 90.6536L33.7147 6.0654L725.302 31.2568L743.879 108.909L724.442 184.846L585.827 184.848C584.184 184.848 582.854 186.17 582.854 187.804C582.854 189.437 584.184 190.76 585.827 190.76L729.065 190.758L750.002 108.956L730.039 25.5113L29.4274 -0.00488281Z" fill="black"/>
</g>
<path d="M566.536 181.238C565.376 180.085 563.492 180.085 562.332 181.238C561.171 182.393 561.171 184.266 562.332 185.42L580.279 203.264C581.44 204.417 583.323 204.417 584.484 203.264C585.644 202.11 585.644 200.236 584.484 199.082L566.536 181.238Z" fill="black"/>
<path d="M48.4277 15.604L20.0938 103.579L84.7102 213.746L571.383 200.375H743.611L763.799 121.507L744.529 40.9593L48.4277 15.604Z" fill="#FDE73A"/>
<g filter="url(#filter1_d_657_373)">
<path d="M29.4274 -0.00488281L0 91.3561L66.1722 204.175L554.609 190.759C556.25 190.712 557.544 189.355 557.5 187.722C557.453 186.089 556.087 184.804 554.446 184.849L69.5329 198.168L6.47019 90.6536L33.7147 6.0654L725.302 31.2568L743.879 108.909L724.442 184.846L585.827 184.848C584.184 184.848 582.854 186.17 582.854 187.804C582.854 189.437 584.184 190.76 585.827 190.76L729.065 190.758L750.002 108.956L730.039 25.5113L29.4274 -0.00488281Z" fill="black"/>
</g>
<path d="M566.536 181.238C565.376 180.085 563.492 180.085 562.332 181.238C561.171 182.393 561.171 184.266 562.332 185.42L580.279 203.264C581.44 204.417 583.323 204.417 584.484 203.264C585.644 202.11 585.644 200.236 584.484 199.082L566.536 181.238Z" fill="black"/>
<g filter="url(#filter2_d_657_373)">
<path d="M84.6415 123.472L89.339 123.226L90.8711 152.46L86.1735 152.706L84.6415 123.472ZM71.3266 140.657L95.7326 129.662L97.8486 133.925L73.4889 145.002L71.3266 140.657ZM75.8193 128.477L80.8104 128.215L82.2062 154.849C82.3381 157.365 82.7773 157.721 85.5455 157.576C86.8038 157.51 92.5499 157.209 94.0179 157.132C96.4506 157.004 96.8592 155.973 96.9861 151.172C98.1603 151.91 100.217 152.643 101.661 152.904C101.32 159.23 99.9175 161.365 94.6328 161.642C93.2067 161.716 86.6637 162.059 85.3635 162.128C79.2818 162.446 77.5206 160.94 77.2151 155.11L75.8193 128.477ZM94.0569 130.591L93.7633 130.607L94.6112 129.931L95.4568 129.214L98.9664 130.376L98.7962 131.142C99.139 138.484 99.363 143.561 99.2059 145.378C99.1083 147.528 98.4104 148.658 97.0174 149.362C95.7877 149.973 93.8208 150.16 92.3087 150.198C92.15 148.776 91.5788 146.703 90.9764 145.641C91.8593 145.637 93.0757 145.573 93.537 145.549C94.1242 145.518 94.4112 145.377 94.577 144.527C94.6964 143.596 94.5185 139.399 94.0569 130.591ZM69.2905 124.277L74.0231 125.501C71.7102 132.73 67.7439 140.508 63.4647 145.527C62.9418 144.377 61.4567 141.721 60.5541 140.548C64.1709 136.532 67.4658 130.387 69.2905 124.277ZM65.661 136.075L70.353 130.908L70.3552 130.95L72.0566 163.414L67.1074 163.673L65.661 136.075ZM126.364 128.015C126.001 132.324 125.42 137.275 124.211 142.301C122.139 150.905 118.804 156.295 114.232 156.535C109.535 156.781 105.406 151.824 105.034 144.736C104.529 135.089 112.524 126.343 123.387 125.774C133.747 125.231 140.71 132.1 141.191 141.285C141.653 150.093 136.57 156.626 126.086 158.816L122.639 154.034C124.264 153.738 125.427 153.467 126.546 153.156C131.805 151.576 135.799 147.54 135.476 141.374C135.131 134.789 130.774 130.307 123.518 130.688C114.627 131.154 110.141 138.665 110.418 143.949C110.64 148.186 112.426 150.153 114.02 150.069C115.823 149.975 117.276 147.207 118.741 141.452C119.751 137.446 120.421 132.574 120.609 128.148L126.364 128.015ZM175.686 120.257C176.816 121.754 178.464 124.317 179.301 125.829L176.02 127.431C175.093 125.798 173.661 123.349 172.445 121.815L175.686 120.257ZM180.536 118.11C181.75 119.603 183.401 122.208 184.233 123.636L180.994 125.236C180.021 123.521 178.551 121.158 177.293 119.626L180.536 118.11ZM161.867 123C161.462 124.115 160.952 125.613 160.663 126.512C160.018 128.649 158.922 131.818 157.944 134.014C156.44 137.416 153.801 141.634 151.16 144.211L145.708 141.301C148.57 138.922 151.098 135.004 152.553 132.278C153.585 130.289 154.225 128.069 154.685 126.405C155.074 124.996 155.326 123.385 155.341 122.08L161.867 123ZM155.58 129.848C159.229 129.657 175.629 128.798 177.768 128.686C178.816 128.631 180.741 128.446 182.115 128.163L182.413 133.868C180.813 133.825 179.01 133.92 178.045 133.97C175.906 134.082 159.339 134.951 155.396 135.157L155.58 129.848ZM172.138 132.009C172.493 144.397 168.518 152.807 160.691 158.348L154.829 154.828C156.306 154.12 157.73 153.204 158.65 152.315C163.241 148.415 166.67 142.431 166.308 132.314L172.138 132.009ZM189.966 134.019C191.524 134.063 194.553 134.073 196.734 133.958C201.683 133.699 215.524 132.973 219.257 132.778C221.228 132.675 223.063 132.368 224.191 132.225L224.538 138.852C223.529 138.863 221.379 138.765 219.618 138.857C215.801 139.057 202.002 139.781 197.053 140.04C194.704 140.163 191.9 140.436 190.313 140.645L189.966 134.019ZM249.518 118.659C249.039 119.946 248.533 121.528 248.003 123.449C246.697 128.228 243.043 141.962 241.468 146.418L235.313 146.951C237.297 141.464 240.938 127.478 242.067 122.54C242.544 120.412 242.684 119.059 242.779 117.666L249.518 118.659ZM257.736 131.813C260.993 136.184 265.704 144.223 267.877 148.777L262.347 151.59C260.194 146.614 255.838 138.137 252.649 134.266L257.736 131.813ZM234.795 145.086C240.614 144.57 254.248 142.3 260.078 141.195L261.576 146.5C255.41 147.622 241.061 149.888 235.429 150.772C234.387 150.953 232.805 151.246 231.513 151.482L230.183 145.369C231.612 145.336 233.455 145.198 234.795 145.086ZM287.193 118.997C292.39 119.44 300.767 118.791 305.226 118.01L305.51 123.421C300.419 124.192 292.786 124.592 287.517 124.364L287.193 118.997ZM291.487 136.731C291.227 138.175 291.112 139.19 291.169 140.281C291.268 142.168 292.963 143.215 297.241 142.99C300.974 142.795 304.06 142.297 307.667 141.309L308.09 146.964C305.392 147.652 302.01 148.124 297.271 148.372C290.056 148.75 286.439 146.332 286.215 142.054C286.127 140.377 286.293 138.728 286.684 136.562L291.487 136.731ZM280.587 116.526C280.34 117.422 279.906 119.59 279.778 120.353C279.336 123.152 278.308 131.618 278.527 135.812C278.571 136.651 278.668 137.697 278.838 138.529C279.393 137.07 279.989 135.609 280.543 134.15L283.251 136.069C282.22 139.656 281.073 144.258 280.77 146.503C280.677 147.139 280.6 148.068 280.622 148.488C280.688 148.947 280.725 149.66 280.798 150.245L275.99 150.791C275.002 147.983 273.937 142.908 273.638 137.204C273.306 130.871 274.195 123.758 274.485 120.463C274.593 119.321 274.719 117.717 274.691 116.372L280.587 116.526ZM329.934 112.468C329.638 114.039 329.527 115.139 329.375 116.24C329.061 119.873 327.815 133.818 328.037 138.054C328.219 141.535 330.415 143.313 334.526 143.097C340.397 142.79 343.484 139.894 343.304 136.455C343.157 133.645 341.42 131.002 338.56 128.586L344.366 127.02C347.36 130.396 348.773 133.266 348.959 136.831C349.291 143.165 343.869 148.033 334.683 148.514C328.056 148.862 323.251 146.254 322.882 139.207C322.658 134.929 324.003 122.073 324.114 116.179C324.181 114.241 324.137 113.402 324.003 112.442L329.934 112.468ZM315.233 118.453C318.946 119.478 324.175 119.751 328.454 119.527C331.683 119.358 334.65 118.992 336.727 118.504L336.823 123.546C334.362 123.928 332.062 124.174 328.539 124.359C324.302 124.581 319.15 124.178 315.234 123.29L315.233 118.453ZM314.856 128.903C319.467 130.218 324.35 130.298 328.586 130.076C331.144 129.942 334.239 129.612 336.948 129.133L337.084 134.131C334.79 134.504 332.322 134.759 329.68 134.898C324.101 135.19 318.744 134.882 314.87 133.992L314.856 128.903ZM354.153 130.503C357.416 129.364 362.231 127.346 366.88 125.378L367.994 129.777C363.804 131.679 359.283 133.683 355.664 135.26L354.153 130.503ZM354.002 117.178L366.71 116.512L366.952 121.126L354.244 121.792L354.002 117.178ZM358.158 109.012L362.772 108.77L364.554 142.785C364.677 145.134 364.326 146.456 363.066 147.279C361.849 148.142 360.054 148.405 357.328 148.547C357.136 147.296 356.441 145.271 355.782 143.918C357.296 143.923 358.764 143.846 359.265 143.777C359.768 143.751 359.971 143.614 359.941 143.027L358.158 109.012ZM372.44 108.684L377.054 108.442L378.017 126.813C378.456 135.201 377.755 142.682 369.65 147.733C368.838 146.682 367.031 145.095 365.898 144.355C373.162 140.105 373.772 134.101 373.401 127.013L372.44 108.684ZM379.738 108.301L384.478 108.053L386.144 139.845C386.247 141.817 386.431 142.101 387.269 142.057C387.647 142.038 389.199 141.956 389.66 141.932C390.457 141.89 390.603 140.663 390.505 136.378C391.639 137.16 393.487 137.904 394.844 138.128C394.686 143.94 393.586 146.227 390.315 146.398C389.518 146.44 387.379 146.552 386.624 146.591C382.849 146.789 381.679 145.337 381.402 140.052L379.738 108.301ZM366.174 115.91L369.799 113.659C371.657 116.211 373.641 119.556 374.557 121.779L370.779 124.332C369.901 122.023 367.908 118.51 366.174 115.91ZM383.749 128.657L386.613 125.521C389.5 127.641 392.85 130.578 394.554 132.591L391.549 136.24C389.929 134.222 386.559 130.907 383.749 128.657ZM365.757 133.638C367.667 132.36 370.542 130.233 373.374 128.108L375.21 131.839C373.044 133.845 370.631 135.948 368.536 137.698L365.757 133.638ZM388.144 112.193L392.75 114.222C391.109 117.421 389.451 121.083 388.017 123.429L384.477 121.68C385.773 119.13 387.373 115.135 388.144 112.193ZM417.827 118.123L435.081 115.116L435.868 119.701L418.618 122.792L417.827 118.123ZM426.67 107.903L430.383 105.731C432.175 107.824 434.172 110.622 434.947 112.558L431.039 115.034C430.265 113.098 428.422 110.04 426.67 107.903ZM395.617 109.236L399.617 107.722C400.988 109.795 402.353 112.584 402.832 114.493L398.549 116.232C398.199 114.358 396.91 111.439 395.617 109.236ZM403.059 107.584L407.202 106.399C408.242 108.574 409.279 111.506 409.627 113.338L405.282 114.701C404.976 112.867 404.019 109.847 403.059 107.584ZM402.097 126.14L402.222 128.53L413.672 127.93L413.547 125.54L402.097 126.14ZM401.789 120.268L401.914 122.658L413.364 122.058L413.239 119.668L401.789 120.268ZM397.483 116.75L417.322 115.711L418.144 131.397L398.305 132.437L397.483 116.75ZM396.927 135.032L419.45 133.852L419.681 138.256L397.158 139.436L396.927 135.032ZM413.628 106.231L418.902 107.342C417.508 110.444 415.874 113.768 414.598 115.895L410.545 114.804C411.724 112.429 413.01 108.871 413.628 106.231ZM405.306 117.56L409.542 117.338L410.204 129.963L410.497 129.947L411.319 145.634L406.496 145.886L405.674 130.2L405.968 130.185L405.306 117.56ZM431.069 121.215L435 123.196C432.523 132.115 426.795 140.785 419.503 145.289C418.56 144.161 417.015 142.77 415.669 141.957C423.244 138.027 428.784 129.788 431.069 121.215ZM420.507 105.87L425.247 105.622C426.39 123.437 429.356 138.296 432.349 138.433C433.062 138.396 433.381 136.445 433.399 132.785C434.293 133.789 436.379 135.068 437.158 135.49C436.439 142.635 434.428 144.381 432.662 144.389C425.222 144.484 422.305 128.95 420.507 105.87ZM451.968 106.409C451.809 108.183 451.714 110.375 451.718 112.057C451.745 116.598 451.942 125.967 452.214 131.168C452.436 135.404 455.026 136.656 458.297 136.485C465.218 136.122 469.371 131.909 472.193 127.177L476.254 131.632C473.738 135.801 468.075 141.692 458.512 142.193C451.634 142.554 447.071 139.765 446.695 132.592C446.401 126.972 446.202 115.963 446.013 112.356C445.908 110.343 445.635 108.339 445.213 106.72L451.968 106.409ZM480.391 109.377C482.025 109.249 483.698 109.078 484.491 108.952C487.996 108.432 494.844 107.484 502.526 106.409C506.826 105.805 511.385 105.313 514.356 105.032L514.682 110.44C512.417 110.559 508.812 110.79 506.574 111.412C501.611 113.018 498.08 118.67 498.339 123.619C498.702 130.54 505.291 132.676 512.399 132.682L510.77 138.529C501.934 138.445 493.381 134.141 492.904 125.04C492.587 119 495.736 114.082 498.476 111.794C494.556 112.42 486.046 113.749 481.238 115.095L480.391 109.377ZM528.238 103.968C529.374 103.992 530.847 103.999 531.728 103.953C534.16 103.825 538.597 103.425 540.518 103.156C541.562 103.017 542.639 102.708 543.379 102.375L546.831 104.844C546.319 105.501 545.844 106.073 545.537 106.636C544.236 109.101 542.255 114.631 540.596 119.092C539.121 123.038 537.369 128.135 535.788 130.867C534.244 133.514 532.332 134.749 529.438 134.901C525.789 135.092 522.889 132.721 522.665 128.443C522.313 121.732 528.46 116.237 537.436 115.766C547.208 115.254 556.037 120.007 560.599 122.796L558.472 128.753C553.074 124.452 545.441 120.057 536.801 120.51C530.678 120.831 527.328 124.329 527.488 127.391C527.561 128.775 528.395 129.446 529.402 129.393C530.241 129.35 530.766 128.943 531.508 127.853C532.785 125.725 534.092 121.788 535.429 118.395C536.723 115.005 538.227 110.804 539.349 108.138C537.674 108.268 534.031 108.585 532.15 108.809C531.272 108.898 529.813 109.142 528.729 109.325L528.238 103.968ZM556.354 112.42C556.392 124.362 554.447 132.203 544.696 137.929L540.016 134.515C550.143 129.526 550.99 121.617 551.111 116.69C551.109 115.05 551.063 113.37 550.827 112.078L556.354 112.42ZM564.476 104.97C566.109 104.843 567.783 104.671 568.575 104.545C572.081 104.025 578.928 103.077 586.611 102.002C590.911 101.398 595.47 100.907 598.441 100.625L598.766 106.033C596.501 106.152 592.897 106.383 590.658 107.005C585.695 108.611 582.164 114.263 582.424 119.213C582.786 126.133 589.375 128.269 596.483 128.275L594.855 134.122C586.019 134.039 577.466 129.734 576.989 120.633C576.672 114.593 579.821 109.676 582.561 107.387C578.64 108.013 570.13 109.342 565.322 110.688L564.476 104.97ZM605.484 99.0781L643.148 97.1042L643.414 102.179L605.75 104.153L605.484 99.0781ZM620.948 102.852L626.359 102.568L628.018 134.235L622.608 134.518L620.948 102.852ZM624.332 112.853L627.563 108.688C632.253 110.713 639.029 114.017 642.395 116.448L638.904 121.257C635.788 118.771 629.206 115.163 624.332 112.853ZM666.757 98.6848C666.413 97.7355 665.83 96.2519 665.255 94.8942L670.882 93.9264C671.68 97.123 672.86 100.384 674.008 103.015C675.492 106.47 677.653 109.974 679.138 111.831C679.906 112.842 680.707 113.683 681.508 114.524L679.145 118.391C676.772 118.053 671.417 117.787 667.879 117.678L668.065 113.21C670.131 113.312 672.91 113.377 674.217 113.435C672.578 111.039 670.547 107.613 669.065 104.2C668.021 101.941 667.333 100.043 666.757 98.6848ZM651.593 101.456C659.485 101.968 665.858 101.592 670.862 100.783C674.571 100.126 678.225 99.2193 681.485 98.0391L682.389 103.249C679.663 104.191 676.089 105.009 672.753 105.562C667.21 106.526 660.592 107.041 651.956 106.778L651.593 101.456ZM660.771 115.275C659.492 117.361 658.918 119.241 659.013 121.045C659.199 124.61 662.422 125.913 668.17 125.654C672.742 125.414 676.409 124.759 679.314 124.018L679.3 129.36C676.931 129.905 673.185 130.648 668.11 130.914C659.511 131.365 653.969 128.333 653.65 122.251C653.516 119.693 654.188 117.26 655.464 114.333L660.771 115.275ZM698.428 96.8147C698.212 98.298 698.132 100.784 698.193 101.958C698.336 104.684 698.499 107.788 698.911 110.837C699.815 116.846 701.291 120.932 703.933 120.793C705.946 120.688 707.323 115.653 707.946 112.298L712.448 117.151C710.023 124.638 707.554 127.291 704.199 127.467C699.543 127.711 695.343 123.809 693.58 112.63C692.958 108.793 692.657 103.846 692.523 101.288C692.463 100.155 692.327 98.3541 691.965 97.0693L698.428 96.8147ZM719.448 96.6383C723.685 101.253 727.464 111.569 728.262 117.962L722.84 120.433C721.855 113.672 719.058 103.64 714.214 98.6791L719.448 96.6383Z" fill="black"/>
</g>
<g filter="url(#filter3_d_657_373)">
<path d="M69.1589 55.0826C69.0149 56.0034 68.9312 58.0746 68.9461 59.2755C68.9049 63.0749 69.0324 68.2593 69.266 72.7172C69.5398 77.942 70.262 86.2196 70.4077 88.9998C70.7167 94.8957 68.693 96.636 65.5294 96.8018C60.8798 97.0454 54.0538 93.3656 53.7875 88.2846C53.5439 83.635 59.2794 78.4317 65.8192 75.7337C70.0049 73.9762 74.8061 72.9556 78.4491 72.7647C85.831 72.3778 91.8799 75.906 92.2266 82.521C92.5255 88.2251 89.7772 92.647 82.2536 94.9159C80.0737 95.5108 77.9242 95.7676 75.969 96.0624L73.4854 89.944C75.5945 89.8334 77.7036 89.7229 79.3158 89.302C83.1633 88.4274 86.176 86.2988 85.9951 82.8475C85.8218 79.5401 82.8478 77.8214 78.6775 78.0399C74.6031 78.2535 70.4301 79.3373 66.7691 81.0193C62.5404 82.8751 59.6083 85.6243 59.7163 87.6855C59.7967 89.2194 62.1174 90.3955 63.3637 90.3302C64.2265 90.285 64.8296 89.8689 64.7417 88.1912C64.611 85.6986 64.0222 79.0483 63.7182 73.2483C63.4318 67.7838 63.1683 61.8374 63.0527 59.6324C63.0025 58.6738 62.733 56.2846 62.544 55.4293L69.1589 55.0826ZM83.094 59.5915C86.83 61.1741 92.5536 63.9985 95.2375 65.6843L92.5698 70.7268C90.1685 68.9301 83.7486 65.6616 80.7013 64.3793L83.094 59.5915ZM53.8006 63.7703C56.6463 63.9577 58.7074 63.8496 60.4331 63.7592C65.4182 63.4979 72.8482 62.1953 77.7101 60.4985L78.1654 66.4348C72.8142 67.965 65.142 69.2323 60.9238 69.4533C57.7601 69.6191 55.8882 69.6692 54.2483 69.5628L53.8006 63.7703ZM98.7105 78.5282C100.916 77.4993 103.948 75.7542 107.168 73.9032L108.688 78.1494C106.049 80.0662 103.263 81.9426 100.614 83.6676L98.7105 78.5282ZM102.307 60.0266C103.855 62.9736 105.26 66.8414 105.676 69.2709L101.371 71.5153C100.998 68.9873 99.6823 64.9707 98.3206 61.9178L102.307 60.0266ZM125.688 50.3416L126.053 57.2921L119.965 57.6111L119.601 50.6607L125.688 50.3416ZM110.935 70.5815C111.34 78.2989 110.873 89.5707 105.092 96.651C104.222 95.6392 102.004 93.6885 100.915 93.0727C105.964 86.7037 105.974 77.7149 105.615 70.8603L104.801 55.3296L110.121 55.0508L110.935 70.5815ZM142.381 53.3601L142.635 58.2015L107.835 60.0253L107.581 55.1839L142.381 53.3601ZM137.349 62.8044L138.204 62.6154L142.17 63.0805C141.513 66.1431 140.589 69.6042 139.743 71.8115L134.955 71.2453C135.574 69.2902 136.271 66.0814 136.617 63.5157L136.582 62.8446L137.349 62.8044ZM119.24 73.1263C119.599 79.9809 119.201 89.8072 114.257 96.3629C113.344 95.4495 111.056 93.9832 109.828 93.4708C114.368 87.465 114.42 79.291 114.108 73.3472L113.621 64.0479L118.75 63.7792L119.24 73.1263ZM124.3 76.1296C127.583 83.7442 134.076 88.4028 144.333 89.6917C143.193 90.857 141.87 93.1374 141.232 94.7089C130.074 92.7462 123.579 87.1264 119.516 77.4858L124.3 76.1296ZM135.651 72.6027L136.6 72.3607L140.159 73.3278C137.825 85.6588 130.429 92.1988 119.997 95.8218C119.397 94.4594 118.035 92.3197 116.97 91.27C126.159 88.6735 132.869 82.7943 134.685 73.4224L134.644 72.6555L135.651 72.6027ZM129.783 59.6921L130.595 75.1749L125.466 75.4437L124.654 59.9609L129.783 59.6921ZM137.061 62.8195L137.312 67.6129L116.365 68.7107L116.114 63.9173L137.061 62.8195ZM135.987 72.5851L136.228 77.1868L116.862 78.2017L116.621 73.6L135.987 72.5851ZM193.372 85.1029C191.227 87.2822 188.432 88.9668 184.501 89.1728C180.906 89.3612 178.374 86.8984 178.13 82.2488C177.856 77.0239 179.215 69.9351 178.984 65.5251C178.861 63.1764 177.602 62.0887 175.541 62.1968C171.083 62.4304 164.31 69.851 160.732 74.9413L160.297 67.5619C163.06 64.3409 170.688 56.7312 177.016 56.3996C182.193 56.1283 184.702 59.073 184.913 63.0995C185.172 68.0367 183.959 75.166 184.221 80.1511C184.286 81.3974 185.002 82.2251 186.201 82.1623C187.974 82.0693 190.162 80.7049 192.206 78.4349L193.372 85.1029ZM159.054 64.0221C156.91 64.3749 152.386 65.1887 149.247 65.8339L148.3 59.683C149.645 59.6606 150.747 59.6028 152.468 59.4165C155.48 59.1144 161.568 57.8821 163.687 57.0501L165.735 59.4422C164.978 60.5874 163.615 63.014 162.866 64.303L160.558 73.4604C158.61 76.6387 154.68 83.2854 152.323 86.9178L148.308 81.841C151.132 77.9438 156.487 70.0688 158.685 66.1564L158.716 64.905L159.054 64.0221ZM157.994 54.801C157.924 53.4588 157.896 52.0183 157.531 50.5474L164.539 50.3724C163.925 54.2498 163.002 66.8915 163.451 75.4717C163.655 79.3544 163.868 83.4288 164.389 87.8716C164.483 88.7319 164.767 90.4954 164.918 91.5449L158.351 91.8891C158.39 90.7816 158.35 89.1014 158.309 88.3344C158.114 83.6823 157.993 80.4682 157.823 74.4689C157.743 70.1952 158.094 56.7183 157.994 54.801ZM212.177 51.1443L238.493 49.7651L238.731 54.3188L212.415 55.698L212.177 51.1443ZM213.808 57.4996L237.823 56.241L238.049 60.5551L214.034 61.8137L213.808 57.4996ZM211.937 63.9904L240.026 62.5183L240.272 67.2159L212.183 68.688L211.937 63.9904ZM230.348 44.7605L236.125 45.8517C234.943 48.0765 233.76 50.2535 232.874 51.6938L228.3 50.6357C229.075 48.9128 229.956 46.4633 230.348 44.7605ZM215.049 47.2446L219.477 45.5225C220.664 47.0945 221.978 49.2367 222.488 50.7L217.785 52.6769C217.323 51.211 216.146 48.9175 215.049 47.2446ZM235.766 68.3653L240.241 71.207C238.248 73.5225 235.83 76.0044 233.993 77.6388L230.154 75.0041C231.941 73.3243 234.386 70.4564 235.766 68.3653ZM213.285 72.2832L217.08 69.4888C218.898 71.1719 221.135 73.506 222.182 75.1335L218.21 78.2256C217.257 76.5452 215.108 74.0622 213.285 72.2832ZM211.072 83.2621C213.88 81.8171 217.986 79.439 221.997 77.1139L223.727 81.6856C220.475 83.8268 216.798 86.1343 213.819 87.9728L211.072 83.2621ZM222.739 53.6669L228.252 53.378L229.872 84.2956C230.008 86.884 229.649 88.2967 228.16 89.2399C226.624 90.1857 224.328 90.4021 221.308 90.5604C221.087 89.0819 220.297 86.8642 219.556 85.5572C221.188 85.5197 223.058 85.4218 223.633 85.3916C224.208 85.3615 224.387 85.1118 224.36 84.5845L222.739 53.6669ZM228.768 68.732C231.214 75.0447 235.721 80.3361 241.987 82.5071C240.892 83.6219 239.325 85.819 238.588 87.3476C232.175 84.2229 227.749 77.7257 225.074 69.7908L228.768 68.732ZM195.497 56.6327L211.363 55.8012L211.642 61.1219L195.776 61.9534L195.497 56.6327ZM200.825 46.4039L206.05 46.13L208.409 91.1403L203.184 91.4141L200.825 46.4039ZM201.44 59.9743L204.71 60.9084C203.716 68.5549 201.469 77.9494 198.324 83.065C197.765 81.5562 196.403 79.4165 195.518 78.1171C198.367 73.786 200.657 66.1197 201.44 59.9743ZM206.705 63.2072C207.827 64.4461 212.074 70.2799 212.959 71.5793L210.203 75.8574C209.003 73.1325 205.841 67.8187 204.429 65.6336L206.705 63.2072ZM244.821 51.9809C246.688 51.835 248.601 51.6387 249.506 51.4951C253.465 50.9031 261.339 49.8175 270.071 48.5908C275.036 47.9461 280.243 47.3367 283.639 47.0146L284.011 53.1956C281.422 53.3312 277.302 53.5952 274.744 54.3061C269.072 56.1414 265.037 62.6015 265.336 68.3056C265.748 76.1669 273.28 78.656 281.401 78.615L279.493 85.3C269.442 85.2019 259.667 80.2828 259.122 69.881C258.763 63.0264 262.359 57.3584 265.442 54.7455C261.01 55.4585 251.238 57.028 245.789 58.5152L244.821 51.9809ZM277.402 58.2524C278.641 59.8698 280.519 62.7033 281.531 64.573L278.019 66.3432C276.637 63.8201 275.529 61.9554 273.933 59.9242L277.402 58.2524ZM282.607 55.7685C283.942 57.3809 285.911 60.1136 287.016 61.9303L283.511 63.8443C282.081 61.3237 280.883 59.56 279.239 57.5312L282.607 55.7685ZM307.26 43.5175C307.078 45.5458 306.969 48.051 306.973 49.9734C307.005 55.1628 307.23 65.8697 307.541 71.8136C307.795 76.6549 310.754 78.0861 314.493 77.8901C322.402 77.4756 327.148 72.6606 330.374 67.2524L335.015 72.3445C332.14 77.1094 325.668 83.8414 314.739 84.4142C306.877 84.8262 301.663 81.6387 301.234 73.4419C300.897 67.0187 300.67 54.4374 300.454 50.315C300.334 48.0142 300.022 45.7234 299.54 43.8741L307.26 43.5175ZM360.371 40.4938C360.105 41.8535 359.787 44.0332 359.603 45.1003C359.102 48.395 358.21 54.3058 357.172 59.2629C355.798 66.0641 353.099 76.011 350.762 81.8534L343.981 79.9496C346.555 74.9601 349.673 64.7509 351.143 57.9446C352.105 53.376 352.932 48.0455 353.119 45.1998C353.266 43.4136 353.211 41.4458 353.006 40.3029L360.371 40.4938ZM348.524 48.3245C354.372 48.018 361.083 46.7531 367.237 44.9405L367.551 50.9323C361.68 52.6339 354.197 53.8432 348.78 54.1271C346.431 54.2502 344.653 54.2473 342.97 54.2393L342.464 48.2576C344.972 48.4146 346.559 48.4275 348.524 48.3245ZM363.96 54.8697C366.629 54.4414 370.07 54.0688 373.186 53.9055C375.918 53.7623 378.802 53.7554 381.597 53.8973L381.803 59.6544C379.343 59.4949 376.401 59.3126 373.525 59.4633C370.218 59.6367 367.253 59.9362 364.254 60.478L363.96 54.8697ZM367.179 66.7655C366.916 68.1732 366.709 69.7221 366.764 70.7767C366.875 72.8858 368.348 74.3948 373.525 74.1235C376.736 73.9551 380.026 73.4463 383.397 72.6448L383.476 78.745C380.812 79.2691 377.615 79.725 373.781 79.926C365.68 80.3506 361.222 77.8444 360.969 73.003C360.851 70.7501 361.161 68.4267 361.447 66.5372L367.179 66.7655ZM408.765 63.9612L406.66 47.633L406.046 40.5034L413.955 40.0889L414.089 47.2436L413.702 63.7024L408.765 63.9612ZM411.928 76.629C409.436 76.7596 407.569 75.079 407.439 72.5864C407.308 70.0938 409.039 68.2728 411.484 68.1446C413.88 68.019 415.792 69.6492 415.923 72.1418C416.054 74.6344 414.325 76.5034 411.928 76.629Z" fill="black"/>
</g>
</g>
<defs>
<filter id="filter0_d_657_373" x="-40" y="-40.0049" width="830.002" height="284.18" filterUnits="userSpaceOnUse" color-interpolation-filters="sRGB">
<feFlood flood-opacity="0" result="BackgroundImageFix"/>
<feColorMatrix in="SourceAlpha" type="matrix" values="0 0 0 0 0 0 0 0 0 0 0 0 0 0 0 0 0 0 127 0" result="hardAlpha"/>
<feOffset/>
<feGaussianBlur stdDeviation="20"/>
<feComposite in2="hardAlpha" operator="out"/>
<feColorMatrix type="matrix" values="0 0 0 0 1 0 0 0 0 1 0 0 0 0 1 0 0 0 0.25 0"/>
<feBlend mode="normal" in2="BackgroundImageFix" result="effect1_dropShadow_657_373"/>
<feBlend mode="normal" in="SourceGraphic" in2="effect1_dropShadow_657_373" result="shape"/>
</filter>
<filter id="filter1_d_657_373" x="-40" y="-40.0049" width="830.002" height="284.18" filterUnits="userSpaceOnUse" color-interpolation-filters="sRGB">
<feFlood flood-opacity="0" result="BackgroundImageFix"/>
<feColorMatrix in="SourceAlpha" type="matrix" values="0 0 0 0 0 0 0 0 0 0 0 0 0 0 0 0 0 0 127 0" result="hardAlpha"/>
<feOffset/>
<feGaussianBlur stdDeviation="20"/>
<feComposite in2="hardAlpha" operator="out"/>
<feColorMatrix type="matrix" values="0 0 0 0 1 0 0 0 0 1 0 0 0 0 1 0 0 0 0.25 0"/>
<feBlend mode="normal" in2="BackgroundImageFix" result="effect1_dropShadow_657_373"/>
<feBlend mode="normal" in="SourceGraphic" in2="effect1_dropShadow_657_373" result="shape"/>
</filter>
<filter id="filter2_d_657_373" x="55.7109" y="89.4834" width="677.133" height="82.5527" filterUnits="userSpaceOnUse" color-interpolation-filters="sRGB">
<feFlood flood-opacity="0" result="BackgroundImageFix"/>
<feColorMatrix in="SourceAlpha" type="matrix" values="0 0 0 0 0 0 0 0 0 0 0 0 0 0 0 0 0 0 127 0" result="hardAlpha"/>
<feOffset dy="4"/>
<feGaussianBlur stdDeviation="2"/>
<feComposite in2="hardAlpha" operator="out"/>
<feColorMatrix type="matrix" values="0 0 0 0 0 0 0 0 0 0 0 0 0 0 0 0 0 0 0.25 0"/>
<feBlend mode="normal" in2="BackgroundImageFix" result="effect1_dropShadow_657_373"/>
<feBlend mode="normal" in="SourceGraphic" in2="effect1_dropShadow_657_373" result="shape"/>
</filter>
<filter id="filter3_d_657_373" x="47.9961" y="35.1367" width="372.367" height="72.3643" filterUnits="userSpaceOnUse" color-interpolation-filters="sRGB">
<feFlood flood-opacity="0" result="BackgroundImageFix"/>
<feColorMatrix in="SourceAlpha" type="matrix" values="0 0 0 0 0 0 0 0 0 0 0 0 0 0 0 0 0 0 127 0" result="hardAlpha"/>
<feOffset dy="4"/>
<feGaussianBlur stdDeviation="2"/>
<feComposite in2="hardAlpha" operator="out"/>
<feColorMatrix type="matrix" values="0 0 0 0 0 0 0 0 0 0 0 0 0 0 0 0 0 0 0.25 0"/>
<feBlend mode="normal" in2="BackgroundImageFix" result="effect1_dropShadow_657_373"/>
<feBlend mode="normal" in="SourceGraphic" in2="effect1_dropShadow_657_373" result="shape"/>
</filter>
<clipPath id="clip0_657_373">
<rect width="763.8" height="213.751" fill="white" transform="translate(0 -0.00488281)"/>
</clipPath>
</defs>
</svg>
