<svg width="671" height="720" viewBox="0 0 671 720" fill="none" xmlns="http://www.w3.org/2000/svg">
<g clip-path="url(#clip0_7_386)">
<path d="M169.263 690.92C168.522 690.956 167.789 690.749 167.163 690.327C166.537 689.904 166.048 689.287 165.762 688.559C165.476 687.831 165.407 687.026 165.565 686.255C165.722 685.483 166.099 684.782 166.643 684.246C166.734 683.861 166.799 683.583 166.891 683.198C166.182 681.28 164.952 679.632 163.358 678.465C161.765 677.297 159.88 676.663 157.945 676.643C156.011 676.624 154.115 677.22 152.501 678.355C150.887 679.491 149.628 681.114 148.886 683.017C144.602 693.697 139.057 704.754 141.815 716.518C123.601 675.403 129.795 624.26 156.712 589.099C164.153 584.733 170.183 576.977 171.753 567.972C168.071 569.301 163.48 566.11 166.249 561.979C167.449 560.4 168.66 558.834 169.86 557.255C155.873 541.388 139.206 566.325 154.603 587.74C149.566 594.466 145.204 601.734 141.586 609.426C142.421 601.258 141.424 592.996 138.677 585.318C135.892 578.163 130.673 572.137 126.076 565.952C120.488 558.415 108.986 561.892 108.234 571.456C113.392 573.262 114.062 581.197 108.162 582.283C109.707 600.075 120.621 616.427 135.652 624.23C130.101 640.819 127.934 658.477 129.294 676.028C126.641 655.516 105.968 650.539 91.5192 642.386C90.5996 641.758 89.5282 641.428 88.4357 641.438C87.3433 641.447 86.277 641.795 85.3669 642.439C84.4568 643.082 83.7423 643.994 83.3106 645.063C82.8788 646.132 82.7485 647.312 82.9354 648.458C84.9297 649.322 86.8385 650.394 88.6337 651.66C89.4749 652.262 90.1205 653.127 90.4822 654.136C90.8439 655.144 90.9038 656.247 90.6538 657.294C90.4038 658.34 89.8561 659.278 89.0858 659.98C88.3155 660.682 87.3603 661.112 86.3511 661.213C93.6344 680.413 112.465 693.305 131.804 693.232C133.663 701.834 136.356 710.207 139.839 718.217H168.543C168.646 717.877 168.739 717.526 168.831 717.186C166.175 717.364 163.507 717.195 160.889 716.682C167.918 707.818 173.355 703.295 169.263 690.92L169.263 690.92Z" fill="#0FDC0F"/>
<path d="M425.165 690.92C425.905 690.956 426.638 690.749 427.264 690.327C427.89 689.904 428.38 689.287 428.666 688.559C428.952 687.831 429.02 687.026 428.863 686.255C428.705 685.483 428.329 684.782 427.784 684.246C427.693 683.861 427.628 683.583 427.537 683.198C428.245 681.28 429.475 679.632 431.069 678.465C432.663 677.297 434.547 676.663 436.482 676.643C438.416 676.624 440.312 677.22 441.926 678.355C443.54 679.491 444.799 681.114 445.541 683.017C449.825 693.697 455.37 704.754 452.613 716.518C470.826 675.403 464.632 624.26 437.715 589.099C430.274 584.733 424.244 576.977 422.674 567.972C426.356 569.301 430.947 566.11 428.179 561.979C426.979 560.4 425.767 558.834 424.567 557.255C438.555 541.388 455.221 566.325 439.824 587.74C444.861 594.466 449.224 601.734 452.841 609.426C452.006 601.258 453.003 592.996 455.75 585.318C458.535 578.163 463.755 572.137 468.351 565.952C473.939 558.415 485.441 561.892 486.193 571.456C481.036 573.262 480.366 581.197 486.265 582.283C484.72 600.075 473.806 616.427 458.775 624.23C464.326 640.819 466.494 658.477 465.133 676.028C467.786 655.516 488.459 650.539 502.908 642.386C503.828 641.758 504.899 641.428 505.992 641.438C507.084 641.447 508.15 641.795 509.06 642.439C509.97 643.082 510.685 643.994 511.117 645.063C511.548 646.132 511.679 647.312 511.492 648.458C509.498 649.322 507.589 650.394 505.794 651.66C504.952 652.262 504.307 653.127 503.945 654.136C503.583 655.144 503.523 656.247 503.773 657.294C504.023 658.34 504.571 659.278 505.341 659.98C506.112 660.682 507.067 661.112 508.076 661.213C500.793 680.413 481.963 693.305 462.623 693.232C460.764 701.834 458.072 710.207 454.588 718.217H425.884C425.781 717.877 425.688 717.526 425.596 717.186C428.253 717.364 430.92 717.195 433.538 716.682C426.509 707.818 421.074 703.295 425.165 690.92Z" fill="#0FDC0F"/>
<path d="M435.808 695.46L423.446 698.454L406.715 649.095L424.96 644.674L435.808 695.46Z" fill="#FFB6B6"/>
<path d="M439.178 709.088L401.164 718.301L401.055 717.789C400.162 713.609 400.865 709.223 403.008 705.595C405.151 701.967 408.56 699.395 412.484 698.444L418.229 691.15L432.383 693.621L435.702 692.817L439.178 709.088Z" fill="#2F2E41"/>
<path d="M635.219 454.866L642.014 466.264L603.97 499.61L593.939 482.786L635.219 454.866Z" fill="#FFB6B6"/>
<path d="M646.143 446.912L667.042 481.964L666.626 482.246C663.229 484.544 659.114 485.31 655.186 484.376C651.259 483.443 647.84 480.886 645.682 477.268L637.304 473.949L634.742 458.918L632.917 455.858L646.143 446.912Z" fill="#2F2E41"/>
<path d="M241.178 333L238.125 314.152L284.542 291.827L294.566 272.924C294.243 271.265 294.356 269.543 294.893 267.948C295.43 266.354 296.371 264.948 297.611 263.887C298.851 262.827 300.343 262.151 301.921 261.937C303.499 261.722 305.101 261.976 306.552 262.67C308.003 263.365 309.246 264.473 310.142 265.872C311.039 267.271 311.555 268.908 311.634 270.6C311.712 272.292 311.35 273.974 310.587 275.461C309.824 276.948 308.69 278.181 307.311 279.024L290.821 306.178L241.178 333Z" fill="#A0616A"/>
<path d="M227.068 317.592L247.971 306.219L253.505 328.349L238.985 339.812L227.068 317.592Z" fill="#6C63FF"/>
<path d="M180.163 693.745L192.802 693.744L198.814 641.82L180.16 641.821L180.163 693.745Z" fill="#A0616A"/>
<path d="M197.007 694.957V685.831L193.685 686.047L180.159 686.9L177.029 687.105L174.636 717.67L174.508 719.308H183.482L183.77 717.681L185.074 710.284L188.439 717.681L189.176 719.308H212.969C214.385 719.299 215.74 718.695 216.74 717.627C217.74 716.56 218.304 715.115 218.311 713.607C219.315 708.612 199.529 697.813 197.007 694.957Z" fill="#2F2E41"/>
<path d="M30.136 487.681L27.1897 500.772L73.1944 519.106L77.5423 499.786L30.136 487.681Z" fill="#A0616A"/>
<path d="M26.1024 504.845L34.4345 506.973L35.0118 503.481L37.3862 489.273L37.9291 485.983L10.5817 476.378L9.11554 475.864L7.02309 485.159L8.44149 485.837L14.8906 488.911L7.35292 490.672L5.69538 491.057L0.147929 515.699C-0.173467 517.168 0.0620527 518.713 0.803392 519.997C1.54473 521.282 2.732 522.204 4.10739 522.561C8.4341 524.766 22.9068 506.791 26.1024 504.845Z" fill="#2F2E41"/>
<path d="M199.705 357.698L183.437 349.598L150.995 391.414L131.234 396.737C129.817 395.968 128.228 395.631 126.642 395.763C125.056 395.895 123.535 396.492 122.248 397.487C120.96 398.482 119.956 399.836 119.346 401.401C118.736 402.966 118.544 404.68 118.791 406.353C119.038 408.027 119.715 409.595 120.746 410.885C121.777 412.175 123.123 413.136 124.635 413.662C126.147 414.189 127.767 414.259 129.314 413.867C130.861 413.475 132.277 412.634 133.404 411.439L162.34 401.645L199.705 357.698Z" fill="#A0616A"/>
<path d="M430.343 202.898C426.895 202.898 423.524 201.809 420.656 199.768C417.789 197.728 415.554 194.828 414.235 191.434C412.915 188.041 412.57 184.307 413.243 180.705C413.915 177.103 415.576 173.794 418.014 171.197C420.453 168.599 423.559 166.831 426.941 166.114C430.324 165.398 433.829 165.766 437.015 167.171C440.201 168.577 442.924 170.957 444.84 174.011C446.756 177.065 447.778 180.655 447.778 184.328C447.773 189.251 445.934 193.971 442.666 197.453C439.397 200.934 434.965 202.893 430.343 202.898ZM430.343 167.889C427.29 167.889 424.306 168.853 421.768 170.659C419.23 172.465 417.252 175.033 416.083 178.037C414.915 181.041 414.61 184.346 415.205 187.535C415.801 190.724 417.271 193.653 419.429 195.952C421.588 198.251 424.338 199.817 427.332 200.451C430.326 201.085 433.429 200.76 436.249 199.516C439.07 198.271 441.48 196.164 443.176 193.461C444.872 190.757 445.777 187.579 445.777 184.328C445.773 179.969 444.145 175.791 441.251 172.709C438.358 169.627 434.435 167.894 430.343 167.889Z" fill="#F9A826"/>
<path d="M429.112 191.324C429.077 191.324 429.042 191.322 429.007 191.321C428.698 191.305 428.395 191.218 428.12 191.066C427.845 190.913 427.604 190.7 427.414 190.439L424.668 186.678C424.494 186.441 424.366 186.169 424.291 185.879C424.217 185.589 424.196 185.286 424.231 184.988C424.266 184.689 424.356 184.401 424.495 184.14C424.635 183.878 424.822 183.649 425.045 183.464L425.143 183.382C425.366 183.197 425.621 183.061 425.893 182.981C426.166 182.901 426.45 182.879 426.731 182.917C427.011 182.954 427.282 183.05 427.527 183.199C427.773 183.347 427.988 183.546 428.162 183.784C428.3 183.973 428.476 184.129 428.676 184.24C428.877 184.351 429.097 184.414 429.323 184.426C429.548 184.437 429.773 184.397 429.983 184.308C430.192 184.218 430.381 184.081 430.537 183.907L436.113 177.636C436.506 177.196 437.046 176.939 437.616 176.923C438.186 176.906 438.739 177.131 439.153 177.548L439.245 177.641C439.45 177.848 439.615 178.096 439.73 178.371C439.845 178.645 439.908 178.941 439.916 179.242C439.923 179.543 439.875 179.842 439.774 180.123C439.673 180.404 439.521 180.661 439.327 180.879L430.673 190.608C430.472 190.834 430.23 191.014 429.962 191.137C429.694 191.26 429.405 191.324 429.112 191.324Z" fill="#F9A826"/>
<path d="M343.306 427.731C339.857 427.731 336.486 426.642 333.619 424.601C330.752 422.561 328.517 419.661 327.198 416.267C325.878 412.874 325.533 409.14 326.205 405.538C326.878 401.936 328.539 398.627 330.977 396.03C333.415 393.432 336.522 391.664 339.904 390.947C343.286 390.231 346.792 390.598 349.978 392.004C353.164 393.41 355.887 395.79 357.802 398.844C359.718 401.897 360.741 405.488 360.741 409.161C360.736 414.084 358.897 418.804 355.628 422.286C352.36 425.767 347.928 427.725 343.306 427.731ZM343.306 392.722C340.253 392.722 337.269 393.686 334.731 395.492C332.193 397.298 330.214 399.866 329.046 402.87C327.878 405.874 327.572 409.179 328.168 412.368C328.763 415.557 330.233 418.486 332.392 420.785C334.55 423.084 337.301 424.65 340.294 425.284C343.288 425.918 346.392 425.593 349.212 424.349C352.032 423.104 354.443 420.997 356.139 418.294C357.835 415.59 358.74 412.412 358.74 409.161C358.735 404.802 357.108 400.624 354.214 397.542C351.321 394.46 347.398 392.726 343.306 392.722Z" fill="#F9A826"/>
<path d="M342.075 416.157C342.04 416.157 342.005 416.156 341.97 416.154C341.661 416.138 341.358 416.051 341.083 415.899C340.808 415.746 340.567 415.533 340.377 415.272L337.63 411.511C337.457 411.274 337.329 411.002 337.254 410.712C337.179 410.422 337.159 410.119 337.194 409.821C337.229 409.522 337.319 409.234 337.458 408.973C337.598 408.711 337.784 408.482 338.007 408.297L338.106 408.215C338.329 408.03 338.584 407.894 338.856 407.814C339.129 407.734 339.413 407.712 339.693 407.75C339.974 407.787 340.244 407.883 340.49 408.032C340.735 408.18 340.951 408.379 341.124 408.617C341.263 408.806 341.439 408.962 341.639 409.073C341.839 409.184 342.06 409.247 342.285 409.259C342.511 409.27 342.736 409.23 342.946 409.141C343.155 409.051 343.344 408.914 343.499 408.74L349.076 402.469C349.469 402.029 350.009 401.772 350.579 401.756C351.149 401.739 351.702 401.964 352.116 402.381L352.208 402.474C352.413 402.681 352.577 402.929 352.693 403.204C352.808 403.478 352.871 403.774 352.879 404.075C352.886 404.376 352.838 404.675 352.737 404.956C352.636 405.237 352.484 405.494 352.29 405.712L343.636 415.441C343.435 415.667 343.193 415.847 342.925 415.97C342.656 416.093 342.367 416.157 342.075 416.157Z" fill="#F9A826"/>
<path d="M152.224 177.325C148.775 177.325 145.405 176.235 142.537 174.195C139.67 172.154 137.435 169.254 136.116 165.861C134.796 162.468 134.451 158.734 135.124 155.131C135.796 151.529 137.457 148.22 139.895 145.623C142.334 143.026 145.44 141.257 148.822 140.541C152.204 139.824 155.71 140.192 158.896 141.598C162.082 143.003 164.805 145.383 166.721 148.437C168.636 151.491 169.659 155.081 169.659 158.754C169.654 163.678 167.815 168.398 164.547 171.879C161.278 175.361 156.846 177.319 152.224 177.325ZM152.224 142.315C149.171 142.315 146.187 143.279 143.649 145.086C141.111 146.892 139.133 149.459 137.964 152.463C136.796 155.467 136.49 158.773 137.086 161.961C137.682 165.15 139.152 168.079 141.31 170.379C143.469 172.678 146.219 174.243 149.213 174.878C152.207 175.512 155.31 175.186 158.13 173.942C160.951 172.698 163.361 170.591 165.057 167.887C166.753 165.184 167.658 162.006 167.658 158.754C167.654 154.396 166.026 150.217 163.132 147.135C160.239 144.054 156.316 142.32 152.224 142.315Z" fill="#F9A826"/>
<path d="M150.993 165.75C150.958 165.75 150.923 165.749 150.888 165.747C150.579 165.731 150.276 165.644 150.001 165.492C149.726 165.34 149.485 165.126 149.295 164.866L146.549 161.105C146.375 160.867 146.247 160.596 146.172 160.306C146.097 160.016 146.077 159.713 146.112 159.414C146.147 159.116 146.237 158.828 146.376 158.566C146.516 158.305 146.703 158.075 146.925 157.891L147.024 157.809C147.247 157.624 147.502 157.488 147.774 157.408C148.047 157.328 148.331 157.306 148.612 157.343C148.892 157.381 149.163 157.476 149.408 157.625C149.654 157.774 149.869 157.973 150.043 158.21C150.181 158.4 150.357 158.556 150.557 158.666C150.758 158.777 150.978 158.841 151.204 158.852C151.429 158.864 151.654 158.824 151.864 158.734C152.073 158.645 152.262 158.508 152.418 158.334L157.994 152.063C158.387 151.623 158.927 151.366 159.497 151.35C160.067 151.333 160.62 151.558 161.034 151.975L161.126 152.068C161.331 152.275 161.496 152.522 161.611 152.797C161.726 153.072 161.789 153.368 161.797 153.669C161.804 153.969 161.756 154.269 161.655 154.55C161.554 154.83 161.402 155.087 161.208 155.306L152.554 165.035C152.353 165.261 152.111 165.441 151.843 165.564C151.575 165.687 151.286 165.75 150.993 165.75Z" fill="#F9A826"/>
<path d="M291.81 496.777C251.38 496.777 204.916 448.991 163.806 471.696C39.3378 540.439 56.4716 425.408 20.7129 382.627L21.8869 380.119C61.3425 417.8 110.604 448.459 164.347 468.778C212.913 487.143 261.843 495.652 305.831 493.406L305.907 496.421C301.261 496.659 296.562 496.778 291.81 496.777Z" fill="#E42C2C"/>
<path d="M236.35 173.689C241.017 173.689 244.801 168.286 244.801 161.619C244.801 154.953 241.017 149.549 236.35 149.549C231.683 149.549 227.899 154.953 227.899 161.619C227.899 168.286 231.683 173.689 236.35 173.689Z" fill="#6C63FF"/>
<path d="M236.35 173.689C241.017 173.689 244.801 168.286 244.801 161.619C244.801 154.953 241.017 149.549 236.35 149.549C231.683 149.549 227.899 154.953 227.899 161.619C227.899 168.286 231.683 173.689 236.35 173.689Z" fill="#6C63FF"/>
<path d="M333.959 361.985C330.095 364.727 326.141 358.201 330.079 355.58C333.942 352.839 337.896 359.365 333.959 361.985Z" fill="#E6E6E6"/>
<path d="M311.72 142.284C317.798 142.284 322.725 137.036 322.725 130.563C322.725 124.09 317.798 118.842 311.72 118.842C305.642 118.842 300.715 124.09 300.715 130.563C300.715 137.036 305.642 142.284 311.72 142.284Z" fill="#E42C2C"/>
<path opacity="0.3" d="M350.21 194.794L412.83 0L344.07 192.462C343.73 192.919 343.497 193.455 343.39 194.027C343.284 194.599 343.307 195.19 343.458 195.75C343.608 196.311 343.882 196.825 344.257 197.25C344.631 197.675 345.096 197.999 345.611 198.195C346.127 198.391 346.679 198.453 347.221 198.376C347.764 198.299 348.282 198.085 348.731 197.753C349.181 197.42 349.55 196.979 349.807 196.464C350.064 195.949 350.202 195.377 350.21 194.794Z" fill="white"/>
<path d="M183.304 425.055C183.304 425.055 156.612 443.568 163.67 455.869C163.913 456.293 131.786 501.487 131.786 501.487L71.1386 497.386L69.0018 519.007L122.995 535.662C122.995 535.662 136.204 545.998 146.408 534.61C156.612 523.222 190.601 488.348 190.601 488.348L192.24 558.757L175.178 656.323L200.654 654.602L225.45 556.72L234.603 445.844L183.304 425.055Z" fill="#2F2E41"/>
<path d="M202.317 313.951L191.092 323.011L178.299 352.094L190.601 369.89C190.601 369.89 200.949 388.992 184.385 407.491C167.821 425.99 155.102 445.747 168.36 445.042C181.618 444.336 235.313 473.425 235.667 449.594C236.02 425.762 236.735 407.491 236.735 407.491L250.813 369.46C250.813 369.46 259.2 346.772 253.312 339.981C247.423 333.19 239.538 324.512 239.538 324.512L225.2 309.24H212.254L202.317 313.951Z" fill="#6C63FF"/>
<path d="M223.27 258.072C248.451 273.334 227.779 313.602 202.128 299.263C176.948 284.001 197.62 243.733 223.27 258.072Z" fill="#A0616A"/>
<path d="M236.735 266.534C234.971 268.978 231.284 267.832 224.065 269.576C224.081 266.97 223.799 264.371 223.224 261.838C222.686 264.975 221.509 267.947 219.775 270.546C213.507 271.287 221.191 291.57 217.982 306.482C213.847 275.022 205.149 283.264 209.543 289.504C212.356 293.499 210.48 305.483 202.041 299.491C188.117 306.54 168.286 271.527 190.265 255.107C189.873 246.232 199.145 244.829 204.854 247.558C218.711 236.564 234.542 250.651 236.735 266.534Z" fill="#2F2E41"/>
<path d="M172.126 243.577C166.519 280.291 136.47 236.825 122.341 272.955C117.899 286.039 125.521 295.399 130.342 306.259C131.442 315.184 120.541 319.713 119.399 327.928C119.081 346.763 147.611 345.611 155.587 333.728C163.782 321.288 153.996 304.598 158.922 291.245C165.845 272.707 194 272.57 196.453 251.002C191.703 243.797 178.929 235.545 172.126 243.577Z" fill="#2F2E41"/>
<path d="M194.837 247.165C194.653 247.247 194.47 247.329 194.306 247.422H194.296C194.142 247.504 193.987 247.586 193.833 247.679C193.813 247.689 193.804 247.7 193.784 247.71C193.582 247.504 193.379 247.299 193.167 247.093C193.112 247.428 193.125 247.771 193.205 248.101L193.234 248.224C193.427 248.44 193.63 248.645 193.842 248.861C194.035 248.707 194.219 248.543 194.412 248.388C194.528 248.286 194.644 248.183 194.769 248.08C194.788 247.813 194.817 247.504 194.846 247.165L194.837 247.165ZM200.648 235.732C196.342 234.683 194.952 240.677 194.537 243.566C192.973 233.079 186.467 236.38 188.717 243.536C189.433 245.654 190.562 247.588 192.028 249.211C192.23 249.458 192.452 249.704 192.684 249.951C192.423 251.391 193.736 251.02 195.512 249.694C196.824 248.701 198.037 247.567 199.132 246.312C202.675 242.353 205.435 237.058 200.648 235.732ZM200.783 241.634C199.455 243.458 197.964 245.141 196.333 246.661C195.821 247.155 195.3 247.628 194.769 248.08C194.759 248.172 194.759 248.255 194.75 248.327C194.712 248.427 194.667 248.523 194.615 248.615C194.074 249.653 193.466 249.088 193.234 248.224C193.215 248.193 193.186 248.162 193.167 248.131C192.395 247.283 191.724 246.337 191.168 245.314C187.182 237.953 193.601 232.946 193.282 246.692C193.224 246.818 193.185 246.954 193.167 247.093C193.112 247.428 193.125 247.771 193.205 248.101L193.234 248.224C193.427 248.44 193.63 248.645 193.842 248.861C194.035 248.707 194.219 248.543 194.412 248.388C194.528 248.286 194.644 248.183 194.769 248.08C194.788 247.813 194.817 247.504 194.846 247.165V247.155C195.097 244.399 195.783 239.444 197.047 238.097C199.827 235.825 203.428 238.282 200.783 241.634ZM194.837 247.165C194.653 247.247 194.47 247.329 194.306 247.422H194.296C194.142 247.504 193.987 247.586 193.833 247.679C193.813 247.689 193.804 247.7 193.784 247.71C193.582 247.504 193.379 247.299 193.167 247.093C193.112 247.428 193.125 247.771 193.205 248.101L193.234 248.224C193.427 248.44 193.63 248.645 193.842 248.861C194.035 248.707 194.219 248.543 194.412 248.388C194.528 248.286 194.644 248.183 194.769 248.08C194.788 247.813 194.817 247.504 194.846 247.165L194.837 247.165Z" fill="#2F2E41"/>
<path d="M427.579 449.578L418.279 475.411L374.652 567.07L412.987 673.698L432.772 668.135L416.465 567.07L463.248 506.525L518.808 546.662C518.808 546.662 543.449 567.15 552.823 547.727C562.197 528.304 622.853 486.99 622.853 486.99L607.847 469.941L537.998 504.757L489.788 432.483L427.579 449.578Z" fill="#2F2E41"/>
<path d="M474.506 327.727L459.197 310.208L432.936 306.36L400.758 330.353L401.082 356.91L416.989 419.489C416.989 419.489 410.93 464.45 427.853 463.999C444.777 463.548 454.001 454.561 460.894 456.391C467.787 458.22 497.087 466.006 498.944 457.851C500.801 449.696 510.671 455.535 510.238 447.82C509.805 440.106 483.517 384.497 483.517 384.497L490.053 328.884L474.506 327.727Z" fill="#6C63FF"/>
<path d="M571.439 247.085C571.576 248.538 571.412 250.005 570.959 251.383C570.506 252.761 569.775 254.017 568.817 255.061C567.859 256.106 566.698 256.914 565.415 257.429C564.132 257.944 562.759 258.153 561.392 258.042L526.187 329.356L516.735 313.901L552.719 246.596C553.048 244.163 554.202 241.942 555.965 240.355C557.728 238.768 559.975 237.924 562.283 237.985C564.59 238.045 566.797 239.004 568.484 240.682C570.172 242.359 571.223 244.637 571.439 247.085Z" fill="#FFB6B6"/>
<path d="M460.607 340.987C460.607 340.987 459.211 353.672 472.619 356.812C486.026 359.953 523.173 337.346 529.262 333.893C531.169 332.812 533.757 327.512 536.412 320.741C537.604 317.702 538.809 314.366 539.973 310.982C540.646 309.024 543.871 308.49 544.505 306.548C545.136 304.617 543.178 301.278 543.749 299.458C546.462 290.818 548.383 283.964 548.383 283.964L539.497 266.185C527.068 273.183 520.694 288.598 516.006 306.358L460.607 340.987Z" fill="#6C63FF"/>
<path d="M304.02 263.462C304.229 264.905 304.732 266.281 305.494 267.495C306.257 268.709 307.26 269.729 308.432 270.485C309.605 271.241 310.919 271.714 312.282 271.871C313.645 272.028 315.024 271.864 316.321 271.392L367.163 331.053L372.683 313.57L322.029 257.999C321.139 255.73 319.5 253.888 317.42 252.821C315.341 251.754 312.966 251.537 310.746 252.21C308.527 252.884 306.616 254.401 305.376 256.475C304.136 258.548 303.654 261.034 304.02 263.462Z" fill="#FFB6B6"/>
<path d="M433.388 324.833C433.388 324.833 437.721 336.743 425.477 343.357C413.234 349.971 371.958 337.985 365.251 336.265C363.15 335.727 359.4 331.285 355.239 325.438C353.371 322.813 351.42 319.904 349.498 316.939C348.386 315.222 345.139 315.564 344.068 313.853C343.003 312.152 344.115 308.397 343.134 306.787C338.478 299.146 335.007 293.022 335.007 293.022L339.433 273.44C353.111 276.903 362.904 290.128 371.616 306.073L433.388 324.833Z" fill="#6C63FF"/>
<path d="M446.59 301.904C460.39 301.904 471.577 289.988 471.577 275.29C471.577 260.592 460.39 248.677 446.59 248.677C432.79 248.677 421.603 260.592 421.603 275.29C421.603 289.988 432.79 301.904 446.59 301.904Z" fill="#FFB6B6"/>
<path d="M475.113 260.052C472.484 255.721 467.552 252.834 462.771 253.645C462.326 250.395 461.052 247.337 459.088 244.805C457.124 242.272 454.546 240.362 451.634 239.282C448.721 238.203 445.587 237.995 442.571 238.681C439.555 239.367 436.774 240.921 434.531 243.175C433.793 242.621 432.933 242.28 432.035 242.185C431.137 242.089 430.231 242.242 429.405 242.628C427.76 243.425 426.328 244.649 425.241 246.188C422.498 249.833 420.733 254.201 420.135 258.829C419.538 263.457 420.13 268.17 421.848 272.468C421.263 270.206 423.392 268.077 425.543 267.569C427.694 267.061 429.951 267.542 432.132 267.211C434.928 266.787 437.441 265.06 440.241 264.671C442.615 264.507 444.997 264.833 447.256 265.631C449.514 266.43 451.892 266.77 454.268 266.634C456.625 266.336 459.66 275.849 459.62 282.549C459.612 283.819 459.857 285.449 461.022 285.719C462.457 286.051 463.289 283.941 464.654 283.367C465.284 283.175 465.958 283.25 466.536 283.578C467.114 283.905 467.551 284.459 467.753 285.122C467.925 285.796 467.944 286.504 467.807 287.188C467.67 287.871 467.382 288.51 466.967 289.051C466.127 290.123 465.131 291.043 464.016 291.777L464.578 292.275C465.112 292.876 465.825 293.261 466.596 293.362C467.367 293.464 468.147 293.278 468.803 292.834C470.092 291.904 471.136 290.638 471.836 289.156C474.472 284.814 476.356 280.005 477.399 274.956C478.28 269.886 477.741 264.383 475.113 260.052Z" fill="#2F2E41"/>
<path d="M659.964 365.017C627.735 391.016 563.607 382.803 543.707 427.338C483.453 562.179 431.905 459.463 379.149 448.355L378.663 445.6C431.475 450.266 488.124 443.027 542.484 424.665C591.609 408.073 635.438 383.39 669.23 353.313L671 355.667C667.432 358.845 663.754 361.961 659.964 365.017Z" fill="#E42C2C"/>
<path d="M523.7 718.183C522.933 720.605 84.6711 720.605 83.8429 718.189C84.6095 715.761 522.871 715.761 523.7 718.183Z" fill="#CCCCCC"/>
</g>
<defs>
<clipPath id="clip0_7_386">
<rect width="671" height="720" fill="white"/>
</clipPath>
</defs>
</svg>
